<?xml version="1.0" standalone="no"?>
<!DOCTYPE svg PUBLIC "-//W3C//DTD SVG 1.1//EN" "http://www.w3.org/Graphics/SVG/1.1/DTD/svg11.dtd" >
<svg xmlns="http://www.w3.org/2000/svg" xmlns:xlink="http://www.w3.org/1999/xlink" version="1.1">
<metadata></metadata>
<defs>
<font id="vogue_highline_serifmedium" horiz-adv-x="1255" >
<font-face units-per-em="2048" ascent="1612" descent="-436" />
<missing-glyph horiz-adv-x="561" />
<glyph horiz-adv-x="0" />
<glyph horiz-adv-x="682" />
<glyph unicode=" "  horiz-adv-x="561" />
<glyph unicode="&#x09;" horiz-adv-x="561" />
<glyph unicode="&#xa0;" horiz-adv-x="561" />
<glyph unicode="!" horiz-adv-x="507" d="M131 96q0 48 34 82.5t83 34.5q47 0 82 -35t35 -82q0 -49 -34.5 -81.5t-82.5 -32.5q-50 0 -83.5 32.5t-33.5 81.5zM135 1307q0 38 1.5 62t8 52.5t18 45t33 27.5t52.5 11q37 0 61 -15.5t34.5 -46.5t13.5 -60.5t3 -75.5q0 -107 -24.5 -251.5t-51.5 -307.5t-30 -306h-12 q-3 143 -30 306t-52 307.5t-25 251.5z" />
<glyph unicode="&#x22;" horiz-adv-x="714" d="M123 1155q19 57 35 116.5t23.5 91.5t17 63t20 45t27 22t41.5 8q53 0 53 -59q0 -31 -29.5 -70.5t-86 -103t-93.5 -117.5q-4 0 -8 4zM371 1155q18 56 34 115t23.5 91t17.5 63.5t20 45.5t27 22.5t42 8.5q55 0 55 -67q0 -31 -31 -70t-87.5 -99t-92.5 -114z" />
<glyph unicode="#" horiz-adv-x="1507" d="M123 489v95h305l104 338h-376v94h407l154 489h92l-156 -489h353l155 489h90l-153 -489h286v-94h-315l-106 -338h389v-95h-418l-152 -489h-94l154 489h-353l-151 -489h-92l153 489h-276zM518 584h352l107 338h-352z" />
<glyph unicode="$" d="M57 553h9q25 -171 99 -293.5t179 -191.5l135 604q-67 22 -116.5 44t-100 57t-82 76.5t-51.5 102t-20 135.5q0 105 38.5 186.5t104.5 131t148.5 75t177.5 25.5q34 0 84 -4l40 178h21l-41 -182q66 -9 135 -39l49 221h21l-51 -229q7 -3 27 -11.5t29 -12t25 -8.5t29.5 -7 t28.5 -2q32 0 55.5 31.5t28.5 66.5h8l37 -540h-8q-63 322 -267 454l-127 -571l62 -19q71 -21 124.5 -43t108.5 -58t90.5 -79.5t57.5 -107.5t22 -142q0 -84 -30 -155t-80 -120.5t-116 -84.5t-138 -51.5t-146 -16.5q-41 0 -147 9l-33 -150h-20l32 154q-84 16 -137 32l-39 -186 h-20l41 193q-7 2 -31.5 10t-34 10.5t-27 7.5t-31.5 6.5t-28 1.5q-41 0 -62.5 -28t-27.5 -62h-12zM272 1202q0 -115 68.5 -185t187.5 -114l131 584q-39 8 -81 8q-76 0 -144 -32t-115 -100.5t-47 -160.5zM362 55q59 -39 132 -55l137 627q-2 1 -133 41zM512 -4q52 -12 106 -12 q96 0 179 35t136.5 107.5t53.5 168.5q0 58 -18.5 106t-47 80.5t-75 60.5t-90.5 45t-105 36zM547 895l42 -14t52 -16.5t43 -10.5l127 578q-59 34 -131 51z" />
<glyph unicode="%" horiz-adv-x="1531" d="M113 1044q0 158 71 263.5t203 105.5q133 0 205 -105.5t72 -263.5q0 -159 -72 -264.5t-205 -105.5q-89 0 -152 52t-92.5 134t-29.5 184zM207 0l1020 1386h98l-1018 -1386h-100zM236 1044q0 -99 15 -177.5t50 -129.5t86 -51q75 0 113.5 102t38.5 256q0 98 -15.5 176.5 t-50.5 129.5t-86 51t-86 -51t-50 -129.5t-15 -176.5zM868 340q0 102 29.5 184.5t93 134.5t152.5 52q90 0 153.5 -52t93 -134.5t29.5 -184.5q0 -158 -71.5 -262.5t-204.5 -104.5q-132 0 -203.5 104.5t-71.5 262.5zM993 340q0 -154 38.5 -256t113.5 -102q51 0 86 51t50 129.5 t15 177.5q0 98 -15 176t-50 129t-86 51t-86 -51t-50.5 -129t-15.5 -176z" />
<glyph unicode="&#x26;" horiz-adv-x="1677" d="M82 358q0 66 23.5 125.5t59.5 103.5t93 87t110 72.5t126 64.5q-46 81 -79.5 179t-33.5 159q0 153 108 262t293 109q144 0 238 -68.5t94 -198.5q0 -42 -13.5 -81t-31.5 -67.5t-55.5 -60t-64.5 -50t-82 -46.5t-83.5 -41t-91.5 -41q222 -377 449 -624q67 81 108 181.5 t41 192.5q0 21 -1 35t-6 38t-13.5 41.5t-26.5 37t-43 32t-63.5 21t-87.5 8.5v9h534v-9q-96 0 -160.5 -51.5t-87.5 -134.5q-66 -266 -184 -416q97 -109 150.5 -149.5t105.5 -40.5q66 0 110 82t44 248q0 13 8.5 20.5t19.5 7.5t19 -7.5t8 -20.5q0 -166 -92 -282t-226 -116 q-143 0 -280 121q-161 -121 -416 -121q-104 0 -194.5 22t-165 66.5t-117.5 121.5t-43 179zM274 399q0 -167 118 -280t296 -113q175 0 318 98q-32 25 -64 62q-228 236 -436 618q-97 -61 -164.5 -162t-67.5 -223zM551 1212q0 -110 131 -329q67 36 113 69.5t89.5 80.5t65 108.5 t21.5 136.5q0 100 -55.5 164.5t-133.5 64.5q-97 0 -164 -86t-67 -209z" />
<glyph unicode="'" horiz-adv-x="466" d="M123 1155q19 57 35 116.5t23.5 91.5t17 63t20 45t27 22t41.5 8q53 0 53 -59q0 -31 -29.5 -70.5t-86 -103t-93.5 -117.5q-4 0 -8 4z" />
<glyph unicode="(" horiz-adv-x="759" d="M133 711q0 146 31.5 280t96.5 259t173 235.5t254 197.5l6 -8q-111 -77 -189 -181t-120.5 -230.5t-61 -259.5t-18.5 -293q0 -161 18.5 -294.5t61 -259.5t120.5 -230t189 -181l-6 -8q-146 87 -254 198t-173 236t-96.5 259t-31.5 280z" />
<glyph unicode=")" horiz-adv-x="759" d="M63 -254q111 77 188 181t120 230t61.5 260t18.5 294q0 159 -18.5 292.5t-61.5 259.5t-120.5 230.5t-187.5 181.5l5 8q146 -87 254.5 -197.5t174 -235.5t97 -259t31.5 -280t-31.5 -280t-97 -259t-174 -236t-254.5 -198z" />
<glyph unicode="*" horiz-adv-x="1009" d="M111 1208q0 27 15 41.5t36 14.5q39 0 97.5 -34t125.5 -75t117 -53q-2 70 -27.5 183t-25.5 147q0 40 12 56.5t45 16.5t46 -17.5t13 -55.5q0 -34 -25.5 -147t-27.5 -183q50 12 117 53t125.5 75t97.5 34q22 0 36.5 -15.5t14.5 -40.5q0 -33 -23.5 -51t-66.5 -24t-89.5 -8 t-106 -9.5t-103.5 -23.5q29 -45 78 -91.5t88.5 -76t69.5 -60t30 -51.5q0 -13 -21.5 -38t-49.5 -25q-21 2 -43 35t-41 76.5t-52 109t-67 114.5q-41 -60 -81.5 -148.5t-67 -136t-54.5 -50.5q-19 0 -37 15t-26.5 29t-8.5 19q0 21 30.5 51.5t70.5 60t89.5 76t78.5 91.5 q-51 18 -127.5 26.5t-129.5 10.5t-92.5 21t-39.5 58z" />
<glyph unicode="+" horiz-adv-x="1183" d="M143 629v92h402v403h92v-403h403v-92h-403v-402h-92v402h-402z" />
<glyph unicode="," horiz-adv-x="485" d="M111 96q0 47 35 82t81 35q66 0 100.5 -56t34.5 -134q0 -100 -61.5 -189.5t-167.5 -132.5l-4 6q58 34 98.5 101t40.5 129q0 23 -6 53q-20 -8 -35 -8q-48 0 -82 31.5t-34 82.5z" />
<glyph unicode="-" horiz-adv-x="897" d="M133 485l8 93q360 14 629 40l-8 -92q-344 -13 -629 -41z" />
<glyph unicode="." horiz-adv-x="479" d="M123 96q0 48 34 82.5t83 34.5q47 0 80.5 -34.5t33.5 -82.5q0 -49 -33 -80.5t-81 -31.5q-50 0 -83.5 31.5t-33.5 80.5z" />
<glyph unicode="/" horiz-adv-x="706" d="M0 0l575 1479h132l-580 -1479h-127z" />
<glyph unicode="0" d="M86 739q0 129 20.5 242.5t64 210t106.5 166t152.5 108.5t197.5 39q135 0 239.5 -59.5t169.5 -165t98 -242.5t33 -299t-33 -299t-98 -242.5t-169.5 -165t-239.5 -59.5q-108 0 -197.5 39t-152.5 108.5t-106.5 166t-64 210t-20.5 242.5zM315 739q0 -168 17.5 -303t54.5 -238 t97.5 -158.5t142.5 -55.5t143 55.5t97.5 158t54.5 238t18 303.5t-18 303t-54.5 238t-97.5 159t-143 56t-142.5 -56t-97.5 -159t-54.5 -238t-17.5 -303z" />
<glyph unicode="1" d="M197 0v8q87 0 147.5 7.5t95 20t53.5 34.5t24 43.5t5 54.5v1077q0 78 -45 78q-15 0 -47 -8l-182 -47v14q201 38 310.5 96.5t166.5 134.5h8v-1345q0 -33 5 -54.5t23.5 -43.5t53 -34.5t95 -20t147.5 -7.5v-8h-860z" />
<glyph unicode="2" horiz-adv-x="1187" d="M98 41q0 86 40 166.5t103.5 145t140.5 128.5t154.5 129.5t141 134.5t103.5 156.5t40 183.5q0 189 -95 295.5t-222 106.5q-56 0 -100 -15.5t-68.5 -37.5t-40.5 -50t-21.5 -49.5t-5.5 -38.5q0 -59 27 -119t27 -85q0 -42 -27.5 -66.5t-63.5 -24.5q-47 0 -82.5 33t-35.5 84 q0 70 31.5 139t89 125.5t147.5 91.5t197 35q190 0 315 -115t125 -298q0 -105 -39.5 -194.5t-105.5 -154.5t-147 -121t-168.5 -105t-165 -94.5t-143 -102t-95.5 -115.5q0 -1 1 -3t1 -3q104 63 241 63q55 0 132 -20.5t142 -45t140.5 -45t126.5 -20.5q44 0 77.5 23t52 60.5 t27.5 79t9 83.5h16q0 -116 -30.5 -206t-98 -146t-164.5 -56q-69 0 -150.5 26t-143.5 57t-136.5 57t-130.5 26q-145 0 -145 -104q0 -23 2 -35h-21q-4 24 -4 41z" />
<glyph unicode="3" d="M150 354q0 45 32.5 80t71.5 35q45 0 76.5 -33t31.5 -82q0 -41 -32.5 -89t-32.5 -83q0 -88 74 -143t209 -55q137 0 224 114.5t87 300.5q0 161 -76 253.5t-209 92.5h-153v11h153q105 0 180.5 111t75.5 274q0 154 -79 249t-195 95q-131 0 -194.5 -48.5t-63.5 -119.5 q0 -30 12 -54t27 -39t27 -43t12 -65q0 -44 -34 -81.5t-75 -37.5q-42 0 -73 35.5t-31 85.5q0 97 38 174t101.5 123t140.5 70t162 24q189 0 310.5 -101.5t121.5 -268.5q0 -138 -87.5 -244.5t-256.5 -144.5q184 -18 281.5 -117.5t97.5 -255.5q0 -128 -67.5 -222t-178 -140 t-248.5 -46q-64 0 -124.5 10.5t-123 38t-108.5 69.5t-75 111t-29 156z" />
<glyph unicode="4" d="M43 408l864 1101h11v-1052h260v-76h-260v-213q0 -41 8 -67t31.5 -49t71.5 -33.5t124 -10.5v-8h-702v8q83 0 135.5 10.5t78 33.5t34 49t8.5 67v213h-654zM96 457h611v778z" />
<glyph unicode="5" d="M154 332q0 62 25.5 99.5t74.5 37.5q45 0 76.5 -33t31.5 -82q0 -43 -30.5 -93t-30.5 -81q0 -88 70 -142t198 -54q136 0 230 141t94 350q0 196 -99 320.5t-233 124.5q-93 0 -163.5 -39t-112.5 -90q8 -28 8 -66q0 -31 -14 -49.5t-31 -18.5q-18 0 -28.5 11.5t-10.5 29.5 q0 49 47 99l53 690q225 -49 475 -49q56 0 102.5 4t77 10.5t54 14t36.5 15.5t21 14.5t11 10.5l4 4q8 0 8 -10q0 -38 -24.5 -79.5t-70 -79.5t-121.5 -62.5t-167 -24.5q-189 0 -406 48l-35 -494q58 58 144 94.5t178 36.5q127 0 227 -38t160.5 -102.5t91.5 -144t31 -168.5 q0 -118 -40.5 -216.5t-109.5 -164t-160.5 -101.5t-193.5 -36q-60 0 -116.5 8.5t-118.5 33.5t-107.5 63.5t-75.5 105t-30 152.5z" />
<glyph unicode="6" d="M119 688q0 137 23.5 259.5t72.5 225.5t119 177.5t167.5 116.5t213.5 42q92 0 170 -31.5t128 -96t50 -150.5q0 -50 -30.5 -83.5t-76.5 -33.5q-45 0 -71.5 32t-26.5 79q0 25 8 75.5t8 73.5q0 50 -38 87.5t-121 37.5q-86 0 -153.5 -48.5t-110 -126t-70 -183t-38.5 -211.5 t-11 -219q0 -9 1 -26t1 -23q45 113 139.5 184.5t222.5 71.5q108 0 193.5 -36t139 -97.5t81 -139.5t27.5 -166q0 -116 -41.5 -213t-111 -161.5t-160.5 -100t-191 -35.5q-110 0 -196.5 34.5t-145.5 96.5t-98 152.5t-56.5 198t-17.5 237.5zM344 453q0 -219 74.5 -346 t214.5 -127q60 0 110 25.5t92 80t65.5 152t23.5 229.5q0 190 -76.5 311t-200.5 121q-133 0 -218 -130t-85 -316z" />
<glyph unicode="7" d="M123 965v532h22v-254q71 266 265 266q52 0 115.5 -24t122.5 -57.5t117 -67.5t116.5 -58t103.5 -24q150 0 150 231h18q0 -57 -2 -82q-4 -88 -32 -160t-72.5 -134t-93 -126t-106 -166.5t-99.5 -224.5q-59 -169 -68 -356q-2 -34 -3 -53.5t-5 -54t-9 -55.5t-14 -47.5 t-20.5 -41t-29.5 -25t-40 -10.5q-121 0 -121 146q0 129 32.5 251t86.5 218t119.5 182.5t135.5 159t130.5 134t108.5 119.5t65 103l-6 4q-52 -52 -133.5 -80t-157.5 -28q-55 0 -123.5 23.5t-124 52t-124 52t-123.5 23.5q-83 0 -131 -50t-48 -136v-182h-22z" />
<glyph unicode="8" horiz-adv-x="1183" d="M82 344q0 238 342 379q-62 33 -108 67t-87.5 80t-63.5 107t-22 133q0 99 39.5 176.5t107.5 124t152.5 70.5t180.5 24q182 0 301.5 -90.5t119.5 -243.5q0 -226 -321 -350q53 -23 92 -42t85 -46.5t77.5 -58t59 -68.5t41.5 -86t14 -104q0 -106 -45 -192t-120.5 -140 t-169.5 -82.5t-196 -28.5q-221 0 -350 101t-129 270zM201 367q0 -173 101.5 -278t258.5 -105q152 0 252 85.5t100 237.5q0 47 -13 87t-40.5 73t-57 58t-78 51.5t-86.5 44.5t-98.5 46t-99.5 48q-113 -66 -176 -148t-63 -200zM301 1204q0 -55 23 -104.5t58.5 -86t92 -72.5 t109 -61t123.5 -53q219 136 219 330q0 86 -26.5 153t-71 106t-96.5 59t-109 20q-82 0 -154.5 -32.5t-120 -100.5t-47.5 -158z" />
<glyph unicode="9" d="M119 997q0 116 41 213.5t110.5 162t160 100.5t190.5 36q137 0 237.5 -52.5t161 -150t89 -226.5t28.5 -292q0 -137 -24 -259t-72.5 -225t-119 -177.5t-168.5 -116t-214 -41.5q-142 0 -245.5 75t-103.5 202q0 51 30.5 83.5t76.5 32.5q45 0 71.5 -32t26.5 -78 q0 -23 -8 -71.5t-8 -74.5q0 -52 38 -89t122 -37q66 0 121 27.5t94 73.5t69 112.5t48.5 139t30 158t16 164t4.5 162.5q-45 -113 -140.5 -185.5t-222.5 -72.5q-109 0 -194.5 35.5t-138 97t-80 139.5t-27.5 166zM330 1010q0 -190 77 -310t201 -120q135 0 218 123.5t83 320.5 q0 219 -74.5 347t-213.5 128q-59 0 -109 -25.5t-92 -80.5t-66 -153t-24 -230z" />
<glyph unicode=":" horiz-adv-x="466" d="M111 96q0 47 34.5 82t81.5 35q49 0 83 -34.5t34 -82.5q0 -49 -33.5 -80.5t-83.5 -31.5q-48 0 -82 31.5t-34 80.5zM111 829q0 47 34.5 81t81.5 34q49 0 83 -33.5t34 -81.5q0 -49 -33.5 -81.5t-83.5 -32.5q-48 0 -82 32.5t-34 81.5z" />
<glyph unicode=";" horiz-adv-x="485" d="M111 96q0 47 35 82t81 35q66 0 100.5 -56t34.5 -134q0 -100 -61.5 -189.5t-167.5 -132.5l-4 6q58 34 98.5 101t40.5 129q0 23 -6 53q-20 -8 -35 -8q-48 0 -82 31.5t-34 82.5zM111 829q0 47 34.5 81t81.5 34q49 0 83 -33.5t34 -81.5q0 -49 -33.5 -81.5t-83.5 -32.5 q-48 0 -82 32.5t-34 81.5z" />
<glyph unicode="&#x3c;" horiz-adv-x="1202" d="M143 653v41q224 104 916 428v-102l-754 -346q493 -229 754 -348v-103z" />
<glyph unicode="=" horiz-adv-x="1183" d="M143 623v100h897v-100h-897z" />
<glyph unicode="&#x3e;" horiz-adv-x="1202" d="M143 223v103q375 172 750 348q-625 288 -750 346v102q692 -324 916 -428v-41z" />
<glyph unicode="?" horiz-adv-x="1017" d="M82 1174q0 61 23 117.5t70.5 105.5t130.5 78.5t192 29.5q96 0 176 -29.5t131 -78.5t79.5 -110.5t28.5 -127.5q0 -64 -16.5 -114t-44.5 -82.5t-64.5 -58.5t-77 -46t-80.5 -40.5t-76.5 -47t-64.5 -60.5t-44.5 -86t-16.5 -118q0 -20 8 -86h-20q-3 12 -9 36.5t-9 37t-6.5 34 t-5 44.5t-1.5 51q0 43 17.5 84.5t46 76t62.5 68.5t68 69t62.5 71.5t46 82t17.5 94.5q0 129 -74.5 219.5t-190.5 90.5q-194 0 -194 -129q0 -36 25.5 -95t25.5 -98q0 -45 -31.5 -76.5t-75.5 -31.5q-46 0 -77 35.5t-31 89.5zM332 96q0 48 34 82.5t83 34.5q47 0 81.5 -35 t34.5 -82q0 -49 -34 -81.5t-82 -32.5q-50 0 -83.5 32.5t-33.5 81.5z" />
<glyph unicode="@" horiz-adv-x="1619" d="M102 528q0 152 42 279.5t114 215.5t169.5 149.5t207 90.5t227.5 29q50 0 105.5 -9t117.5 -31t119 -54t110 -81t92 -109.5t62 -143.5t23 -178q0 -236 -111.5 -382t-267.5 -146q-79 0 -106 42.5t-33 157.5q-47 -94 -133.5 -151t-202.5 -57q-102 0 -158.5 52.5t-56.5 137.5 q0 53 31 102t93 91t170.5 67.5t248.5 26.5q0 25 1 58.5t1 43.5q0 136 -40.5 203t-138.5 67q-53 0 -89 -13t-50 -33t-19 -34.5t-5 -27.5q0 -15 3 -47.5t3 -50.5q0 -41 -29 -74t-78 -33q-39 0 -61.5 25t-22.5 59q0 76 56 133.5t133.5 83t158.5 25.5q164 0 252 -71.5t88 -203.5 q0 -73 -5 -201.5t-5 -187.5q0 -82 16 -123t54 -41q93 0 159 148t66 354q0 118 -34 218t-89.5 168t-128 116t-148.5 70t-151 22q-143 0 -266.5 -51.5t-215 -146t-144 -238t-52.5 -318.5q0 -151 48 -277.5t132.5 -213t202 -134.5t254.5 -48q211 0 393.5 102.5t282.5 302.5 q1 0 4 -1t4 -1q-65 -138 -183 -240t-251 -151t-266 -49q-148 0 -278 52t-223.5 144t-147.5 225.5t-54 290.5zM580 340q0 -67 36 -109.5t95 -42.5q38 0 77.5 16t76.5 47t63.5 86.5t32.5 125.5q4 41 4 147q-95 -3 -167 -23.5t-112.5 -47.5t-65.5 -64.5t-32.5 -69t-7.5 -65.5z " />
<glyph unicode="A" horiz-adv-x="1523" d="M10 0v8q25 0 49 7.5t43 18t39 31t33.5 36t30.5 45t25.5 46t23.5 51t20.5 48t18.5 47.5l469 1171h6l567 -1384q28 -65 67.5 -91t110.5 -26v-8h-573v8q74 0 115 11t51 24t10 33q0 19 -12 51l-162 405h-559l-76 -188q-59 -149 -59 -194q0 -22 2.5 -37.5t13.5 -36.5 t30.5 -34.5t58 -23.5t91.5 -10v-8h-434zM387 545h551l-272 696z" />
<glyph unicode="B" horiz-adv-x="1429" d="M66 0v8q66 0 106.5 8.5t59 28.5t23.5 40.5t5 55.5v1207q0 28 -2.5 44t-13 33t-31.5 25.5t-57 14t-90 5.5v9h608q275 0 417 -85t142 -278q0 -124 -96.5 -219.5t-268.5 -122.5q225 -25 334 -125t109 -250q0 -180 -132 -289.5t-356 -109.5h-757zM492 141q0 -37 9 -63t21 -39 t35 -20t39 -8t45 -1h68q162 0 266 99.5t104 289.5q0 170 -98.5 265.5t-263.5 95.5h-225v-619zM492 770h243q115 0 190.5 97.5t75.5 242.5q0 356 -323 356h-57q-24 0 -37.5 -1t-33.5 -7t-30.5 -17.5t-19 -34.5t-8.5 -56v-580z" />
<glyph unicode="C" horiz-adv-x="1390" d="M74 705q0 124 26 240t80.5 218t131.5 178t186.5 120t238.5 44q72 0 149 -23.5t137.5 -47t90.5 -23.5q29 0 50 24t28 68h10l47 -567h-10q-30 144 -86.5 255.5t-124 174.5t-135.5 94t-133 31q-210 0 -327.5 -204t-117.5 -556q0 -349 129.5 -545t331.5 -196q126 0 224 67.5 t153 179.5t68 255q1 21 10.5 32t19.5 11q16 0 24.5 -10t8.5 -25q-4 -148 -78 -270.5t-196 -191.5t-265 -69q-203 0 -356.5 96.5t-234 263t-80.5 376.5z" />
<glyph unicode="D" horiz-adv-x="1536" d="M66 0v8q67 0 108.5 8.5t60 28.5t24 40.5t5.5 55.5v1186q0 35 -5.5 57t-24 44t-60.5 32t-108 10v9h700q166 0 299.5 -60.5t217.5 -164t128.5 -235.5t44.5 -280q0 -119 -28.5 -228.5t-86.5 -202.5t-140 -161.5t-196 -107.5t-247 -39h-692zM494 127q0 -115 75 -115h181 q148 0 255.5 99t159.5 261.5t52 366.5q0 150 -29 280.5t-85 231t-145 158t-202 57.5h-187q-32 0 -53.5 -27.5t-21.5 -86.5v-1225z" />
<glyph unicode="E" horiz-adv-x="1376" d="M66 0v8q67 0 108.5 8.5t60 28.5t24 40.5t5.5 55.5v1194q0 39 -6 61t-25.5 40.5t-59.5 26t-107 7.5v9h950q142 0 164 30h10l53 -487h-10q-22 84 -41.5 140.5t-47.5 110.5t-62.5 87t-83.5 58.5t-113.5 36.5t-149.5 11h-164q-36 0 -56.5 -26.5t-20.5 -104.5v-563h155 q44 0 84 10t78.5 35t66.5 63t45.5 99t18.5 139h8v-700h-8q-1 96 -26.5 166t-69 107t-92.5 54t-105 17h-155v-621q0 -131 88 -131h157q97 0 146 3t110.5 19.5t93.5 48t71 91t67.5 146.5t60.5 217h8l-59 -535h-1171z" />
<glyph unicode="F" horiz-adv-x="1271" d="M66 0v8q67 0 108.5 8.5t60 28.5t24 40.5t5.5 55.5v1194q0 39 -6 61t-25.5 40.5t-59.5 26t-107 7.5v9h997q99 0 117 30h10l53 -487h-10q-24 92 -45 153t-51.5 114.5t-66.5 84t-90 53t-122 31t-162 8.5h-125q-36 0 -56.5 -26.5t-20.5 -104.5v-565h155q61 0 111 18t92 57 t65.5 108.5t24.5 164.5h8v-700h-8q-1 95 -26.5 165t-69 107.5t-92.5 54.5t-105 17h-155v-621q0 -52 15.5 -78.5t63 -40.5t140.5 -14v-8h-647z" />
<glyph unicode="G" horiz-adv-x="1492" d="M74 705q0 124 26 240t80.5 218t131.5 178t186.5 120t238.5 44q72 0 149 -23.5t137.5 -47t90.5 -23.5q29 0 50 24t28 68h10q9 -118 47 -567h-10q-30 144 -86.5 255.5t-124 174.5t-135.5 94t-133 31q-205 0 -325 -197t-120 -563q0 -349 128.5 -545t332.5 -196 q116 0 203.5 75t87.5 154v322q0 33 -3.5 52t-14.5 35t-34.5 23t-59.5 11t-93 4v8h600v-8q-74 0 -108 -11.5t-45 -35.5t-11 -78v-576h-8q-27 89 -50.5 130.5t-55.5 41.5q-23 0 -63 -26.5t-83.5 -57.5t-122.5 -57.5t-170 -26.5q-203 0 -356.5 96.5t-234 263t-80.5 376.5z" />
<glyph unicode="H" horiz-adv-x="1673" d="M66 0v8q67 0 108.5 8.5t60 28.5t24 40.5t5.5 55.5v1184q0 79 -40 112t-158 33v9h624v-9q-62 0 -101.5 -8.5t-60 -27.5t-27.5 -43.5t-7 -63.5v-549h686v549q0 54 -14.5 83t-57.5 44.5t-125 15.5v9h625v-9q-121 0 -160 -31.5t-39 -113.5v-1184q0 -38 6 -59.5t26 -40t60 -26 t107 -7.5v-8h-625v8q84 0 126.5 13.5t56.5 40.5t14 79v625h-686v-625q0 -52 14 -79t56 -40.5t126 -13.5v-8h-624z" />
<glyph unicode="I" horiz-adv-x="759" d="M63 0v8q54 0 91.5 6.5t59 17t33 28.5t14.5 36t3 45v1184q0 28 -3 46t-14.5 38.5t-32.5 32t-59 19t-92 7.5v11h631v-9q-67 0 -109 -10t-61 -32t-24.5 -44t-5.5 -57v-1186q0 -35 5.5 -55.5t24.5 -40.5t60.5 -28.5t109.5 -8.5v-8h-631z" />
<glyph unicode="J" horiz-adv-x="1071" d="M20 305q0 51 16 98.5t55.5 83t96.5 35.5q50 0 85.5 -35.5t35.5 -87.5q0 -38 -19 -64t-46.5 -40t-55 -27.5t-46.5 -35.5t-19 -54q0 -69 55.5 -124.5t167.5 -55.5q46 0 89 21t80.5 64t60 118.5t22.5 173.5v952q0 77 -40.5 110t-158.5 33v9h625v-9q-118 0 -156.5 -32.5 t-38.5 -110.5v-838q0 -516 -444 -516q-89 0 -160.5 28.5t-115 75.5t-66.5 105.5t-23 122.5z" />
<glyph unicode="K" horiz-adv-x="1568" d="M66 0v8q66 0 106.5 8.5t59 28.5t23.5 40.5t5 55.5v1207q0 28 -2.5 44t-13 33t-31.5 25.5t-57 14t-90 5.5v9h624v-9q-62 0 -101.5 -8.5t-60 -27.5t-27.5 -43.5t-7 -63.5v-713q164 138 288 264.5t267 290.5q45 53 80.5 116t35.5 85q0 12 -1 20.5t-10 25t-25.5 27t-51.5 19 t-84 8.5v9h508v-9q-105 0 -175 -38.5t-134 -110.5q-212 -251 -330 -377q116 -185 500 -805q47 -75 88 -103t117 -28v-8h-598v8q64 0 99.5 6.5t46.5 16.5t11 26q0 29 -34 82l-35 56q-123 197 -365 591q-105 -105 -198 -186v-459q0 -52 14 -79t56 -40.5t126 -13.5v-8h-624z " />
<glyph unicode="L" horiz-adv-x="1298" d="M66 0v8q67 0 108.5 8.5t60 28.5t24 40.5t5.5 55.5v1194q0 35 -5.5 55.5t-24 41t-60 29.5t-108.5 9v9h628v-9q-54 0 -92 -7t-59 -17t-32 -29t-14 -36.5t-3 -45.5v-1194q0 -131 88 -131h157q76 0 115.5 1.5t93.5 8.5t81.5 20t64.5 39t58 63t47.5 93.5t46.5 129t42 170.5h8 q-10 -99 -59 -535h-1171z" />
<glyph unicode="M" horiz-adv-x="1855" d="M43 0v8q57 0 98.5 20.5t63.5 49.5t34.5 74t15.5 80.5t3 82.5v922v40t-1.5 36t-4.5 34.5t-8 29.5t-13 27.5t-19.5 22t-27.5 19t-36 13t-46.5 9t-58.5 2.5v9h449l452 -1157l457 1157h411v-9q-66 0 -108 -10t-60.5 -32t-24 -44t-5.5 -57v-1186q0 -35 5.5 -55.5t24 -40.5 t60 -28.5t108.5 -8.5v-8h-624v8q61 0 101 9t60 28t27.5 41t7.5 55v1248h-8l-547 -1389h-8l-542 1389h-9v-1067q0 -33 1 -58t5.5 -59.5t12.5 -60t23.5 -52.5t36.5 -44.5t53.5 -28.5t72.5 -11v-8h-432z" />
<glyph unicode="N" horiz-adv-x="1492" d="M33 0v8q59 0 101 22t64 53t34.5 79.5t15 84.5t2.5 85v987q0 77 -48.5 113.5t-168.5 37.5v9h432l766 -1153v827q0 49 -2 83t-13.5 82t-31.5 78t-60 52t-96 22v9h432v-9q-49 0 -87 -14t-60.5 -40.5t-37.5 -55.5t-21.5 -69t-8.5 -69.5t-2 -68.5v-1153h-69l-906 1356h-8 v-1024q0 -57 8 -107t28 -102.5t63.5 -83.5t105.5 -31v-8h-432z" />
<glyph unicode="O" horiz-adv-x="1495" d="M76 739q0 217 79.5 390t233 274.5t356.5 101.5q153 0 280.5 -59t212 -162t131 -243t46.5 -302t-46.5 -302.5t-131.5 -243.5t-211.5 -161.5t-280.5 -58.5q-203 0 -356.5 101.5t-233 274t-79.5 390.5zM315 739q0 -219 50.5 -389t149 -268t230.5 -98q133 0 232 98t150 268 t51 389q0 218 -51 388t-150 269t-232 99q-132 0 -230.5 -99t-149 -269t-50.5 -388z" />
<glyph unicode="P" horiz-adv-x="1341" d="M66 0v8q67 0 108.5 8.5t60 28.5t24 40.5t5.5 55.5v1194q0 35 -5.5 55.5t-24 41t-60 29.5t-108.5 9v9h735q214 0 351.5 -113t137.5 -301q0 -196 -146.5 -330.5t-379.5 -134.5q-163 0 -270 70v-529q0 -52 15.5 -78.5t62.5 -40.5t139 -14v-8h-645zM494 834q0 -109 52 -164.5 t181 -55.5q81 0 146 39.5t104 104.5t59.5 143.5t20.5 163.5q0 165 -85 283t-214 118h-121q-143 0 -143 -131v-501z" />
<glyph unicode="Q" horiz-adv-x="1495" d="M76 739q0 217 79.5 390t233 274.5t356.5 101.5q153 0 280.5 -59t212 -162t131 -243t46.5 -302q0 -216 -78.5 -388.5t-222.5 -270.5l25 -103q43 -182 72 -245q42 -90 100 -90q83 0 112 227q3 43 27 43q11 0 19 -9.5t8 -25.5q0 -130 -69 -197t-165 -67q-59 0 -107 23 t-80.5 60.5t-56.5 90.5t-37.5 107.5t-21.5 117.5q-89 -39 -195 -39q-120 0 -226 39t-186 109.5t-138.5 165.5t-88.5 210.5t-30 241.5zM315 739q0 -273 79 -468t220 -259q-53 36 -79.5 95t-26.5 116q0 31 7 65t24 69.5t42 63.5t65 46t89 18q108 0 202 -78t134 -196 q51 90 79 231t28 297q0 218 -51 388t-150 269t-232 99q-132 0 -230.5 -99t-149 -269t-50.5 -388zM549 223q0 -99 49.5 -169t146.5 -70q110 0 189 61q-24 194 -49 271q-52 154 -158 155q-78 0 -128 -78t-50 -170z" />
<glyph unicode="R" horiz-adv-x="1503" d="M66 0v8q67 0 108.5 8.5t60 28.5t24 40.5t5.5 55.5v1194q0 35 -5.5 55.5t-24 41t-60 29.5t-108.5 9v9h729q224 0 361.5 -97t137.5 -276q0 -168 -143.5 -268.5t-384.5 -108.5q99 -17 178 -65.5t128.5 -112t89 -135.5t67.5 -141t54 -125t59.5 -90.5t74.5 -34.5q49 0 86 65 q2 -2 6.5 -4t6.5 -4q-63 -102 -173 -102q-93 0 -163.5 41.5t-113.5 107.5t-77 145.5t-62.5 159.5t-60 146t-80.5 107.5t-114 41.5h-178v-588q0 -35 5.5 -55.5t24 -40.5t60 -28.5t108.5 -8.5v-8h-626zM494 741h202q174 0 270.5 99.5t96.5 259.5q0 156 -86 261t-215 105h-172 q-96 0 -96 -133v-592z" />
<glyph unicode="S" horiz-adv-x="1243" d="M57 553h9q16 -117 57 -213.5t96.5 -161.5t123.5 -109.5t137 -64.5t138 -20q96 0 179 35t136.5 107.5t53.5 168.5q0 76 -30 134t-81 93.5t-116.5 63t-138.5 49t-146 44t-138.5 55.5t-116.5 77t-81 114t-30 162q0 105 38 186.5t104 131t149 75t178 25.5q81 0 146.5 -15 t99.5 -33t74.5 -33t76.5 -15q32 0 55.5 31.5t28.5 66.5h8l37 -540h-8q-27 140 -81.5 245t-126 165t-149.5 89t-161 29q-76 0 -144 -32t-115 -100.5t-47 -160.5q0 -76 31 -134t83 -93.5t119 -63t142 -48.5t149.5 -43.5t141.5 -55.5t119 -77t83 -114t31 -161q0 -89 -33.5 -164 t-89 -124.5t-128 -84.5t-149 -50.5t-153.5 -15.5q-92 0 -177.5 22t-150.5 44t-108 22q-41 0 -62.5 -28t-27.5 -62h-12z" />
<glyph unicode="T" horiz-adv-x="1402" d="M20 1022l54 487h8q20 -30 125 -30h987q107 0 127 30h8l53 -487h-8q-16 60 -28.5 101.5t-30 87.5t-36 77t-44 62.5t-56.5 50.5t-71 35t-89.5 23t-109.5 7h-51q-27 0 -35 -17t-8 -75v-1233q0 -35 5.5 -55.5t24.5 -40.5t60.5 -28.5t108.5 -8.5v-8h-627v8q67 0 108.5 8.5 t60.5 28.5t24.5 40.5t5.5 55.5v1233q0 60 -7.5 76t-37.5 16h-49q-66 0 -118 -8.5t-92.5 -23.5t-72.5 -43.5t-56 -60t-46.5 -82.5t-39.5 -101t-38 -125h-9z" />
<glyph unicode="U" horiz-adv-x="1576" d="M47 1470v9h629v-9q-54 0 -92 -7.5t-59 -19t-32.5 -32t-14.5 -38.5t-3 -46v-885q0 -98 33.5 -180t90 -136t131 -84t157.5 -30q180 0 298 118.5t118 311.5v811q0 34 -3.5 60t-16.5 57.5t-35.5 51.5t-64 34t-98.5 14v9h445v-9q-50 0 -87.5 -9t-60.5 -26.5t-37 -36t-20.5 -47 t-8 -48.5t-1.5 -50v-811q0 -116 -42.5 -208t-116.5 -149t-169.5 -86.5t-206.5 -29.5q-152 0 -271 52.5t-191 161t-72 259.5v885q0 35 -5.5 57t-24.5 44t-61 32t-108 10z" />
<glyph unicode="V" horiz-adv-x="1519" d="M10 1470v9h565v-9q-51 0 -84.5 -6t-49 -16.5t-20.5 -21t-5 -25.5q0 -21 12 -51l430 -1106l361 913q17 44 25 67.5t15 56t7 62.5q0 124 -181 127v9h424v-9q-36 0 -68.5 -13t-59.5 -39.5t-48 -53.5t-41 -68t-32.5 -68.5t-28.5 -68.5l-471 -1190h-8l-555 1383 q-47 118 -187 118z" />
<glyph unicode="W" horiz-adv-x="2107" d="M10 1470v9h580v-9q-95 0 -131.5 -18t-36.5 -57q0 -5 10 -45l332 -1041l371 1200h8l389 -1200l278 869q29 96 29 165q0 64 -41 93.5t-143 33.5v9h442v-9q-38 0 -70 -9t-55 -22.5t-44.5 -38t-35 -45.5t-28 -56t-22.5 -59t-21 -64l-385 -1207h-9l-380 1207l-381 -1207h-9 l-458 1383q-40 118 -189 118z" />
<glyph unicode="X" horiz-adv-x="1556" d="M31 0v8q38 0 74.5 10t65 23.5t58.5 39.5t50 46t46.5 55.5t39.5 55.5t37.5 58t33.5 52l240 361l-359 555q-8 12 -25.5 40t-24 38t-22 31.5t-23.5 29.5t-23 22.5t-27.5 20t-30 12.5t-36.5 9.5t-42 2.5v9h623v-9q-45 0 -78 -5.5t-48.5 -12t-24.5 -17.5t-10 -17t-1 -15 q0 -28 11.5 -52.5t50.5 -86.5l264 -410l252 373q55 82 55 141q0 48 -30.5 75t-112.5 27v9h442v-9q-181 0 -344 -243l-258 -383l461 -711q43 -66 90.5 -95.5t128.5 -29.5v-8h-647v8q48 0 83 6t51.5 14t25.5 19t10.5 17t1.5 12q0 20 -6.5 38.5t-12 29t-23.5 37t-26 38.5 l-309 479l-236 -352q-36 -54 -54.5 -85.5t-39 -81.5t-20.5 -87q0 -45 33.5 -64.5t128.5 -19.5v-8h-463z" />
<glyph unicode="Y" horiz-adv-x="1484" d="M23 1470v9h602v-9q-164 0 -164 -61q0 -31 33 -86l368 -643l326 598q20 39 20 84q0 97 -170 108v9h424v-9q-56 0 -94 -10t-68 -37.5t-50.5 -57.5t-51.5 -87l-334 -614v-523q0 -38 6 -59.5t26 -40t60 -26t107 -7.5v-8h-629v8q68 0 109.5 8.5t60 28.5t24 40.5t5.5 55.5v500 l-395 682q-40 70 -90 108.5t-125 38.5z" />
<glyph unicode="Z" horiz-adv-x="1277" d="M49 0v8l887 1458h-487q-43 0 -81.5 -10t-83.5 -41t-81.5 -82t-69.5 -141.5t-53 -210.5h-8l59 528h8q20 -30 119 -30h946v-9l-882 -1454h417q42 0 68 1t65 6.5t65.5 16t60.5 30.5t58.5 48t52 71t48 97.5t39.5 129t33 164.5h8l-63 -580h-1125z" />
<glyph unicode="[" horiz-adv-x="667" d="M143 -236v1881q0 10 10 20t19 10h412v-18h-281v-1909h281v-12h-416q-10 0 -17.5 9t-7.5 19z" />
<glyph unicode="\" horiz-adv-x="706" d="M0 1479h129l578 -1479h-129z" />
<glyph unicode="]" horiz-adv-x="667" d="M82 -246h280v1909h-280v12h416q10 0 17 -9t7 -19v-1880q0 -10 -9.5 -20.5t-18.5 -10.5h-412v18z" />
<glyph unicode="^" horiz-adv-x="905" d="M109 885l311 407h55l307 -407h-22l-314 291l-313 -291h-24z" />
<glyph unicode="_" horiz-adv-x="1017" d="M0 -106h1016v-78h-1016v78z" />
<glyph unicode="`" horiz-adv-x="761" d="M270 1397q0 25 21 42t47 17q33 0 55.5 -12t41.5 -42.5t35 -65t49 -97.5t71 -123l-6 -6q-47 49 -109.5 96t-104 73t-71 57t-29.5 61z" />
<glyph unicode="a" horiz-adv-x="1097" d="M84 195q0 47 21 92t69 88t118.5 74.5t178.5 51t240 19.5q0 15 1 45t1 37q0 352 -215 352q-36 0 -63.5 -8.5t-43.5 -20.5t-28.5 -33t-18 -36.5t-13 -40t-12.5 -35.5q-16 -40 -22 -54.5t-19.5 -39t-24.5 -32.5t-29 -15.5t-42 -7.5q-37 0 -59.5 25t-22.5 61q0 59 38.5 108 t99.5 78.5t131.5 45.5t140.5 16q195 0 297 -84t102 -232q0 -89 -7 -236t-7 -214q0 -94 18 -133t62 -39q50 0 84 112l12 -2q-25 -76 -69.5 -122t-106.5 -46q-81 0 -128.5 54.5t-55.5 191.5q-54 -114 -149 -180t-228 -66q-119 0 -184.5 64t-65.5 162zM274 197q0 -81 40.5 -140 t105.5 -59q48 0 95.5 22t90.5 67t71 124t32 182q0 15 1 58t1 59q-109 0 -191.5 -22.5t-127.5 -55t-73 -77t-36.5 -82t-8.5 -76.5z" />
<glyph unicode="b" horiz-adv-x="1138" d="M-16 1452v8q177 0 360 49v-796q40 110 121.5 181t196.5 71q120 0 214.5 -68.5t143.5 -180.5t49 -247q0 -134 -50 -246t-148.5 -181t-227.5 -69q-68 0 -125 22.5t-94 54.5t-67.5 63.5t-60 54t-56.5 22.5q-15 0 -29 -11.5t-26.5 -35t-22 -45t-23 -54.5t-22.5 -52q-1 0 -3 1 t-3 1q18 62 27 137t10.5 123t1.5 133v961q0 31 -4 47.5t-20.5 31t-50 20t-91.5 5.5zM344 461q0 -126 34.5 -234.5t95.5 -173.5t134 -65q118 0 191 128.5t73 344.5q0 233 -73.5 356t-188.5 123q-114 0 -190 -140t-76 -339z" />
<glyph unicode="c" horiz-adv-x="956" d="M68 459q0 96 31.5 185.5t89.5 161.5t151.5 115.5t208.5 43.5q142 0 238 -65t96 -181q0 -39 -29.5 -76t-77.5 -37q-53 0 -79.5 31t-26.5 76q0 18 13 64.5t13 68.5q0 106 -121 106q-133 0 -222 -136t-89 -349q0 -216 80 -346.5t217 -130.5q49 0 91 16t71.5 42t54 64 t40.5 75t30 83q7 25 26 25q25 0 25 -25q0 -21 -12.5 -54.5t-41.5 -76t-70 -79.5t-106 -62t-141 -25q-145 0 -251 66.5t-157.5 175.5t-51.5 244z" />
<glyph unicode="d" horiz-adv-x="1114" d="M68 469q0 136 44 247.5t133.5 180t209.5 68.5t205.5 -64t123.5 -184v631q0 31 -4 47.5t-20.5 31t-50 20t-91.5 5.5v8q178 0 361 49v-1364q0 -68 33.5 -94t122.5 -26v-9q-173 0 -328 -36v282q-40 -131 -131.5 -210t-220.5 -79q-120 0 -209.5 69t-133.5 180.5t-44 246.5z M264 469q0 -221 65 -346t189 -125q110 0 188 130.5t78 340.5q0 211 -78 342t-188 131q-124 0 -189 -126t-65 -347z" />
<glyph unicode="e" horiz-adv-x="980" d="M68 469q0 72 16.5 141t52.5 134t88 113.5t129.5 78t169.5 29.5q86 0 161 -30.5t124.5 -79.5t77.5 -111t28 -126q0 -41 -19.5 -56t-86.5 -15h-543q-2 -23 -2 -64q0 -232 81 -361.5t212 -129.5q61 0 112 24t86 65.5t58 87.5t37 99q6 25 24 25q23 0 23 -25q0 -17 -13 -50 t-43.5 -75.5t-72.5 -80t-107.5 -63.5t-140.5 -26q-114 0 -203.5 42.5t-142 114t-79.5 158t-27 181.5zM266 561h330q131 0 131 80q0 127 -56 220t-147 93q-110 0 -179.5 -113t-78.5 -280z" />
<glyph unicode="f" horiz-adv-x="696" d="M43 928v10h170v115q0 102 21.5 184.5t66.5 147t121.5 100t179.5 35.5q100 0 174 -54.5t74 -154.5q0 -39 -28.5 -68t-73.5 -29q-40 0 -69.5 26t-29.5 69q0 27 22.5 68.5t22.5 58.5q0 27 -19.5 50t-62.5 23q-91 0 -147.5 -92t-56.5 -297v-182h124q32 0 71 4t48 4q8 0 8 -14 t-8 -14q-10 0 -48.5 5t-70.5 5h-124v-793q0 -26 5.5 -44.5t21.5 -39.5t54.5 -32t96.5 -11v-8h-537v8q53 0 88 11t50.5 32t20.5 40t5 46v791h-170z" />
<glyph unicode="g" horiz-adv-x="1064" d="M35 -164q0 51 40 104t115 74q-106 46 -106 156q0 64 39 119.5t117 89.5q-75 40 -113.5 111.5t-38.5 154.5q0 138 102 229t297 91q209 0 318 -109q25 54 69.5 90.5t96.5 36.5q46 0 77 -25t31 -75q0 -32 -19.5 -55t-51.5 -23q-19 0 -40.5 26.5l-43 53t-39.5 26.5 q-19 0 -39 -15.5t-33 -45.5q34 -41 54 -99t20 -106q0 -139 -102 -230t-298 -91h-26q-355 0 -355 -93q0 -29 20 -47.5t60.5 -26.5t75 -10t88.5 -2q70 0 185 8.5t167 8.5q136 0 212.5 -57t76.5 -173q0 -146 -144.5 -242t-373.5 -96q-206 0 -322 66.5t-116 175.5zM115 -141 q0 -44 21 -87t62 -81.5t112.5 -62t162.5 -23.5q104 0 199 25.5t163 82t68 133.5q0 79 -62 111.5t-179 32.5q-23 -1 -76 -5t-100 -6t-93 -2q-115 0 -188 33q-41 -22 -65.5 -61.5t-24.5 -89.5zM270 645q0 -82 21 -150t72 -114.5t124 -46.5q74 0 125 46.5t72 114t21 150.5 q0 60 -12.5 113.5t-37.5 98.5t-68.5 71t-99.5 26q-73 0 -124 -46.5t-72 -114t-21 -148.5z" />
<glyph unicode="h" horiz-adv-x="1269" d="M35 1452v8q177 0 360 49v-825q42 123 146 202t235 79q70 0 123 -22.5t87 -61.5t56 -96.5t30.5 -121.5t8.5 -143v-385q0 -26 5.5 -44.5t22 -39.5t55 -32t96.5 -11v-8h-537v8q53 0 88 11t50.5 32t20.5 40t5 46v465q0 158 -47 245t-144 87q-110 0 -205.5 -122.5 t-95.5 -272.5v-404q0 -26 5.5 -44.5t21.5 -39.5t54.5 -32t96.5 -11v-8h-536v8q53 0 88 11t50.5 32t20.5 40t5 46v1211q0 31 -4 47.5t-20.5 31t-50 20t-91.5 5.5z" />
<glyph unicode="i" horiz-adv-x="589" d="M39 905v8q174 0 360 50v-828q0 -26 5.5 -44.5t22 -39.5t55 -32t96.5 -11v-8h-537v8q53 0 88 11t50.5 32t20.5 40t5 46v662q0 32 -4 48.5t-20.5 31.5t-50 20.5t-91.5 5.5zM174 1249q0 48 36 83.5t87 35.5q53 0 89 -35.5t36 -83.5q-2 -48 -37 -82t-88 -34q-51 0 -87 34.5 t-36 81.5z" />
<glyph unicode="j" horiz-adv-x="534" d="M-106 -254q0 44 29 73t71 29q41 0 68.5 -29t27.5 -73q0 -28 -15.5 -63t-15.5 -45q0 -14 9 -25.5t28 -11.5q64 0 102 91.5t38 272.5v834q0 32 -4 48.5t-20.5 31.5t-50 20.5t-91.5 5.5v8q174 0 360 50v-916q0 -117 -32 -209t-83.5 -144.5t-107.5 -79t-111 -26.5 q-40 0 -85 16.5t-81 54.5t-36 87zM207 1249q0 48 35.5 83.5t87.5 35.5t87.5 -35.5t35.5 -83.5t-35.5 -82t-87.5 -34t-87.5 34t-35.5 82z" />
<glyph unicode="k" horiz-adv-x="1189" d="M20 1452v8q178 0 361 49v-1085l348 330q62 56 62 100q0 36 -42.5 55t-117.5 19v10h469v-10q-78 0 -169 -45t-181 -129l-132 -123l377 -516q32 -44 81.5 -75.5t113.5 -31.5v-8h-500v8q119 0 119 55q0 32 -31 74l-272 389l-125 -118v-273q0 -26 5.5 -44.5t21.5 -39.5 t54.5 -32t96.5 -11v-8h-536v8q53 0 88 11t50 32t20 40t5 46v1211q0 31 -4 47.5t-20.5 31t-50 20t-91.5 5.5z" />
<glyph unicode="l" horiz-adv-x="593" d="M27 0v8q53 0 88 11t50 32t20 40t5 46v1211q0 32 -3.5 47.5t-19 30.5t-49 20.5t-91.5 5.5v8q178 0 358 49v-1374q0 -26 5.5 -44.5t21.5 -39.5t54.5 -32t96.5 -11v-8h-536z" />
<glyph unicode="m" horiz-adv-x="1884" d="M39 907v8q171 0 350 48v-287q47 132 144 210.5t227 78.5q126 0 197 -75t83 -212q50 133 142.5 210t226.5 77q147 0 218 -95.5t71 -263.5v-471q0 -26 5.5 -44.5t21.5 -39.5t54.5 -32t96.5 -11v-8h-537v8q53 0 88 11t50.5 32t20.5 40t5 46v465q0 158 -43.5 247t-132.5 89 q-105 0 -191.5 -118.5t-86.5 -282.5v-402q0 -26 5.5 -44.5t21.5 -39.5t54.5 -32t96.5 -11v-8h-537v8q53 0 88 11t50.5 32t20.5 40t5 46v465q0 158 -43.5 247t-132.5 89q-105 0 -192 -118.5t-87 -282.5v-402q0 -26 5.5 -44.5t22 -39.5t55 -32t96.5 -11v-8h-537v8q53 0 88 11 t50.5 32t20.5 40t5 46v666q0 31 -4 47.5t-20.5 31t-50 20t-91.5 5.5z" />
<glyph unicode="n" horiz-adv-x="1271" d="M39 907v8q171 0 350 48v-287q45 126 148 207.5t243 81.5q152 0 228.5 -106t76.5 -277v-447q0 -26 5.5 -44.5t22 -39.5t55 -32t96.5 -11v-8h-537v8q53 0 88 11t50.5 32t20.5 40t5 46v465q0 159 -47.5 248.5t-145.5 89.5q-70 0 -140 -57t-114.5 -151t-44.5 -193v-404 q0 -26 5.5 -44.5t22 -39.5t55 -32t96.5 -11v-8h-537v8q53 0 88 11t50.5 32t20.5 40t5 46v666q0 31 -4 47.5t-20.5 31t-50 20t-91.5 5.5z" />
<glyph unicode="o" horiz-adv-x="1067" d="M68 469q0 217 125 356.5t339 139.5t339.5 -139.5t125.5 -356.5q0 -218 -125.5 -357t-339.5 -139t-339 139t-125 357zM264 469q0 -234 71 -359.5t197 -125.5t197.5 126t71.5 359q0 232 -71.5 358.5t-197.5 126.5t-197 -126.5t-71 -358.5z" />
<glyph unicode="p" horiz-adv-x="1179" d="M39 907v8q171 0 342 46l12 -271q32 119 118.5 197t205.5 78q120 0 212 -69.5t138.5 -181t46.5 -245.5q0 -136 -46.5 -248t-138.5 -180t-212 -68q-112 0 -198 70t-120 184v-477q0 -26 5.5 -44.5t22 -39.5t55 -32t96.5 -11v-8h-537v8q53 0 88 11t50.5 32t20.5 40t5 46v1051 q0 31 -4 47.5t-20.5 31t-50 20t-91.5 5.5zM399 469q0 -231 74.5 -350t181.5 -119q117 0 190 118.5t73 350.5q0 231 -72.5 350t-188.5 119q-108 0 -183 -116t-75 -353z" />
<glyph unicode="q" horiz-adv-x="1146" d="M70 469q0 133 47 245t139 181.5t211 69.5q131 0 227 -77.5t142 -205.5q70 159 178 281l8 -5q-29 -73 -36 -126.5t-7 -180.5v-899q0 -23 1.5 -36.5t10 -33.5t25 -31t49.5 -19.5t80 -8.5v-8h-563v8q63 0 105.5 11.5t62 31.5t27 40t7.5 46v475q-39 -120 -121 -187t-196 -67 q-119 0 -211 68t-139 180t-47 248zM266 469q0 -231 72.5 -350t189.5 -119q111 0 183.5 116t72.5 353q0 131 -21 225.5t-58 146t-80.5 74.5t-96.5 23q-117 0 -189.5 -119t-72.5 -350z" />
<glyph unicode="r" horiz-adv-x="915" d="M39 907v8q161 0 340 48l6 -385q21 98 63.5 183t109 142.5t140.5 57.5q33 0 65 -10t60.5 -30.5t46 -57.5t17.5 -85q0 -43 -32.5 -78.5t-74.5 -35.5q-50 0 -80 33.5t-30 78.5q0 9 1 29t1 29q0 26 -14.5 46.5t-43.5 20.5q-59 0 -109 -65.5t-78 -169.5t-28 -217v-314 q0 -26 5.5 -44.5t22 -39.5t55 -32t96.5 -11v-8h-537v8q53 0 88 11t50.5 32t20.5 40t5 46v666q0 31 -4 47.5t-20.5 31t-50 20t-91.5 5.5z" />
<glyph unicode="s" horiz-adv-x="899" d="M43 354h8q20 -83 54 -148.5t73.5 -106t86 -67.5t90 -37.5t87.5 -10.5q111 0 188 57.5t77 151.5q0 59 -35 97t-90.5 56.5t-123 31.5t-134.5 31t-122.5 46.5t-90.5 87.5t-35 145q0 132 97 205.5t243 73.5q67 0 151 -19.5t111 -19.5q38 0 57 37h8l45 -344h-8 q-21 89 -65.5 157t-98.5 105t-105 55t-95 18q-91 0 -158.5 -54t-67.5 -136q0 -54 28 -92t74 -56.5t105 -35t120 -26.5t120 -30.5t105 -48t74 -79t28 -122.5q0 -137 -108.5 -220t-293.5 -83q-60 0 -148.5 22.5t-129.5 22.5q-25 0 -45.5 -12.5t-26.5 -34.5h-10z" />
<glyph unicode="t" horiz-adv-x="753" d="M23 928v10q153 0 230.5 83t106.5 286h11v-369h323v-10h-323v-672q0 -258 139 -258q84 0 126 91.5t42 242.5q0 24 22 24q19 0 19 -24q-3 -162 -76.5 -262.5t-206.5 -100.5q-70 0 -118.5 20.5t-76 53t-42.5 89t-19 110.5t-4 137v549h-153z" />
<glyph unicode="u" horiz-adv-x="1222" d="M-4 907v8q179 0 360 48v-639q0 -157 48.5 -240.5t144.5 -83.5q52 0 104.5 28t96 77.5t71 124.5t27.5 161v400q0 66 -30.5 89.5t-135.5 26.5v8q197 0 360 48v-764q0 -45 5 -71t21.5 -50t51.5 -34.5t92 -10.5v-8q-157 0 -352 -56v297q-45 -133 -152 -215t-243 -82 q-71 0 -125 23.5t-87.5 63t-54 98t-28.5 122t-8 142.5v373q0 66 -32.5 91t-133.5 25z" />
<glyph unicode="v" horiz-adv-x="1093" d="M10 930v8h455v-8q-49 -3 -80 -26.5t-31 -63.5q0 -23 13 -52l266 -608l266 604q12 27 12 50q0 40 -32 65t-86 31v8h288v-8q-29 0 -54.5 -10.5t-41 -23t-32 -37.5t-23 -37.5t-19.5 -39.5l-366 -813h-8l-371 822q-2 4 -13 29t-15.5 33t-18.5 27t-26.5 26.5t-34.5 15.5t-48 8 z" />
<glyph unicode="w" horiz-adv-x="1484" d="M10 930v8h439v-8q-57 0 -80 -13.5t-23 -46.5q0 -30 14 -71l185 -584l268 754h8l262 -754l209 578q6 21 6 45q0 41 -37 65.5t-96 26.5v8h310v-8q-53 0 -88 -18.5t-52 -45.5t-35 -75l-292 -822h-9l-264 756l-266 -756h-8l-273 756q-4 12 -13 37l-13.5 37.5t-14 33.5 t-17 32.5t-20.5 25.5t-26.5 21.5t-32.5 12.5t-41 5z" />
<glyph unicode="x" horiz-adv-x="1081" d="M14 0v8q65 0 134 46.5t106 97.5l211 292l-260 398q-28 44 -63 66t-97 22v8h465v-8q-121 0 -121 -45q0 -30 39 -86l172 -260l176 237q37 48 37 82q0 72 -137 72v8h350v-8q-129 -3 -240 -154l-180 -246l275 -413q35 -52 76 -80.5t108 -28.5v-8h-471v8q58 0 83 11t25 36 q0 37 -55 117l-176 262l-207 -282q-33 -46 -33 -78q0 -66 129 -66v-8h-346z" />
<glyph unicode="y" horiz-adv-x="1130" d="M10 930v8h490v-8q-125 0 -125 -68q0 -22 33 -90l286 -586l246 631q8 24 8 37q0 74 -137 76v8h303v-8q-114 0 -153 -96l-340 -869q-72 -181 -106 -240q-66 -112 -159 -132q-24 -5 -51 -5q-92 0 -141 59t-49 134q0 40 27 72t61 32q38 0 58.5 -19t24 -47.5t6 -61.5 t5.5 -61.5t21.5 -47.5t54.5 -19q24 0 45 9t40 30.5t33 40.5t31 56.5t27 61t28 70t27 68.5l-414 807q-4 8 -19.5 39.5t-20.5 40t-21 29.5t-29.5 28t-37 14t-52.5 7z" />
<glyph unicode="z" horiz-adv-x="913" d="M45 0v8l627 920h-287q-41 0 -78 -7.5t-78.5 -29.5t-73.5 -57.5t-59 -96.5t-39 -141h-8l45 342h770v-8l-610 -920h313q59 0 107 17t92.5 57.5t76.5 116.5t48 186h8l-47 -387h-807z" />
<glyph unicode="{" horiz-adv-x="813" d="M102 702v9q118 0 176 78.5t58 224.5q0 61 -9.5 145.5t-9.5 114.5q0 60 13.5 116.5t44 108.5t75 91t112 62t149.5 23v-8q-100 0 -167 -72.5t-67 -169.5q0 -52 15.5 -169t15.5 -162q0 -84 -25.5 -155t-92 -134.5t-171.5 -97.5q105 -34 171.5 -98t92 -134.5t25.5 -155.5 q0 -45 -15.5 -162t-15.5 -169q0 -97 67 -169.5t167 -72.5v-8q-82 0 -149.5 23t-112 62t-75 91t-44 108.5t-13.5 116.5q0 30 9.5 114.5t9.5 145.5q0 146 -58 224.5t-176 78.5z" />
<glyph unicode="|" horiz-adv-x="337" d="M111 -385v1864h114v-1864h-114z" />
<glyph unicode="}" horiz-adv-x="813" d="M119 -254q100 0 166.5 72.5t66.5 169.5q0 52 -15 169t-15 162q0 85 25 155.5t91.5 134.5t171.5 98q-79 26 -137 68t-90 94t-46.5 107.5t-14.5 117.5q0 45 15 162t15 169q0 97 -66.5 169.5t-166.5 72.5v8q102 0 180 -34.5t123 -93t67.5 -128t22.5 -145.5q0 -30 -9 -114.5 t-9 -145.5q0 -146 58 -224.5t175 -78.5v-9q-117 0 -175 -78.5t-58 -224.5q0 -61 9 -145.5t9 -114.5q0 -76 -22.5 -145.5t-67.5 -128t-123 -93t-180 -34.5v8z" />
<glyph unicode="~" horiz-adv-x="1167" d="M96 500q5 128 57.5 209.5t155.5 81.5q71 0 191.5 -42.5t233 -85t165.5 -42.5q65 0 106.5 47.5t53.5 130.5h12q-5 -129 -58 -210t-157 -81q-72 0 -193 42.5t-233 85t-162 42.5q-66 0 -106.5 -47t-52.5 -131h-13z" />
<glyph unicode="&#xa2;" horiz-adv-x="956" d="M68 459q0 96 31.5 185.5t89.5 161.5t151.5 115.5t208.5 43.5q4 0 13 -1t13 -1l31 143h21l-31 -143q126 -11 206.5 -74.5t80.5 -169.5q0 -39 -29.5 -76t-77.5 -37q-53 0 -79.5 31t-26.5 76q0 18 13 64.5t13 68.5q0 95 -102 104l-188 -903q66 -57 155 -57q49 0 91 16 t71.5 42t54 64t40.5 75t30 83q7 25 26 25q25 0 25 -25q0 -21 -12.5 -54.5t-41.5 -76t-70 -79.5t-106 -62t-141 -25q-70 0 -135 19l-33 -160h-20l33 164q-146 45 -225.5 170.5t-79.5 292.5zM264 467q0 -134 32 -239t91 -165l186 889q-133 -2 -221 -137.5t-88 -347.5z" />
<glyph unicode="&#xa3;" horiz-adv-x="1261" d="M57 170q0 41 14.5 75t37.5 56t52 37.5t57 22t54 6.5q89 0 222 -52q-7 110 -39.5 229t-69.5 204h-254v20h246q-58 163 -58 319q0 188 123 310.5t334 122.5q76 0 138.5 -26.5t101 -69.5t59.5 -94t21 -103q0 -49 -26.5 -84t-68.5 -35q-37 0 -65.5 31t-28.5 75q0 29 29 89.5 t29 91.5q0 46 -43.5 79t-145.5 33q-115 0 -192.5 -97t-77.5 -236q0 -35 5 -72.5t17.5 -86t20.5 -75t28.5 -90t26.5 -82.5h336v-20h-330q19 -67 35.5 -154t16.5 -129q0 -109 -33 -213q78 -38 116 -55t99 -35.5t110 -18.5q34 0 62 4t50 14t38 20.5t29 30t21.5 35.5t16.5 44 t13 48.5t12 55.5h8q-5 -75 -26 -148.5t-56 -136t-88 -101t-116 -38.5q-84 0 -161 48.5t-171 136.5q-52 -88 -132 -136.5t-180 -48.5q-110 0 -163.5 57.5t-53.5 141.5zM70 170q0 -99 60.5 -143.5t143.5 -44.5q112 0 164.5 69.5t57.5 186.5q-130 116 -224 116q-50 0 -94.5 -18 t-76 -61.5t-31.5 -104.5z" />
<glyph unicode="&#xa5;" horiz-adv-x="1484" d="M23 1470v9h602v-9q-164 0 -164 -61q0 -31 33 -86l368 -643l326 598q20 39 20 84q0 97 -170 108v9h424v-9q-56 0 -94 -10t-68 -37.5t-50.5 -57.5t-51.5 -87l-334 -614v-50h340v-20h-340v-162h340v-20h-340v-271q0 -38 6 -59.5t26 -40t60 -26t107 -7.5v-8h-629v8 q68 0 109.5 8.5t60 28.5t24 40.5t5.5 55.5v271h-340v20h340v162h-340v20h340v27l-395 682q-40 70 -90 108.5t-125 38.5z" />
<glyph unicode="&#xa8;" horiz-adv-x="1009" d="M213 1237q0 41 28 69.5t68 28.5t68.5 -28.5t28.5 -69.5q0 -39 -29 -67.5t-68 -28.5t-67.5 28.5t-28.5 67.5zM602 1237q0 41 28 69.5t68 28.5t68.5 -28.5t28.5 -69.5q0 -39 -28.5 -67.5t-68.5 -28.5q-39 0 -67.5 28.5t-28.5 67.5z" />
<glyph unicode="&#xa9;" horiz-adv-x="1783" d="M117 735q0 156 60.5 299t163 246.5t244 165t296.5 61.5q208 0 385 -104t280 -281.5t103 -386.5q0 -155 -61 -296.5t-163.5 -243.5t-245 -162t-298.5 -60t-297 60t-243.5 162t-163 243.5t-60.5 296.5zM178 735q0 -143 55.5 -273t149.5 -224t224.5 -149.5t273.5 -55.5 q145 0 276 55.5t225 149.5t149.5 224t55.5 273q0 193 -94 356t-256.5 258t-355.5 95q-191 0 -353 -95t-256 -258.5t-94 -355.5zM418 721q0 151 53 272.5t158 195t245 73.5q76 0 165 -26t116 -26q25 0 34 9.5t21 40.5h9l26 -390h-8q-13 81 -46 148t-73 109t-86 70.5t-85.5 40 t-72.5 11.5q-286 0 -286 -522q0 -151 32 -264.5t98.5 -179.5t160.5 -66q136 0 243 107t107 254q0 8 6.5 14t13.5 6q8 0 15.5 -6.5t7.5 -13.5q0 -76 -25 -140t-66 -106t-93 -71.5t-105 -42.5t-104 -13q-201 0 -331 143.5t-130 372.5z" />
<glyph unicode="&#xab;" horiz-adv-x="1079" d="M92 510q223 204 455 457h20q-137 -222 -295 -457q157 -231 295 -457h-20q-215 237 -455 457zM522 510q223 204 455 457h20q-137 -222 -295 -457q157 -231 295 -457h-20q-215 237 -455 457z" />
<glyph unicode="&#xad;" horiz-adv-x="897" d="M133 485l8 93q360 14 629 40l-8 -92q-344 -13 -629 -41z" />
<glyph unicode="&#xae;" horiz-adv-x="1026" d="M102 1092q0 172 118.5 292.5t287.5 120.5q172 0 293 -120.5t121 -292.5q0 -169 -121 -287.5t-293 -118.5q-169 0 -287.5 118.5t-118.5 287.5zM143 1092q0 -148 109 -258.5t256 -110.5q150 0 259.5 110.5t109.5 258.5q0 157 -108.5 264.5t-260.5 107.5q-148 0 -256.5 -108 t-108.5 -264zM293 870v9q37 0 48 11t11 36v356q0 26 -11 36.5t-48 10.5v8h235q74 0 116 -29.5t42 -88.5q0 -46 -39.5 -77.5t-107.5 -35.5q49 -7 83 -42.5t46.5 -74t26 -69.5t26.5 -31q19 0 39 20l4 -6q-34 -31 -70 -31q-35 0 -58.5 24t-36 58t-26 68t-38 58t-62.5 24h-39 v-178q0 -24 12.5 -35.5t49.5 -11.5v-9h-203zM434 1116h72q98 0 98 103q0 49 -23 77.5t-61 28.5h-43q-43 0 -43 -37v-172z" />
<glyph unicode="&#xb4;" horiz-adv-x="761" d="M293 1116q43 68 79 135.5t51.5 99.5t34 60t37.5 36.5t50 8.5q26 0 46.5 -17t20.5 -42q0 -30 -29.5 -61t-70.5 -57t-103.5 -73t-109.5 -96z" />
<glyph unicode="&#xb8;" horiz-adv-x="778" d="M250 -274l4 6q49 -25 92 -25q30 0 51.5 8.5t31 21.5t13.5 25t4 23q0 29 -33 48.5t-102 19.5l99 147h8l-33 -102q73 0 119.5 -30.5t46.5 -84.5t-42.5 -92.5t-107.5 -38.5q-41 0 -81 20t-70 54z" />
<glyph unicode="&#xbb;" horiz-adv-x="1079" d="M82 53q156 255 293 457q-132 197 -293 457h20q232 -253 455 -457q-240 -220 -455 -457h-20zM512 53q156 255 293 457q-132 197 -293 457h20q232 -253 455 -457q-240 -220 -455 -457h-20z" />
<glyph unicode="&#x2c6;" horiz-adv-x="819" d="M111 1147q94 116 206 289q14 18 45 18h80q31 0 45 -18q100 -155 209 -289l-8 -4q-111 97 -285 215q-170 -113 -284 -215z" />
<glyph unicode="&#x2da;" horiz-adv-x="481" d="M78 1274q0 68 44 112t109 44t109.5 -44t44.5 -112q0 -66 -45 -112t-109 -46t-108.5 46t-44.5 112zM137 1274q0 -38 29 -68t65 -30q39 0 65 29.5t26 68.5q0 41 -25.5 67.5t-65.5 26.5q-37 0 -65.5 -27t-28.5 -67z" />
<glyph unicode="&#x2dc;" horiz-adv-x="854" d="M117 1194q47 110 85.5 158.5t104.5 48.5q36 0 75 -17.5t67 -38t65 -38t70 -17.5q81 0 145 103l6 -4q-44 -109 -83.5 -158t-106.5 -49q-44 0 -92.5 27.5t-95.5 55t-89 27.5q-80 0 -143 -104z" />
<glyph unicode="&#x401;" horiz-adv-x="1376" d="M66 0v8q67 0 108.5 8.5t60 28.5t24 40.5t5.5 55.5v1194q0 39 -6 61t-25.5 40.5t-59.5 26t-107 7.5v9h950q142 0 164 30h10l53 -487h-10q-22 84 -41.5 140.5t-47.5 110.5t-62.5 87t-83.5 58.5t-113.5 36.5t-149.5 11h-164q-36 0 -56.5 -26.5t-20.5 -104.5v-563h155 q44 0 84 10t78.5 35t66.5 63t45.5 99t18.5 139h8v-700h-8q-1 96 -26.5 166t-69 107t-92.5 54t-105 17h-155v-621q0 -131 88 -131h157q97 0 146 3t110.5 19.5t93.5 48t71 91t67.5 146.5t60.5 217h8l-59 -535h-1171zM377 1708q0 41 28 69.5t68 28.5t68 -28.5t28 -69.5 q0 -39 -28.5 -67.5t-67.5 -28.5t-67.5 28.5t-28.5 67.5zM766 1708q0 41 28 69.5t68 28.5t68 -28.5t28 -69.5q0 -39 -28.5 -67.5t-67.5 -28.5t-67.5 28.5t-28.5 67.5z" />
<glyph unicode="&#x402;" horiz-adv-x="1677" d="M20 1022l54 487h8q20 -30 125 -30h987q107 0 127 30h8l53 -487h-8q-16 60 -28.5 101.5t-30 87.5t-36 77t-44 62.5t-56.5 50.5t-71 35t-89.5 23t-109.5 7h-51q-27 0 -35 -17t-8 -75v-815q43 121 163.5 206t252.5 85q184 0 289.5 -120.5t105.5 -326.5q0 -197 -97 -315.5 t-259 -118.5q-127 0 -183.5 72.5t-56.5 191.5h12q0 -251 228 -251q168 0 168 438q0 105 -30.5 192.5t-97.5 145t-159 57.5q-49 0 -107.5 -28.5t-109.5 -75t-85 -113.5t-34 -137v-320q0 -35 5.5 -55.5t24.5 -40.5t60.5 -28.5t108.5 -8.5v-8h-627v8q67 0 108.5 8.5t60.5 28.5 t24.5 40.5t5.5 55.5v1233q0 60 -7.5 76t-37.5 16h-49q-66 0 -118 -8.5t-92.5 -23.5t-72.5 -43.5t-56 -60t-46.5 -82.5t-39.5 -101t-38 -125h-9z" />
<glyph unicode="&#x403;" horiz-adv-x="1245" d="M66 0v8q66 0 106.5 8.5t59 28.5t23.5 40.5t5 55.5v1207q0 28 -2.5 44t-13 33t-31.5 25.5t-57 14t-90 5.5v9h985q98 0 116 30h11l53 -487h-10q-22 90 -43 150t-51 113.5t-66 85t-89.5 54.5t-121 32t-160.5 9h-119q-36 0 -56.5 -26.5t-20.5 -104.5v-1194q0 -52 15.5 -78.5 t63 -40.5t140.5 -14v-8h-647zM586 1657q43 68 79 135.5t51.5 99.5t34 60t37.5 36.5t50 8.5q26 0 46.5 -17.5t20.5 -42.5q0 -30 -29.5 -60.5t-70.5 -56.5t-103.5 -73t-109.5 -96z" />
<glyph unicode="&#x404;" horiz-adv-x="1325" d="M80 723q0 164 41 305.5t119 249t201 169.5t276 62q72 0 142.5 -19.5t128.5 -39.5t99 -20q29 0 48.5 12.5t26.5 27.5t12 37h8l45 -571h-8q-26 128 -68.5 227.5t-91.5 161.5t-108.5 101.5t-116 55t-117.5 15.5q-196 0 -295 -195t-105 -546h566v-13h-566q1 -97 13.5 -190 t36 -178.5t59.5 -156.5t82 -124t107 -82.5t130 -29.5q74 0 134 15.5t97.5 40t63 56.5t35.5 63t10 62q0 47 -12 112t-12 93q0 42 25.5 70t66.5 28q40 0 68 -30t28 -74q0 -136 -69 -240t-182.5 -156.5t-252.5 -52.5q-142 0 -265 55t-211 152.5t-138.5 239t-50.5 307.5z" />
<glyph unicode="&#x405;" horiz-adv-x="1243" d="M57 553h9q16 -117 57 -213.5t96.5 -161.5t123.5 -109.5t137 -64.5t138 -20q96 0 179 35t136.5 107.5t53.5 168.5q0 76 -30 134t-81 93.5t-116.5 63t-138.5 49t-146 44t-138.5 55.5t-116.5 77t-81 114t-30 162q0 105 38 186.5t104 131t149 75t178 25.5q81 0 146.5 -15 t99.5 -33t74.5 -33t76.5 -15q32 0 55.5 31.5t28.5 66.5h8l37 -540h-8q-27 140 -81.5 245t-126 165t-149.5 89t-161 29q-76 0 -144 -32t-115 -100.5t-47 -160.5q0 -76 31 -134t83 -93.5t119 -63t142 -48.5t149.5 -43.5t141.5 -55.5t119 -77t83 -114t31 -161q0 -89 -33.5 -164 t-89 -124.5t-128 -84.5t-149 -50.5t-153.5 -15.5q-92 0 -177.5 22t-150.5 44t-108 22q-41 0 -62.5 -28t-27.5 -62h-12z" />
<glyph unicode="&#x406;" horiz-adv-x="759" d="M63 0v8q54 0 91.5 6.5t59 17t33 28.5t14.5 36t3 45v1184q0 28 -3 46t-14.5 38.5t-32.5 32t-59 19t-92 7.5v11h631v-9q-67 0 -109 -10t-61 -32t-24.5 -44t-5.5 -57v-1186q0 -35 5.5 -55.5t24.5 -40.5t60.5 -28.5t109.5 -8.5v-8h-631z" />
<glyph unicode="&#x407;" horiz-adv-x="759" d="M63 0v8q54 0 91.5 6.5t59 17t33 28.5t14.5 36t3 45v1184q0 28 -3 46t-14.5 38.5t-32.5 32t-59 19t-92 7.5v11h631v-9q-67 0 -109 -10t-61 -32t-24.5 -44t-5.5 -57v-1186q0 -35 5.5 -55.5t24.5 -40.5t60.5 -28.5t109.5 -8.5v-8h-631zM131 1778q0 41 28 69.5t68 28.5 t68.5 -28.5t28.5 -69.5q0 -39 -29 -68t-68 -29t-67.5 29t-28.5 68zM438 1778q0 41 28.5 69.5t68.5 28.5t68 -28.5t28 -69.5q0 -39 -28.5 -68t-67.5 -29t-68 29t-29 68z" />
<glyph unicode="&#x408;" horiz-adv-x="1071" d="M20 305q0 51 16 98.5t55.5 83t96.5 35.5q50 0 85.5 -35.5t35.5 -87.5q0 -38 -19 -64t-46.5 -40t-55 -27.5t-46.5 -35.5t-19 -54q0 -69 55.5 -124.5t167.5 -55.5q46 0 89 21t80.5 64t60 118.5t22.5 173.5v952q0 77 -40.5 110t-158.5 33v9h625v-9q-118 0 -156.5 -32.5 t-38.5 -110.5v-838q0 -516 -444 -516q-89 0 -160.5 28.5t-115 75.5t-66.5 105.5t-23 122.5z" />
<glyph unicode="&#x409;" horiz-adv-x="2201" d="M8 205q0 51 30.5 88t78.5 37q47 0 74.5 -37t27.5 -86q0 -11 -4 -51t-4 -70q0 -74 53 -74q27 0 54.5 13t60 49.5t61 94.5t55.5 155t46.5 222.5t31 307t11.5 399.5q0 40 -10.5 75t-34.5 68.5t-72.5 53.5t-116.5 20v9h1209v-9q-123 0 -159 -23.5t-36 -98.5v-531 q133 37 258 37q123 0 223.5 -35t167 -95.5t102 -141.5t35.5 -174q0 -188 -137 -298t-352 -110h-725v8q67 0 108.5 8.5t60.5 28.5t24.5 40.5t5.5 55.5v1227q0 62 -27.5 80t-126.5 18h-238q-68 0 -107.5 -66.5t-39.5 -148.5q0 -98 -1.5 -183t-7 -189.5t-14 -192.5t-24 -183 t-36 -170t-50.5 -143.5t-67 -114.5t-86 -73t-107 -27q-86 0 -140.5 73.5t-54.5 156.5zM1364 129q0 -57 16.5 -83t49.5 -32q132 -4 198 -4q84 0 152 59.5t102.5 150t34.5 188.5q0 76 -23.5 149.5t-66.5 135.5t-114 100t-157 38q-110 0 -192 -24v-678z" />
<glyph unicode="&#x40a;" horiz-adv-x="2246" d="M66 0v8q67 0 108.5 8.5t60 28.5t24 40.5t5.5 55.5v1184q0 79 -40 112t-158 33v9h624v-9q-62 0 -101.5 -8.5t-60 -27.5t-27.5 -43.5t-7 -63.5v-549h686v549q0 54 -14.5 83t-57.5 44.5t-125 15.5v9h625v-9q-121 0 -160 -31.5t-39 -113.5v-508q133 37 258 37 q123 0 223.5 -35t167 -95.5t102 -141.5t35.5 -174q0 -188 -137 -298t-352 -110h-725v8q67 0 108.5 8.5t60.5 28.5t24.5 40.5t5.5 55.5v625h-686v-625q0 -52 14 -79t56 -40.5t126 -13.5v-8h-624zM1409 129q0 -57 16.5 -83t49.5 -32q132 -4 198 -4q84 0 152 59.5t102.5 150 t34.5 188.5q0 76 -23 149.5t-66.5 135.5t-114 100t-156.5 38q-110 0 -193 -24v-678z" />
<glyph unicode="&#x40b;" horiz-adv-x="1746" d="M20 1022l54 487h8q20 -30 125 -30h987q107 0 127 30h8l53 -487h-8q-16 60 -28.5 101.5t-30 87.5t-36 77t-44 62.5t-56.5 50.5t-71 35t-89.5 23t-109.5 7h-51q-27 0 -35 -17t-8 -75v-616q189 121 356 121q191 0 273 -86t82 -295v-367q0 -75 35 -99t153 -24v-8h-598v8 q112 0 146 24t34 99v367q0 182 -48 259t-181 77q-43 0 -89 -14t-76 -28.5t-87 -46.5v-604q0 -35 5.5 -55.5t24.5 -40.5t60.5 -28.5t108.5 -8.5v-8h-627v8q67 0 108.5 8.5t60.5 28.5t24.5 40.5t5.5 55.5v1233q0 60 -7.5 76t-37.5 16h-49q-66 0 -118 -8.5t-92.5 -23.5 t-72.5 -43.5t-56 -60t-46.5 -82.5t-39.5 -101t-38 -125h-9z" />
<glyph unicode="&#x40c;" horiz-adv-x="1548" d="M66 0v8q66 0 106.5 8.5t59 28.5t23.5 40.5t5 55.5v1207q0 28 -2.5 44t-13 33t-31.5 25.5t-57 14t-90 5.5v9h624v-9q-36 0 -64 -2.5t-48.5 -9t-34.5 -13t-23.5 -20.5t-14.5 -25t-7.5 -32t-3 -36.5t-0.5 -43.5v-518h106l504 524q35 38 35 72q0 44 -53.5 73t-124.5 31v9h505 v-9q-151 0 -315 -147l-537 -553q109 -1 197.5 -28t150.5 -68.5t114.5 -107.5t87 -131t69.5 -154q20 -49 30 -73t31 -66t37 -62.5t39 -37.5t47 -17q53 0 101 75l10 -6q-28 -50 -78 -83.5t-117 -33.5q-73 0 -134 27t-104 72t-80 104t-66 124t-56.5 129.5t-57.5 123.5t-63 104 t-77.5 72t-98.5 27h-102v-619q0 -52 14 -79t56 -40.5t126 -13.5v-8h-624zM614 1657q43 68 79 135.5t51.5 99.5t34 60t37.5 36.5t50 8.5q26 0 47 -17.5t21 -42.5q0 -30 -29.5 -60.5t-70.5 -56.5t-103.5 -73t-109.5 -96z" />
<glyph unicode="&#x40e;" horiz-adv-x="1486" d="M10 1470v9h627v-9q-176 0 -176 -79q0 -10 0.5 -18.5t3.5 -19t4 -15.5t7 -18t8 -17.5t11 -22.5t13 -25l373 -739l327 776q17 42 17 66q0 45 -40.5 78.5t-137.5 33.5v9h421v-9q-83 0 -146.5 -48t-98.5 -130l-439 -1022q-24 -47 -37 -72.5t-33 -61t-33 -53t-32 -40t-36 -33 t-39.5 -21.5t-47.5 -14.5t-55 -3.5q-68 0 -128 24t-102 78.5t-42 129.5q0 57 31 97t79 40q54 0 83.5 -39.5t29.5 -101.5q0 -11 -10.5 -43.5t-10.5 -53.5q0 -44 26.5 -77t88.5 -33q64 0 129.5 68t122.5 210l-487 975q-27 53 -42.5 80.5t-39.5 60t-48 47t-59.5 25.5t-81.5 12z M479 1817q0 38 27.5 73t66.5 35q36 0 60 -27t24 -67q0 -28 -15 -64.5t-15 -54.5q0 -139 225 -139t225 139q0 10 -15 49t-15 70q0 35 24.5 64.5t58.5 29.5q41 0 68 -32.5t27 -75.5q0 -66 -30.5 -116.5t-84 -80t-118.5 -44.5t-140 -15t-140 15t-118.5 44.5t-84 80t-30.5 116.5 z" />
<glyph unicode="&#x40f;" horiz-adv-x="1699" d="M66 0v8q67 0 108.5 8.5t60 28.5t24 40.5t5.5 55.5v1196q0 35 -5.5 55.5t-24 40.5t-60 28.5t-108.5 8.5v9h624v-9q-84 0 -126 -13.5t-56 -40.5t-14 -79v-1192q0 -47 13.5 -73.5t57 -43t125.5 -16.5h293q82 0 126 16.5t57.5 43t13.5 73.5v1192q0 52 -14 79t-56.5 40.5 t-126.5 13.5v9h625v-9q-68 0 -109.5 -8.5t-60 -28.5t-24 -40.5t-5.5 -55.5v-1196q0 -35 5.5 -55.5t24 -40.5t60 -28.5t109.5 -8.5v-8h-754q0 -68 35 -179t35 -128q0 -30 -24 -48t-50 -18q-28 0 -51 18t-23 48q0 20 32.5 131t35.5 176h-778z" />
<glyph unicode="&#x410;" horiz-adv-x="1523" d="M10 0v8q25 0 49 7.5t43 18t39 31t33.5 36t30.5 45t25.5 46t23.5 51t20.5 48t18.5 47.5l469 1171h6l567 -1384q28 -65 67.5 -91t110.5 -26v-8h-573v8q74 0 115 11t51 24t10 33q0 19 -12 51l-162 405h-559l-76 -188q-59 -149 -59 -194q0 -22 2.5 -37.5t13.5 -36.5 t30.5 -34.5t58 -23.5t91.5 -10v-8h-434zM387 545h551l-272 696z" />
<glyph unicode="&#x411;" horiz-adv-x="1359" d="M66 0v8q66 0 106.5 8.5t59 28.5t23.5 40.5t5 55.5v1207q0 28 -2.5 44t-13 33t-31.5 25.5t-57 14t-90 5.5v9h983q96 0 116 30h9l53 -487h-8q-25 98 -49 162.5t-61.5 122.5t-87.5 90t-123.5 50.5t-172.5 18.5h-156q-41 0 -59 -24t-18 -94v-531h317q226 0 356.5 -109.5 t130.5 -299.5t-133 -299t-354 -109h-743zM492 129q0 -115 63 -115h195q86 0 159.5 58.5t114.5 148.5t41 187q0 60 -10.5 116t-34.5 108t-60 90.5t-90 61.5t-120 23h-258v-678z" />
<glyph unicode="&#x412;" horiz-adv-x="1429" d="M66 0v8q66 0 106.5 8.5t59 28.5t23.5 40.5t5 55.5v1207q0 28 -2.5 44t-13 33t-31.5 25.5t-57 14t-90 5.5v9h608q275 0 417 -85t142 -278q0 -124 -96.5 -219.5t-268.5 -122.5q225 -25 334 -125t109 -250q0 -180 -132 -289.5t-356 -109.5h-757zM492 141q0 -37 9 -63t21 -39 t35 -20t39 -8t45 -1h68q162 0 266 99.5t104 289.5q0 170 -98.5 265.5t-263.5 95.5h-225v-619zM492 770h243q115 0 190.5 97.5t75.5 242.5q0 356 -323 356h-57q-24 0 -37.5 -1t-33.5 -7t-30.5 -17.5t-19 -34.5t-8.5 -56v-580z" />
<glyph unicode="&#x413;" horiz-adv-x="1245" d="M66 0v8q66 0 106.5 8.5t59 28.5t23.5 40.5t5 55.5v1207q0 28 -2.5 44t-13 33t-31.5 25.5t-57 14t-90 5.5v9h985q98 0 116 30h11l53 -487h-10q-22 90 -43 150t-51 113.5t-66 85t-89.5 54.5t-121 32t-160.5 9h-119q-36 0 -56.5 -26.5t-20.5 -104.5v-1194q0 -52 15.5 -78.5 t63 -40.5t140.5 -14v-8h-647z" />
<glyph unicode="&#x414;" horiz-adv-x="1619" d="M70 -395l28 407h156q142 104 230.5 427.5t88.5 803.5q0 227 -204 227v9h1136v-9q-124 0 -160 -23.5t-36 -98.5v-1203q0 -75 46.5 -104t153.5 -29l33 -407h-8q-17 114 -53 192.5t-73 117.5t-102.5 59t-106 23t-120.5 3h-624q-55 0 -99.5 -8.5t-91 -34t-81 -68 t-62.5 -114.5t-43 -170h-8zM297 12h694q45 0 66.5 21.5t21.5 77.5v1257q0 55 -16.5 76.5t-54.5 21.5h-205q-66 0 -110 -15.5t-67 -47t-31.5 -69t-8.5 -91.5q0 -252 -27 -479.5t-94 -434.5t-168 -317z" />
<glyph unicode="&#x415;" horiz-adv-x="1376" d="M66 0v8q67 0 108.5 8.5t60 28.5t24 40.5t5.5 55.5v1194q0 39 -6 61t-25.5 40.5t-59.5 26t-107 7.5v9h950q142 0 164 30h10l53 -487h-10q-22 84 -41.5 140.5t-47.5 110.5t-62.5 87t-83.5 58.5t-113.5 36.5t-149.5 11h-164q-36 0 -56.5 -26.5t-20.5 -104.5v-563h155 q44 0 84 10t78.5 35t66.5 63t45.5 99t18.5 139h8v-700h-8q-1 96 -26.5 166t-69 107t-92.5 54t-105 17h-155v-621q0 -131 88 -131h157q97 0 146 3t110.5 19.5t93.5 48t71 91t67.5 146.5t60.5 217h8l-59 -535h-1171z" />
<glyph unicode="&#x416;" horiz-adv-x="2136" d="M2 94l8 6q20 -34 48.5 -54.5t54.5 -20.5q13 0 25.5 4.5t24 15t21 20.5t19.5 29t17 32t17 37.5t15.5 37.5t16 40.5t14.5 39.5q68 180 104 246q80 145 208 200q97 42 234 43l-438 524q-59 69 -153.5 122.5t-186.5 53.5v9h506v-9q-70 -3 -122 -31t-52 -73q0 -36 31 -72 l430 -524h106v557q0 39 -7 63.5t-27.5 43.5t-60 27.5t-101.5 8.5v9h624v-9q-62 0 -101.5 -8.5t-60 -27.5t-27.5 -43.5t-7 -63.5v-557h106l430 524q31 36 31 72q0 45 -52 73t-122 31v9h506v-9q-92 0 -186.5 -53.5t-153.5 -122.5l-438 -524q60 -1 111.5 -9t92 -21.5t76.5 -36 t62.5 -46t51.5 -57.5t43 -64t37 -73.5t32.5 -78.5t32.5 -84q5 -13 7 -19q4 -12 14.5 -39.5t16 -40.5t15.5 -37.5t17 -37.5t17 -32t19.5 -29t21 -20.5t24 -15t25.5 -4.5q26 0 54.5 20.5t48.5 54.5l8 -6q-28 -50 -78 -83.5t-117 -33.5q-72 0 -129.5 27t-96 72t-69 104 t-52.5 124t-42.5 129.5t-44 123.5t-51.5 104t-70 72t-96 27h-102v-619q0 -52 14 -79t56 -40.5t126 -13.5v-8h-624v8q84 0 126 13.5t56 40.5t14 79v619h-102q-54 0 -96 -27t-70 -72t-51.5 -104t-44 -124t-42.5 -129.5t-52.5 -123.5t-69 -104t-96 -72t-129.5 -27 q-67 0 -117 33.5t-78 83.5z" />
<glyph unicode="&#x417;" horiz-adv-x="1218" d="M76 406q0 58 22.5 92t69.5 34q42 0 71 -30t29 -74q0 -31 -13 -97.5t-13 -99.5q0 -46 17 -87.5t54 -78.5t105 -59t160 -22q89 0 167.5 58.5t125.5 157.5t47 212q0 156 -85 251t-208 95h-174v12h174q94 0 171.5 104.5t77.5 255.5q0 94 -27.5 165.5t-73 112t-98.5 60 t-110 19.5q-72 0 -137 -29t-123 -90.5t-102.5 -167t-69.5 -248.5h-8l43 555h10q16 -67 88 -67q40 0 95.5 17t127.5 34.5t152 17.5q211 0 336 -99t125 -282q0 -131 -95.5 -226.5t-256.5 -131.5q182 -24 291.5 -119.5t109.5 -244.5q0 -102 -48.5 -187t-128.5 -138.5 t-178 -82.5t-202 -29q-72 0 -142 14.5t-139 48.5t-121 83t-84 124.5t-32 166.5z" />
<glyph unicode="&#x418;" horiz-adv-x="1716" d="M66 0v8q67 0 108.5 8.5t60 28.5t24 40.5t5.5 55.5v1186q0 35 -5.5 57t-24 44t-60.5 32t-108 10v9h624v-9q-62 0 -101.5 -8.5t-60 -27.5t-27.5 -43.5t-7 -63.5v-1063l727 991v72q0 39 -7.5 63.5t-28 43.5t-60 27.5t-101.5 8.5v9h625v-9q-66 0 -108 -10t-61 -32t-24.5 -44 t-5.5 -57v-1186q0 -35 5.5 -55.5t24.5 -40.5t60.5 -28.5t108.5 -8.5v-8h-625v8q84 0 126.5 13.5t56.5 40.5t14 79v1090l-727 -989v-101q0 -52 14 -79t56 -40.5t126 -13.5v-8h-624z" />
<glyph unicode="&#x419;" horiz-adv-x="1716" d="M66 0v8q67 0 108.5 8.5t60 28.5t24 40.5t5.5 55.5v1186q0 35 -5.5 57t-24 44t-60.5 32t-108 10v9h624v-9q-62 0 -101.5 -8.5t-60 -27.5t-27.5 -43.5t-7 -63.5v-1063l727 991v72q0 39 -7.5 63.5t-28 43.5t-60 27.5t-101.5 8.5v9h625v-9q-66 0 -108 -10t-61 -32t-24.5 -44 t-5.5 -57v-1186q0 -35 5.5 -55.5t24.5 -40.5t60.5 -28.5t108.5 -8.5v-8h-625v8q84 0 126.5 13.5t56.5 40.5t14 79v1090l-727 -989v-101q0 -52 14 -79t56 -40.5t126 -13.5v-8h-624zM479 1817q0 38 27.5 73t66.5 35q36 0 60 -27t24 -67q0 -28 -15 -64.5t-15 -54.5 q0 -139 225 -139t225 139q0 10 -15 49t-15 70q0 35 24.5 64.5t58.5 29.5q41 0 68 -32.5t27 -75.5q0 -66 -30.5 -116.5t-84 -80t-118.5 -44.5t-140 -15t-140 15t-118.5 44.5t-84 80t-30.5 116.5z" />
<glyph unicode="&#x41a;" horiz-adv-x="1548" d="M66 0v8q66 0 106.5 8.5t59 28.5t23.5 40.5t5 55.5v1207q0 28 -2.5 44t-13 33t-31.5 25.5t-57 14t-90 5.5v9h624v-9q-36 0 -64 -2.5t-48.5 -9t-34.5 -13t-23.5 -20.5t-14.5 -25t-7.5 -32t-3 -36.5t-0.5 -43.5v-518h106l504 524q35 38 35 72q0 44 -53.5 73t-124.5 31v9h505 v-9q-151 0 -315 -147l-537 -553q109 -1 197.5 -28t150.5 -68.5t114.5 -107.5t87 -131t69.5 -154q20 -49 30 -73t31 -66t37 -62.5t39 -37.5t47 -17q53 0 101 75l10 -6q-28 -50 -78 -83.5t-117 -33.5q-73 0 -134 27t-104 72t-80 104t-66 124t-56.5 129.5t-57.5 123.5t-63 104 t-77.5 72t-98.5 27h-102v-619q0 -52 14 -79t56 -40.5t126 -13.5v-8h-624z" />
<glyph unicode="&#x41b;" horiz-adv-x="1601" d="M8 205q0 51 30.5 88t78.5 37q47 0 74.5 -37t27.5 -86q0 -11 -4 -51t-4 -70q0 -74 53 -74q27 0 54.5 13t60 49.5t61 94.5t55.5 155t46.5 222.5t31 307t11.5 399.5q0 40 -10.5 75t-34.5 68.5t-72.5 53.5t-116.5 20v9h1209v-9q-123 0 -159 -23.5t-36 -98.5v-1219 q0 -48 14 -72.5t56 -36.5t125 -12v-8h-619v8q83 0 124.5 12t56 36t14.5 73v1239q0 62 -27.5 80t-126.5 18h-238q-68 0 -107.5 -66.5t-39.5 -148.5q0 -98 -1.5 -183t-7 -189.5t-14 -192.5t-24 -183t-36 -170t-50.5 -143.5t-67 -114.5t-86 -73t-107 -27q-86 0 -140.5 73.5 t-54.5 156.5z" />
<glyph unicode="&#x41c;" horiz-adv-x="1855" d="M43 0v8q57 0 98.5 20.5t63.5 49.5t34.5 74t15.5 80.5t3 82.5v922v40t-1.5 36t-4.5 34.5t-8 29.5t-13 27.5t-19.5 22t-27.5 19t-36 13t-46.5 9t-58.5 2.5v9h449l452 -1157l457 1157h411v-9q-66 0 -108 -10t-60.5 -32t-24 -44t-5.5 -57v-1186q0 -35 5.5 -55.5t24 -40.5 t60 -28.5t108.5 -8.5v-8h-624v8q61 0 101 9t60 28t27.5 41t7.5 55v1248h-8l-547 -1389h-8l-542 1389h-9v-1067q0 -33 1 -58t5.5 -59.5t12.5 -60t23.5 -52.5t36.5 -44.5t53.5 -28.5t72.5 -11v-8h-432z" />
<glyph unicode="&#x41d;" horiz-adv-x="1673" d="M66 0v8q67 0 108.5 8.5t60 28.5t24 40.5t5.5 55.5v1184q0 79 -40 112t-158 33v9h624v-9q-62 0 -101.5 -8.5t-60 -27.5t-27.5 -43.5t-7 -63.5v-549h686v549q0 54 -14.5 83t-57.5 44.5t-125 15.5v9h625v-9q-121 0 -160 -31.5t-39 -113.5v-1184q0 -38 6 -59.5t26 -40t60 -26 t107 -7.5v-8h-625v8q84 0 126.5 13.5t56.5 40.5t14 79v625h-686v-625q0 -52 14 -79t56 -40.5t126 -13.5v-8h-624z" />
<glyph unicode="&#x41e;" horiz-adv-x="1495" d="M76 739q0 217 79.5 390t233 274.5t356.5 101.5q153 0 280.5 -59t212 -162t131 -243t46.5 -302t-46.5 -302.5t-131.5 -243.5t-211.5 -161.5t-280.5 -58.5q-203 0 -356.5 101.5t-233 274t-79.5 390.5zM315 739q0 -219 50.5 -389t149 -268t230.5 -98q133 0 232 98t150 268 t51 389q0 218 -51 388t-150 269t-232 99q-132 0 -230.5 -99t-149 -269t-50.5 -388z" />
<glyph unicode="&#x41f;" horiz-adv-x="1673" d="M66 0v8q67 0 108.5 8.5t60 28.5t24 40.5t5.5 55.5v1196q0 35 -5.5 55.5t-24 40.5t-60 28.5t-108.5 8.5v9h1542v-9q-68 0 -109.5 -8.5t-60 -28.5t-24 -40.5t-5.5 -55.5v-1196q0 -35 5.5 -55.5t24 -40.5t60 -28.5t109.5 -8.5v-8h-625v8q84 0 126.5 13.5t56.5 40.5t14 79 v1192q0 47 -13.5 73.5t-57.5 43t-126 16.5h-293q-82 0 -125.5 -16.5t-57 -43t-13.5 -73.5v-1192q0 -52 14 -79t56 -40.5t126 -13.5v-8h-624z" />
<glyph unicode="&#x420;" horiz-adv-x="1341" d="M66 0v8q67 0 108.5 8.5t60 28.5t24 40.5t5.5 55.5v1194q0 35 -5.5 55.5t-24 41t-60 29.5t-108.5 9v9h735q214 0 351.5 -113t137.5 -301q0 -196 -146.5 -330.5t-379.5 -134.5q-163 0 -270 70v-529q0 -52 15.5 -78.5t62.5 -40.5t139 -14v-8h-645zM494 834q0 -109 52 -164.5 t181 -55.5q81 0 146 39.5t104 104.5t59.5 143.5t20.5 163.5q0 165 -85 283t-214 118h-121q-143 0 -143 -131v-501z" />
<glyph unicode="&#x421;" horiz-adv-x="1390" d="M74 705q0 124 26 240t80.5 218t131.5 178t186.5 120t238.5 44q72 0 149 -23.5t137.5 -47t90.5 -23.5q29 0 50 24t28 68h10l47 -567h-10q-30 144 -86.5 255.5t-124 174.5t-135.5 94t-133 31q-210 0 -327.5 -204t-117.5 -556q0 -349 129.5 -545t331.5 -196q126 0 224 67.5 t153 179.5t68 255q1 21 10.5 32t19.5 11q16 0 24.5 -10t8.5 -25q-4 -148 -78 -270.5t-196 -191.5t-265 -69q-203 0 -356.5 96.5t-234 263t-80.5 376.5z" />
<glyph unicode="&#x422;" horiz-adv-x="1402" d="M20 1022l54 487h8q20 -30 125 -30h987q107 0 127 30h8l53 -487h-8q-16 60 -28.5 101.5t-30 87.5t-36 77t-44 62.5t-56.5 50.5t-71 35t-89.5 23t-109.5 7h-51q-27 0 -35 -17t-8 -75v-1233q0 -35 5.5 -55.5t24.5 -40.5t60.5 -28.5t108.5 -8.5v-8h-627v8q67 0 108.5 8.5 t60.5 28.5t24.5 40.5t5.5 55.5v1233q0 60 -7.5 76t-37.5 16h-49q-66 0 -118 -8.5t-92.5 -23.5t-72.5 -43.5t-56 -60t-46.5 -82.5t-39.5 -101t-38 -125h-9z" />
<glyph unicode="&#x423;" horiz-adv-x="1486" d="M10 1470v9h627v-9q-176 0 -176 -79q0 -10 0.5 -18.5t3.5 -19t4 -15.5t7 -18t8 -17.5t11 -22.5t13 -25l373 -739l327 776q17 42 17 66q0 45 -40.5 78.5t-137.5 33.5v9h421v-9q-83 0 -146.5 -48t-98.5 -130l-439 -1022q-24 -47 -37 -72.5t-33 -61t-33 -53t-32 -40t-36 -33 t-39.5 -21.5t-47.5 -14.5t-55 -3.5q-68 0 -128 24t-102 78.5t-42 129.5q0 57 31 97t79 40q54 0 83.5 -39.5t29.5 -101.5q0 -11 -10.5 -43.5t-10.5 -53.5q0 -44 26.5 -77t88.5 -33q64 0 129.5 68t122.5 210l-487 975q-27 53 -42.5 80.5t-39.5 60t-48 47t-59.5 25.5t-81.5 12z " />
<glyph unicode="&#x424;" horiz-adv-x="1724" d="M66 793q0 247 180 382.5t499 135.5v116q0 75 -36 99t-160 24v9h622v-9q-124 0 -160 -24t-36 -99v-116q319 0 498.5 -135.5t179.5 -382.5q0 -248 -180 -384.5t-498 -136.5v-143q0 -51 14.5 -75t55.5 -35t126 -11v-8h-622v8q85 0 126 11t55.5 35t14.5 75v143 q-318 0 -498.5 136.5t-180.5 384.5zM289 791q0 -263 117 -384.5t339 -121.5v1013q-222 0 -339 -121t-117 -386zM975 285q222 0 338.5 121.5t116.5 384.5q0 265 -116.5 386t-338.5 121v-1013z" />
<glyph unicode="&#x425;" horiz-adv-x="1556" d="M31 0v8q38 0 74.5 10t65 23.5t58.5 39.5t50 46t46.5 55.5t39.5 55.5t37.5 58t33.5 52l240 361l-359 555q-8 12 -25.5 40t-24 38t-22 31.5t-23.5 29.5t-23 22.5t-27.5 20t-30 12.5t-36.5 9.5t-42 2.5v9h623v-9q-45 0 -78 -5.5t-48.5 -12t-24.5 -17.5t-10 -17t-1 -15 q0 -28 11.5 -52.5t50.5 -86.5l264 -410l252 373q55 82 55 141q0 48 -30.5 75t-112.5 27v9h442v-9q-181 0 -344 -243l-258 -383l461 -711q43 -66 90.5 -95.5t128.5 -29.5v-8h-647v8q48 0 83 6t51.5 14t25.5 19t10.5 17t1.5 12q0 20 -6.5 38.5t-12 29t-23.5 37t-26 38.5 l-309 479l-236 -352q-36 -54 -54.5 -85.5t-39 -81.5t-20.5 -87q0 -45 33.5 -64.5t128.5 -19.5v-8h-463z" />
<glyph unicode="&#x426;" horiz-adv-x="1701" d="M66 0v8q67 0 108.5 9.5t60 30t24 41.5t5.5 56v1192q0 35 -5.5 55.5t-24 40.5t-60 28.5t-108.5 8.5v9h624v-9q-84 0 -126 -13.5t-56 -40.5t-14 -79v-1192q0 -47 13.5 -73.5t57 -43t125.5 -16.5h293q82 0 126 16.5t57.5 43t13.5 73.5v1192q0 52 -14 79t-56.5 40.5 t-126.5 13.5v9h625v-9q-68 0 -109.5 -8.5t-60 -28.5t-24 -40.5t-5.5 -55.5v-1192q0 -75 47.5 -106t153.5 -31l32 -403h-8q-12 82 -34.5 146t-45.5 105.5t-62 70t-67.5 42.5t-79 21.5t-79.5 8.5t-86 1h-1114z" />
<glyph unicode="&#x427;" horiz-adv-x="1564" d="M33 1470v9h598v-9q-112 0 -146 -23.5t-34 -98.5v-367q0 -336 290 -336q138 0 334 88v615q0 75 -34 98.5t-146 23.5v9h604v-9q-85 0 -125 -10.5t-54.5 -35t-14.5 -76.5v-1219q0 -74 36 -97.5t158 -23.5v-8h-637v8q93 0 137.5 11t60 35t15.5 75v592q-96 -50 -214.5 -85.5 t-223.5 -35.5q-200 0 -308 89.5t-108 291.5v367q0 75 -35 98.5t-153 23.5z" />
<glyph unicode="&#x428;" horiz-adv-x="2377" d="M66 0v8q55 0 92 6.5t58 16.5t32 29t13.5 36t2.5 45v1186q0 36 -5 57t-23.5 43.5t-60.5 32.5t-109 10v9h616v-9q-82 0 -123.5 -17t-53 -45t-11.5 -81v-1190q0 -70 24 -97.5t84 -27.5h365q60 0 83 27t23 98v1190q0 40 -6 63.5t-24.5 43.5t-56.5 28t-99 8v9h604v-9 q-61 0 -99 -8t-56.5 -28t-24.5 -43.5t-6 -63.5v-1190q0 -71 23.5 -98t84.5 -27h363q61 0 84.5 27t23.5 98v1190q0 53 -11.5 81t-53 45t-123.5 17v9h616v-9q-67 0 -109 -10t-60.5 -32.5t-23.5 -43.5t-5 -57v-1186q0 -28 2.5 -45t13.5 -36t32 -29t58 -16.5t92 -6.5v-8h-2246z " />
<glyph unicode="&#x429;" horiz-adv-x="2406" d="M66 0v8q54 0 91.5 7t58.5 17.5t32 30t13.5 37t2.5 45.5v1182q0 36 -5 57t-23.5 43.5t-60.5 32.5t-109 10v9h616v-9q-82 0 -123.5 -17t-53 -45t-11.5 -81v-1182q0 -71 24.5 -102t83.5 -31h365q59 0 82.5 30.5t23.5 102.5v1182q0 40 -6 63.5t-24.5 43.5t-56.5 28t-99 8v9 h604v-9q-61 0 -99 -8t-56.5 -28t-24.5 -43.5t-6 -63.5v-1182q0 -72 24 -102.5t84 -30.5h363q60 0 84 30.5t24 102.5v1182q0 53 -11.5 81t-53 45t-123.5 17v9h616v-9q-67 0 -109 -10t-60.5 -32.5t-23.5 -43.5t-5 -57l-3 -1182q0 -75 47.5 -106t153.5 -31l33 -403h-8 q-17 114 -53 192.5t-73 117.5t-102.5 59t-106 23t-120.5 3h-1816z" />
<glyph unicode="&#x42a;" horiz-adv-x="1583" d="M23 981l55 532h8q17 -20 55 -27t117 -7h686v-9q-118 0 -159.5 -35t-41.5 -135v-483q133 37 258 37q245 0 387 -127t142 -319q0 -188 -137 -298t-353 -110h-725v8q67 0 108.5 8.5t60.5 28.5t24.5 40.5t5.5 55.5v1159q0 98 -17.5 132t-64.5 34h-80q-105 0 -189.5 -117 t-131.5 -368h-8zM743 129q0 -115 66 -115h199q84 0 151.5 58.5t102 148t34.5 187.5q0 76 -23 149.5t-66.5 135.5t-114 100t-156.5 38q-110 0 -193 -24v-678z" />
<glyph unicode="&#x42b;" horiz-adv-x="2002" d="M66 0v8q67 0 108.5 8.5t60 28.5t24 40.5t5.5 55.5v1186q0 52 -14.5 81t-58.5 45.5t-125 16.5v9h624v-9q-62 0 -101.5 -8.5t-60 -27.5t-27.5 -43.5t-7 -63.5v-510q133 37 258 37q123 0 223.5 -35t167 -95.5t102 -141.5t35.5 -174q0 -188 -137 -298t-352 -110h-725z M494 129q0 -115 65 -115h199q84 0 152 58.5t102.5 148t34.5 187.5q0 76 -23.5 149.5t-66.5 135.5t-114 100t-157 38q-110 0 -192 -24v-678zM1309 0v8q67 0 108.5 8.5t60 28.5t24 40.5t5.5 55.5v1186q0 35 -5.5 57t-24 44t-60.5 32t-108 10v9h628v-9q-67 0 -109 -10t-61 -32 t-24.5 -44t-5.5 -57v-1186q0 -35 5.5 -55.5t24.5 -40.5t60.5 -28.5t109.5 -8.5v-8h-628z" />
<glyph unicode="&#x42c;" horiz-adv-x="1331" d="M66 0v8q67 0 108.5 8.5t60 28.5t24 40.5t5.5 55.5v1184q0 79 -40 112t-158 33v9h624v-9q-62 0 -101.5 -8.5t-60 -27.5t-27.5 -43.5t-7 -63.5v-510q133 37 258 37q123 0 223.5 -35t167 -95.5t102 -141.5t35.5 -174q0 -188 -137 -298t-352 -110h-725zM494 129q0 -57 16 -83 t49 -32q132 -4 199 -4q84 0 152 59.5t102.5 150t34.5 188.5q0 76 -23.5 149.5t-66.5 135.5t-114 100t-157 38q-110 0 -192 -24v-678z" />
<glyph unicode="&#x42d;" horiz-adv-x="1325" d="M76 418q0 44 28 74t68 30q41 0 66.5 -28t25.5 -70q0 -28 -12 -93t-12 -112q0 -31 10 -62t35.5 -63t63 -56.5t97.5 -40t134 -15.5q69 0 130 29.5t107 82.5t82 124t59.5 156.5t36 178.5t13.5 190h-566v13h566q-6 351 -105 546t-295 195q-61 0 -117.5 -15.5t-116 -55 t-108.5 -101.5t-91.5 -161.5t-68.5 -227.5h-8l45 571h9q4 -16 8.5 -28t13.5 -24t25.5 -18.5t38.5 -6.5q41 0 99 20t128.5 39.5t142.5 19.5q153 0 276 -62t201 -169.5t119 -249t41 -305.5q0 -166 -50.5 -307.5t-138.5 -239t-211 -152.5t-265 -55q-139 0 -252.5 52.5 t-182.5 156.5t-69 240z" />
<glyph unicode="&#x42e;" horiz-adv-x="2168" d="M66 0v8q67 0 108.5 8.5t60 28.5t24 40.5t5.5 55.5v1186q0 35 -5.5 57t-24 44t-60.5 32t-108 10v9h624v-9q-62 0 -101.5 -8.5t-60 -27.5t-27.5 -43.5t-7 -63.5v-549h268q7 208 87 371.5t229.5 259.5t346.5 96q153 0 279.5 -59t210 -162t129 -243t45.5 -302 q0 -163 -45.5 -303t-129 -243t-210 -161.5t-279.5 -58.5q-203 0 -355 101.5t-230 274t-78 390.5v27h-268v-625q0 -52 14 -79t56 -40.5t126 -13.5v-8h-624zM1001 739q0 -219 49 -388.5t146 -268t229 -98.5q133 0 230.5 98.5t146.5 268t49 388.5t-49 388.5t-146.5 268.5 t-230.5 99q-132 0 -229 -99t-146 -269t-49 -388z" />
<glyph unicode="&#x42f;" horiz-adv-x="1503" d="M-16 82q2 2 6 4t6 4q37 -65 86 -65q41 0 74.5 34.5t59.5 90.5t54 125t67.5 141t89 135.5t128.5 112t178 65.5q-241 8 -384.5 108.5t-143.5 268.5q0 179 138 276t362 97h729v-9q-67 0 -108.5 -9t-60.5 -29.5t-24.5 -41t-5.5 -55.5v-1194q0 -35 5.5 -55.5t24.5 -40.5 t60.5 -28.5t108.5 -8.5v-8h-627v8q67 0 108.5 8.5t60.5 28.5t24.5 40.5t5.5 55.5v588h-179q-65 0 -114 -41.5t-80.5 -107.5t-60 -145.5t-62.5 -159.5t-77 -146t-113.5 -107.5t-163.5 -41.5q-109 0 -172 102zM436 1100q0 -160 96.5 -259.5t270.5 -99.5h203v592q0 133 -97 133 h-172q-129 0 -215 -105t-86 -261z" />
<glyph unicode="&#x430;" horiz-adv-x="1097" d="M84 195q0 47 21 92t69 88t118.5 74.5t178.5 51t240 19.5q0 15 1 45t1 37q0 352 -215 352q-36 0 -63.5 -8.5t-43.5 -20.5t-28.5 -33t-18 -36.5t-13 -40t-12.5 -35.5q-16 -40 -22 -54.5t-19.5 -39t-24.5 -32.5t-29 -15.5t-42 -7.5q-37 0 -59.5 25t-22.5 61q0 59 38.5 108 t99.5 78.5t131.5 45.5t140.5 16q195 0 297 -84t102 -232q0 -89 -7 -236t-7 -214q0 -94 18 -133t62 -39q50 0 84 112l12 -2q-25 -76 -69.5 -122t-106.5 -46q-81 0 -128.5 54.5t-55.5 191.5q-54 -113 -149.5 -179.5t-227.5 -66.5q-119 0 -184.5 64t-65.5 162zM274 197 q0 -81 40.5 -140t105.5 -59q48 0 95.5 22t90.5 67t71 124t32 182q0 15 1 58t1 59q-109 0 -191.5 -22.5t-127.5 -55t-73 -77t-36.5 -82t-8.5 -76.5z" />
<glyph unicode="&#x431;" horiz-adv-x="1064" d="M68 467q0 83 2 147t7.5 136.5t17 128.5t28.5 114t43 102t61 83.5t82 68t105 45.5q29 9 99.5 22t137 27t133 32.5t107.5 46t41 59.5h8q-5 -56 -12.5 -92t-23.5 -71t-40 -56.5t-63.5 -41t-93 -32t-129.5 -23.5q-116 -16 -202 -53t-141 -88.5t-89 -125.5t-48 -155.5 t-16 -187.5q54 187 170.5 287t284.5 100q212 0 336 -129.5t124 -341.5q0 -219 -130.5 -357.5t-334.5 -138.5q-212 0 -338 139t-126 355zM264 457q0 -227 71 -350t197 -123q125 0 197 123.5t72 349.5q0 224 -70 348.5t-194 124.5q-125 0 -199 -125t-74 -348z" />
<glyph unicode="&#x432;" horiz-adv-x="1071" d="M47 0v8q56 0 91.5 10t50.5 31t19.5 41.5t4.5 54.5v648q0 34 -4.5 54.5t-19.5 41.5t-50.5 31t-91.5 10v8h596q151 0 233 -59t82 -162q0 -78 -69.5 -142t-188.5 -81q161 -13 235.5 -78.5t74.5 -163.5q0 -125 -96 -188.5t-259 -63.5h-608zM408 145q0 -70 20.5 -102.5 t91.5 -32.5h76q89 0 150 69t61 179q0 104 -65.5 166.5t-159.5 62.5h-174v-342zM408 498h137q110 0 165.5 61t55.5 156q0 94 -57 153.5t-162 59.5h-39q-56 0 -78 -16t-22 -64v-350z" />
<glyph unicode="&#x433;" horiz-adv-x="925" d="M47 0v8q56 0 91.5 10t50.5 31t19.5 41.5t4.5 54.5v648q0 34 -4.5 54.5t-19.5 41.5t-50.5 31t-91.5 10v8h815l43 -363h-8q-14 90 -38.5 155.5t-53 102.5t-67.5 59t-74 29t-80 7h-105q-42 0 -56.5 -31t-14.5 -104v-648q0 -28 2.5 -44.5t12.5 -36t29 -30t54 -17.5t86 -7v-10 h-545z" />
<glyph unicode="&#x434;" horiz-adv-x="1150" d="M29 -297l18 307h111q94 36 151.5 236.5t57.5 527.5q0 32 -7.5 57t-26 48t-56.5 36t-93 13v10h910v-10q-56 0 -90 -5.5t-50.5 -18t-21 -27t-4.5 -39.5v-738q0 -61 30.5 -75.5t137.5 -14.5l18 -307h-8q-12 83 -36.5 142t-49.5 88.5t-62 45.5t-60 18.5t-58 2.5h-561 q-33 0 -59 -5.5t-56 -23.5t-53 -49t-43 -87t-31 -132h-8zM199 10h473q37 0 49 18.5t12 61.5v776q0 33 -11.5 47.5t-43.5 14.5h-174q-67 0 -96 -44t-29 -110q0 -591 -180 -764z" />
<glyph unicode="&#x435;" horiz-adv-x="980" d="M68 469q0 72 16.5 141t52.5 134t88 113.5t129.5 78t169.5 29.5q86 0 161 -30.5t124.5 -79.5t77.5 -111t28 -126q0 -41 -19.5 -56t-86.5 -15h-543q-2 -23 -2 -64q0 -232 81 -361.5t212 -129.5q61 0 112 24t86 65.5t58 87.5t37 99q6 25 24 25q23 0 23 -25q0 -17 -13 -50 t-43.5 -75.5t-72.5 -80t-107.5 -63.5t-140.5 -26q-114 0 -203.5 42.5t-142 114t-79.5 158t-27 181.5zM266 561h330q131 0 131 80q0 127 -56 220t-147 93q-110 0 -179.5 -113t-78.5 -280z" />
<glyph unicode="&#x436;" horiz-adv-x="1617" d="M45 51l6 6q39 -57 78 -57q22 0 41 26.5t35.5 69.5t36 94.5t50 103.5t70.5 95.5t104 72t144 30.5l-274 303q-33 36 -51 52.5t-52 39t-77 32.5t-101 11v8h404v-8q-61 -2 -102.5 -17.5t-41.5 -48.5q0 -28 35 -69l273 -303h90v301q0 36 -3 54.5t-17 41t-48 32t-90 9.5v8h510 v-8q-56 0 -90 -9.5t-48 -32t-17 -41t-3 -54.5v-301h90l273 303q35 41 35 69q0 33 -41.5 48.5t-102.5 17.5v8h404v-8q-58 -1 -101 -11t-77 -32.5t-52 -39t-51 -52.5l-274 -303q80 -2 144 -30.5t104 -72t70.5 -95.5t50 -103.5t36 -94.5t35.5 -69.5t41 -26.5q39 0 78 57l6 -6 q-26 -40 -57 -55.5t-74 -15.5q-68 0 -119 27.5t-81 72t-53.5 97.5t-44 106.5t-44.5 98t-63.5 72t-92.5 27.5h-39v-336q0 -36 3 -54.5t17 -41t48 -32t90 -9.5v-8h-510v8q56 0 90 9.5t48 32t17 41t3 54.5v336h-39q-53 0 -92.5 -27.5t-63.5 -72t-44.5 -98t-44 -106.5 t-53.5 -97.5t-81 -72t-119 -27.5q-43 0 -74 15.5t-57 55.5z" />
<glyph unicode="&#x437;" horiz-adv-x="917" d="M63 229q0 42 23.5 68.5t58.5 26.5q37 0 60.5 -26t23.5 -62q0 -18 -7 -51.5t-7 -53.5q0 -24 6 -46.5t22.5 -48t54 -41t91.5 -15.5q106 0 189.5 81.5t83.5 186.5q0 103 -61.5 173.5t-135.5 70.5h-143v10h143q70 0 125 69t55 156q0 112 -53.5 171.5t-138.5 59.5 q-117 0 -208 -90.5t-130 -287.5h-9q15 194 33 387h8q4 -17 21.5 -31t46.5 -14q30 0 114.5 23.5t143.5 23.5q354 0 354 -242q0 -87 -70 -148t-194 -83q141 -13 218 -81t77 -169q0 -134 -119.5 -205.5t-324.5 -71.5q-139 0 -245 72.5t-106 187.5z" />
<glyph unicode="&#x438;" horiz-adv-x="1316" d="M47 0v8q56 0 91.5 10t50.5 31t19.5 41.5t4.5 54.5v648q0 34 -4.5 54.5t-19.5 41.5t-50.5 31t-91.5 10v8h518v-8q-45 0 -76 -8t-47 -18t-24 -31t-9 -36t-1 -44v-631l497 631q0 29 -1 44t-9 36t-24 31t-47 18t-76 8v8h518v-8q-56 0 -91.5 -10t-50.5 -31t-19.5 -41.5 t-4.5 -54.5v-648q0 -34 4.5 -54.5t19.5 -41.5t50.5 -31t91.5 -10v-8h-518v8q45 0 76 8t47 18t24 31t9 36t1 44v629l-497 -629q0 -29 1 -44t9 -36t24 -31t47 -18t76 -8v-8h-518z" />
<glyph unicode="&#x439;" horiz-adv-x="1316" d="M47 0v8q56 0 91.5 10t50.5 31t19.5 41.5t4.5 54.5v648q0 34 -4.5 54.5t-19.5 41.5t-50.5 31t-91.5 10v8h518v-8q-45 0 -76 -8t-47 -18t-24 -31t-9 -36t-1 -44v-631l497 631q0 29 -1 44t-9 36t-24 31t-47 18t-76 8v8h518v-8q-56 0 -91.5 -10t-50.5 -31t-19.5 -41.5 t-4.5 -54.5v-648q0 -34 4.5 -54.5t19.5 -41.5t50.5 -31t91.5 -10v-8h-518v8q45 0 76 8t47 18t24 31t9 36t1 44v629l-497 -629q0 -29 1 -44t9 -36t24 -31t47 -18t76 -8v-8h-518zM328 1286q0 38 27.5 72.5t62.5 34.5t59.5 -28t24.5 -65q0 -17 -9.5 -52t-9.5 -54q0 -18 5 -35.5 t20.5 -40.5t53 -37t93.5 -14q47 0 81 10t51.5 24t27.5 33.5t12 32.5t2 27q0 19 -9 54t-9 52q0 33 25.5 63t58.5 30q37 0 63.5 -32.5t26.5 -74.5q0 -109 -97 -169t-233 -60q-86 0 -158.5 24.5t-120.5 77.5t-48 127z" />
<glyph unicode="&#x43a;" horiz-adv-x="1118" d="M47 0v8q56 0 91.5 10t50.5 31t19.5 41.5t4.5 54.5v648q0 34 -4.5 54.5t-19.5 41.5t-50.5 31t-91.5 10v8h518v-8q-45 0 -76 -8t-47 -18t-24 -31t-9 -36t-1 -44v-297h94l289 307q30 33 30 63q0 37 -38.5 50.5t-116.5 13.5v8h415v-8q-93 -1 -157.5 -35t-120.5 -92l-289 -307 q80 -2 145 -30.5t107 -72t75 -96t55.5 -104.5t41 -95t38.5 -69.5t42 -26.5q43 0 78 55l8 -6q-26 -41 -57.5 -56t-75.5 -15q-68 0 -120 28t-84 72.5t-58 98t-49 107.5t-49.5 98.5t-67 72.5t-94.5 28h-41v-335q0 -25 1 -37.5t5 -32.5t14 -30t27 -21.5t44.5 -16t65.5 -4.5v-8 h-518z" />
<glyph unicode="&#x43b;" horiz-adv-x="1167" d="M16 135q0 37 27.5 66.5t62.5 29.5q37 0 60.5 -28.5t23.5 -71.5q0 -7 -1 -23.5t-1 -23.5q0 -24 7.5 -40.5t21.5 -16.5q34 0 65.5 46t57.5 134.5t41.5 235t15.5 331.5q0 31 -6.5 55t-24.5 48.5t-56.5 38.5t-96.5 14v8h903v-8q-56 0 -91.5 -10t-50.5 -31t-19.5 -41.5 t-4.5 -54.5v-648q0 -34 4.5 -54.5t19.5 -41.5t50.5 -31t91.5 -10v-8h-518v8q56 0 90 9.5t48 32t17 41t3 54.5v666q0 117 -62 117h-174q-30 0 -52.5 -14t-35 -37t-18.5 -49t-6 -54q0 -91 -4 -173.5t-13.5 -178t-29 -171t-47.5 -139.5t-72 -99.5t-99 -35.5q-59 0 -93 43 t-34 115z" />
<glyph unicode="&#x43c;" horiz-adv-x="1386" d="M39 0v8q56 0 92.5 10t53.5 30.5t22.5 42t5.5 54.5v648q0 33 -5.5 54.5t-22.5 42t-53.5 30.5t-92.5 10v8h375l272 -694l295 694h352v-8q-56 0 -91.5 -10t-50.5 -31t-19.5 -41.5t-4.5 -54.5v-648q0 -34 4.5 -54.5t19.5 -41.5t50.5 -31t91.5 -10v-8h-516v8q56 0 90 9.5 t48 32t17 41t3 54.5v732h-8l-377 -877h-8l-351 877h-8v-732q0 -67 35.5 -102t142.5 -35v-8h-362z" />
<glyph unicode="&#x43d;" horiz-adv-x="1286" d="M47 0v8q56 0 91.5 10t50.5 31t19.5 41.5t4.5 54.5v648q0 34 -4.5 54.5t-19.5 41.5t-50.5 31t-91.5 10v8h518v-8q-45 0 -76 -8t-47 -18t-24 -31t-9 -36t-1 -44v-297h466v297q0 29 -1 44t-9 36t-24 31t-47 18t-76 8v8h518v-8q-56 0 -91.5 -10t-50.5 -31t-19.5 -41.5 t-4.5 -54.5v-648q0 -34 4.5 -54.5t19.5 -41.5t50.5 -31t91.5 -10v-8h-518v8q45 0 76 8t47 18t24 31t9 36t1 44v340h-466v-340q0 -29 1 -44t9 -36t24 -31t47 -18t76 -8v-8h-518z" />
<glyph unicode="&#x43e;" horiz-adv-x="1067" d="M68 469q0 217 125 356.5t339 139.5t339.5 -139.5t125.5 -356.5q0 -218 -125.5 -357t-339.5 -139t-339 139t-125 357zM264 469q0 -234 71 -359.5t197 -125.5t197.5 126t71.5 359q0 232 -71.5 358.5t-197.5 126.5t-197 -126.5t-71 -358.5z" />
<glyph unicode="&#x43f;" horiz-adv-x="1284" d="M47 0v8q56 0 91.5 10t50.5 31t19.5 41.5t4.5 54.5v648q0 34 -4.5 54.5t-19.5 41.5t-50.5 31t-91.5 10v8h1188v-8q-56 0 -91.5 -10t-50.5 -31t-19.5 -41.5t-4.5 -54.5v-648q0 -34 4.5 -54.5t19.5 -41.5t50.5 -31t91.5 -10v-8h-518v8q45 0 76 8t47 18t24 31t9 36t1 44v643 q0 37 -3 55.5t-16.5 41.5t-47.5 33t-90 10h-152q-56 0 -90 -10t-47.5 -33t-16.5 -41.5t-3 -55.5v-643q0 -29 1 -44t9 -36t24 -31t47 -18t76 -8v-8h-518z" />
<glyph unicode="&#x440;" horiz-adv-x="1179" d="M39 907v8q171 0 342 46l12 -271q32 119 118.5 197t205.5 78q120 0 212 -69.5t138.5 -181t46.5 -245.5q0 -136 -46.5 -248t-138.5 -180t-212 -68q-112 0 -198 70t-120 184v-477q0 -26 5.5 -44.5t22 -39.5t55 -32t96.5 -11v-8h-537v8q53 0 88 11t50.5 32t20.5 40t5 46v1051 q0 31 -4 47.5t-20.5 31t-50 20t-91.5 5.5zM399 469q0 -231 74.5 -350t181.5 -119q117 0 190 118.5t73 350.5q0 231 -72.5 350t-188.5 119q-108 0 -183 -116t-75 -353z" />
<glyph unicode="&#x441;" horiz-adv-x="956" d="M68 459q0 96 31.5 185.5t89.5 161.5t151.5 115.5t208.5 43.5q142 0 238 -65t96 -181q0 -39 -29.5 -76t-77.5 -37q-53 0 -79.5 31t-26.5 76q0 18 13 64.5t13 68.5q0 106 -121 106q-133 0 -222 -136t-89 -349q0 -216 80 -346.5t217 -130.5q49 0 91 16t71.5 42t54 64 t40.5 75t30 83q7 25 26 25q25 0 25 -25q0 -21 -12.5 -54.5t-41.5 -76t-70 -79.5t-106 -62t-141 -25q-145 0 -251 66.5t-157.5 175.5t-51.5 244z" />
<glyph unicode="&#x442;" horiz-adv-x="1038" d="M29 584l47 354h882l48 -354h-9q-65 196 -119.5 270t-123.5 74h-86q-32 0 -43 -13.5t-11 -40.5v-729q0 -34 4.5 -54.5t20.5 -41.5t51.5 -31t91.5 -10v-8h-538v8q56 0 93 10t54 30.5t23 42.5t6 54v729q0 28 -11 41t-42 13h-86q-69 0 -124 -74t-120 -270h-8z" />
<glyph unicode="&#x443;" horiz-adv-x="1130" d="M10 930v8h490v-8q-125 0 -125 -68q0 -22 33 -90l286 -586l246 631q8 24 8 37q0 74 -137 76v8h303v-8q-114 0 -153 -96l-340 -869q-72 -181 -106 -240q-66 -112 -159 -132q-24 -5 -51 -5q-92 0 -141 59t-49 134q0 40 27 72t61 32q38 0 58.5 -19t24 -47.5t6 -61.5 t5.5 -61.5t21.5 -47.5t54.5 -19q24 0 45 9t40 30.5t33 40.5t31 56.5t27 61t28 70t27 68.5l-414 807q-4 8 -19.5 39.5t-20.5 40t-21 29.5t-29.5 28t-37 14t-52.5 7z" />
<glyph unicode="&#x444;" horiz-adv-x="1536" d="M68 467q0 135 39.5 247t120.5 181.5t190 69.5q88 0 152.5 -56.5t99.5 -154.5v501q0 41 -8.5 60.5t-45 32t-112.5 12.5v8q177 0 360 49v-663q36 99 100.5 155t151.5 56q83 0 150.5 -40.5t111 -109t67 -158t23.5 -190.5q0 -136 -40 -247.5t-121 -180t-191 -68.5 q-87 0 -151.5 53.5t-100.5 147.5v-412q0 -36 3 -54.5t17 -41t48 -32t90 -9.5v-8h-518v8q56 0 91.5 10t50.5 31t19.5 41.5t4.5 54.5v412q-35 -94 -99.5 -147.5t-152.5 -53.5q-109 0 -190 68.5t-120.5 180t-39.5 247.5zM248 465q0 -475 217 -475q87 0 147.5 120.5t61.5 354.5 q-1 229 -62 353t-147 124q-217 0 -217 -477zM860 465q1 -234 62.5 -354.5t148.5 -120.5q215 0 215 475q0 477 -215 477q-86 0 -148 -124.5t-63 -352.5z" />
<glyph unicode="&#x445;" horiz-adv-x="1081" d="M14 0v8q65 0 134 46.5t106 97.5l211 292l-260 398q-28 44 -63 66t-97 22v8h465v-8q-121 0 -121 -45q0 -30 39 -86l172 -260l176 237q37 48 37 82q0 72 -137 72v8h350v-8q-129 -3 -240 -154l-180 -246l275 -413q35 -52 76 -80.5t108 -28.5v-8h-471v8q58 0 83 11t25 36 q0 37 -55 117l-176 262l-207 -282q-33 -46 -33 -78q0 -66 129 -66v-8h-346z" />
<glyph unicode="&#x446;" horiz-adv-x="1292" d="M47 0v8q56 0 91.5 10t50.5 31t19.5 41.5t4.5 54.5v648q0 34 -4.5 54.5t-19.5 41.5t-50.5 31t-91.5 10v8h518v-8q-45 0 -76 -8t-47 -18t-24 -31t-9 -36t-1 -44v-643q0 -37 3 -55.5t16.5 -41.5t47.5 -33t90 -10h154q56 0 90 10t48 33t17 42t3 55v643q0 36 -3 54.5t-17 41 t-48 32t-90 9.5v8h516v-8q-56 0 -91.5 -10t-50.5 -31t-19.5 -41.5t-4.5 -54.5v-693q0 -61 30.5 -75.5t137.5 -14.5l18 -307h-8q-12 83 -36.5 142t-49.5 88.5t-62 45.5t-60 18.5t-58 2.5h-934z" />
<glyph unicode="&#x447;" horiz-adv-x="1228" d="M18 930v8h519v-8q-56 0 -90 -9.5t-48 -32t-17 -41t-3 -54.5v-164q0 -115 50 -175.5t146 -60.5q120 0 244 62v338q0 29 -1 44t-9 36t-24 31t-47 18t-76 8v8h516v-8q-56 0 -91.5 -10t-50.5 -31t-19.5 -41.5t-4.5 -54.5v-648q0 -34 4.5 -54.5t19.5 -41.5t50.5 -31t91.5 -10 v-8h-516v8q45 0 76 8t47 18t24 31t9 36t1 44v299q-156 -73 -332 -73q-55 0 -106.5 15t-96.5 44.5t-72.5 81t-27.5 117.5v164q0 34 -4.5 54.5t-19.5 41.5t-50.5 31t-91.5 10z" />
<glyph unicode="&#x448;" horiz-adv-x="1851" d="M47 0v8q56 0 91.5 10t50.5 31t19.5 41.5t4.5 54.5v648q0 34 -4.5 54.5t-19.5 41.5t-50.5 31t-91.5 10v8h518v-8q-45 0 -76 -8t-47 -18t-24 -31t-9 -36t-1 -44v-643q0 -37 3 -55.5t16.5 -41.5t47.5 -33t90 -10h103q56 0 90 10t47.5 33t16.5 41.5t3 55.5v643q0 29 -1 44 t-9 36t-24 31t-47 18t-76 8v8h516v-8q-56 0 -91.5 -10t-50.5 -31t-19.5 -41.5t-4.5 -54.5v-648q0 -27 2 -44t11.5 -36t26.5 -30t49 -18t77 -7h94q56 0 90 10t48 33t17 42t3 55v643q0 36 -3 54.5t-17 41t-48 32t-90 9.5v8h516v-8q-56 0 -91.5 -10t-50.5 -31t-19.5 -41.5 t-4.5 -54.5v-648q0 -34 4.5 -54.5t19.5 -41.5t50.5 -31t91.5 -10v-8h-1747z" />
<glyph unicode="&#x449;" horiz-adv-x="1851" d="M47 0v8q56 0 91.5 10t50.5 31t19.5 41.5t4.5 54.5v648q0 34 -4.5 54.5t-19.5 41.5t-50.5 31t-91.5 10v8h518v-8q-45 0 -76 -8t-47 -18t-24 -31t-9 -36t-1 -44v-643q0 -37 3 -55.5t16.5 -41.5t47.5 -33t90 -10h103q56 0 90 10t47.5 33t16.5 41.5t3 55.5v643q0 29 -1 44 t-9 36t-24 31t-47 18t-76 8v8h516v-8q-56 0 -91.5 -10t-50.5 -31t-19.5 -41.5t-4.5 -54.5v-648q0 -27 2 -44t11.5 -36t26.5 -30t49 -18t77 -7h94q56 0 90 10t48 33t17 42t3 55v643q0 36 -3 54.5t-17 41t-48 32t-90 9.5v8h516v-8q-56 0 -91.5 -10t-50.5 -31t-19.5 -41.5 t-4.5 -54.5v-693q0 -61 30.5 -75.5t137.5 -14.5l19 -307h-9q-12 83 -36.5 142t-49.5 88.5t-62 45.5t-60 18.5t-58 2.5h-1493z" />
<glyph unicode="&#x44a;" horiz-adv-x="1226" d="M31 584l47 354h690v-8q-56 0 -91.5 -10t-50.5 -31t-19.5 -41.5t-4.5 -54.5v-240q114 31 219 31q155 0 258 -78t103 -217q0 -141 -99.5 -215t-253.5 -74h-587v8q56 0 91.5 10t50.5 31t19.5 41.5t4.5 54.5v689q0 94 -76 94q-54 0 -88 -10.5t-70 -45.5t-67.5 -104 t-67.5 -184h-8zM602 145q0 -69 21 -102t92 -33h63q88 0 148.5 83t60.5 210q0 126 -73 193t-181 67q-57 0 -131 -20v-398z" />
<glyph unicode="&#x44b;" horiz-adv-x="1589" d="M47 0v8q56 0 91.5 10t50.5 31t19.5 41.5t4.5 54.5v648q0 34 -4.5 54.5t-19.5 41.5t-50.5 31t-91.5 10v8h526v-8q-56 0 -91 -10t-50.5 -31t-19.5 -41.5t-4 -54.5v-240q114 31 219 31q155 0 257.5 -78t102.5 -217q0 -141 -99 -215t-253 -74h-588zM408 145 q0 -70 20.5 -102.5t91.5 -32.5h64q88 0 148.5 83t60.5 210q0 126 -73 193t-181 67q-57 0 -131 -20v-398zM1006 0v8q56 0 91 10t50.5 31t19.5 41.5t4 54.5v648q0 34 -4 54.5t-19.5 41.5t-50.5 31t-91 10v8h526v-8q-56 0 -91.5 -10t-50.5 -31t-19.5 -41.5t-4.5 -54.5v-648 q0 -34 4.5 -54.5t19.5 -41.5t50.5 -31t91.5 -10v-8h-526z" />
<glyph unicode="&#x44c;" horiz-adv-x="1036" d="M47 0v8q56 0 91.5 10t50.5 31t19.5 41.5t4.5 54.5v648q0 34 -4.5 54.5t-19.5 41.5t-50.5 31t-91.5 10v8h526v-8q-56 0 -91 -10t-50.5 -31t-19.5 -41.5t-4 -54.5v-240q114 31 219 31q155 0 257.5 -78t102.5 -217q0 -141 -99 -215t-253 -74h-588zM408 145 q0 -70 20.5 -102.5t91.5 -32.5h64q88 0 148.5 83t60.5 210q0 126 -73 194t-181 68q-63 0 -131 -22v-398z" />
<glyph unicode="&#x44d;" horiz-adv-x="962" d="M59 231q0 40 25.5 68.5t56.5 28.5q40 0 60 -27.5t20 -60.5q0 -14 -4 -52.5t-4 -60.5q0 -147 193 -147q72 0 128 40.5t90.5 111.5t52 159t19.5 190h-385v11h385q-3 218 -67 340t-183 122q-254 0 -358 -385h-8l33 398h8q24 -49 65 -49q18 0 111 23.5t170 23.5 q105 0 188 -38.5t134.5 -106t78.5 -154t27 -187.5q0 -107 -31.5 -199t-91 -162t-154 -109.5t-212.5 -39.5q-148 0 -247.5 73t-99.5 189z" />
<glyph unicode="&#x44e;" horiz-adv-x="1591" d="M47 0v8q56 0 91.5 10t50.5 31t19.5 41.5t4.5 54.5v648q0 34 -4.5 54.5t-19.5 41.5t-50.5 31t-91.5 10v8h518v-8q-45 0 -76 -8t-47 -18t-24 -31t-9 -36t-1 -44v-297h202q8 208 129.5 338.5t327.5 130.5q213 0 335 -139t122 -357q0 -219 -122 -357.5t-335 -138.5 t-335 138.5t-122 357.5v16h-202v-340q0 -29 1 -44t9 -36t24 -31t47 -18t76 -8v-8h-518zM807 469q0 -233 69.5 -359t190.5 -126q122 0 191 126t69 359q0 232 -69.5 358.5t-190.5 126.5q-120 0 -190 -127t-70 -358z" />
<glyph unicode="&#x44f;" horiz-adv-x="1150" d="M27 51l6 6q29 -55 78 -55q22 0 39 21t30.5 55.5t29 77t40.5 88t58.5 86t90.5 73t129 46.5q-164 0 -267 62t-103 181q0 246 395 246h549v-8q-56 0 -91.5 -10t-50.5 -31t-19.5 -41.5t-4.5 -54.5v-648q0 -34 4.5 -54.5t19.5 -41.5t50.5 -31t91.5 -10v-8h-516v8q45 0 76 8 t47 18t24 31t9 36t1 44v304h-86q-54 0 -93 -26t-62.5 -67t-43 -91t-42.5 -100.5t-52.5 -91.5t-81 -67t-120.5 -26q-101 0 -135 71zM352 680q0 -105 65 -163t161 -58h165v307q0 58 -3.5 87.5t-18.5 48t-37 22.5t-66 4h-55q-88 0 -149.5 -70t-61.5 -178z" />
<glyph unicode="&#x451;" horiz-adv-x="980" d="M68 469q0 72 16.5 141t52.5 134t88 113.5t129.5 78t169.5 29.5q86 0 161 -30.5t124.5 -79.5t77.5 -111t28 -126q0 -41 -19.5 -56t-86.5 -15h-543q-2 -23 -2 -64q0 -232 81 -361.5t212 -129.5q61 0 112 24t86 65.5t58 87.5t37 99q6 25 24 25q23 0 23 -25q0 -17 -13 -50 t-43.5 -75.5t-72.5 -80t-107.5 -63.5t-140.5 -26q-114 0 -203.5 42.5t-142 114t-79.5 158t-27 181.5zM221 1237q0 41 28 69.5t68 28.5t68.5 -28.5t28.5 -69.5q0 -39 -29 -67.5t-68 -28.5t-67.5 28.5t-28.5 67.5zM266 561h330q131 0 131 80q0 127 -56 220t-147 93 q-110 0 -179.5 -113t-78.5 -280zM610 1237q0 41 28.5 69.5t68.5 28.5t68 -28.5t28 -69.5q0 -39 -28.5 -67.5t-67.5 -28.5t-68 28.5t-29 67.5z" />
<glyph unicode="&#x452;" horiz-adv-x="1185" d="M35 1452v8q177 0 360 49v-331h486v-13h-486v-481q42 123 146 202t235 79q70 0 123 -22.5t87 -61.5t56 -96.5t30.5 -121.5t8.5 -143v-473q0 -117 -32 -209t-83 -144.5t-107 -79t-111 -26.5q-41 0 -86 16.5t-81 54.5t-36 87q0 44 29 73t71 29q41 0 68.5 -29t27.5 -73 q0 -28 -15 -63t-15 -45q0 -14 9 -25.5t28 -11.5q64 0 101.5 91.5t37.5 272.5v637q0 158 -47 245t-144 87q-110 0 -205.5 -122.5t-95.5 -272.5v-404q0 -26 5.5 -44.5t21.5 -39.5t54.5 -32t96.5 -11v-8h-536v8q53 0 88 11t50.5 32t20.5 40t5 46v1028h-162v13h162v170 q0 31 -4 47.5t-20.5 31t-50 20t-91.5 5.5z" />
<glyph unicode="&#x453;" horiz-adv-x="925" d="M47 0v8q56 0 91.5 10t50.5 31t19.5 41.5t4.5 54.5v648q0 34 -4.5 54.5t-19.5 41.5t-50.5 31t-91.5 10v8h815l43 -363h-8q-14 90 -38.5 155.5t-53 102.5t-67.5 59t-74 29t-80 7h-105q-42 0 -56.5 -31t-14.5 -104v-648q0 -28 2.5 -44.5t12.5 -36t29 -30t54 -17.5t86 -7v-10 h-545zM385 1116q43 68 79 135.5t51.5 99.5t34 60t37.5 36.5t50 8.5q26 0 47 -17t21 -42q0 -30 -29.5 -61t-71 -57t-104 -73t-109.5 -96z" />
<glyph unicode="&#x454;" horiz-adv-x="962" d="M68 479q0 101 27 187.5t78.5 154t134.5 106t188 38.5q78 0 170 -23.5t110 -23.5q42 0 66 49h8l33 -398h-9q-104 385 -358 385q-119 0 -183 -122t-67 -340h385v-11h-385q2 -138 32 -248t97 -181.5t162 -71.5q193 0 193 147q0 22 -4.5 60.5t-4.5 52.5q0 33 20 60.5t60 27.5 q31 0 56.5 -28.5t25.5 -68.5q0 -116 -99 -189t-247 -73q-118 0 -212.5 39.5t-154 109.5t-91 162t-31.5 199z" />
<glyph unicode="&#x455;" horiz-adv-x="899" d="M43 354h8q20 -83 54 -148.5t73.5 -106t86 -67.5t90 -37.5t87.5 -10.5q111 0 188 57.5t77 151.5q0 59 -35 97t-90.5 56.5t-123 31.5t-134.5 31t-122.5 46.5t-90.5 87.5t-35 145q0 132 97 205.5t243 73.5q67 0 151 -19.5t111 -19.5q38 0 57 37h8l45 -344h-8 q-21 89 -65.5 157t-98.5 105t-105 55t-95 18q-91 0 -158.5 -54t-67.5 -136q0 -54 28 -92t74 -56.5t105 -35t120 -26.5t120 -30.5t105 -48t74 -79t28 -122.5q0 -137 -108.5 -220t-293.5 -83q-60 0 -148.5 22.5t-129.5 22.5q-25 0 -45.5 -12.5t-26.5 -34.5h-10z" />
<glyph unicode="&#x456;" horiz-adv-x="589" d="M39 905v8q174 0 360 50v-828q0 -26 5.5 -44.5t22 -39.5t55 -32t96.5 -11v-8h-537v8q53 0 88 11t50.5 32t20.5 40t5 46v662q0 32 -4 48.5t-20.5 31.5t-50 20.5t-91.5 5.5zM174 1249q0 48 36 83.5t87 35.5q53 0 89 -35.5t36 -83.5q-2 -48 -37 -82t-88 -34q-51 0 -87 34.5 t-36 81.5z" />
<glyph unicode="&#x457;" horiz-adv-x="589" d="M39 905v8q174 0 360 50v-828q0 -26 5.5 -44.5t22 -39.5t55 -32t96.5 -11v-8h-537v8q53 0 88 11t50.5 32t20.5 40t5 46v662q0 32 -4 48.5t-20.5 31.5t-50 20.5t-91.5 5.5zM84 1237q0 41 28 69.5t68 28.5t69.5 -28.5t29.5 -69.5q0 -38 -29.5 -67t-69.5 -29 q-39 0 -67.5 28.5t-28.5 67.5zM358 1237q0 41 29 69.5t68 28.5q40 0 68 -28.5t28 -69.5q0 -39 -28.5 -67.5t-67.5 -28.5q-38 0 -67.5 29t-29.5 67z" />
<glyph unicode="&#x458;" horiz-adv-x="534" d="M-106 -254q0 44 29 73t71 29q41 0 68.5 -29t27.5 -73q0 -28 -15.5 -63t-15.5 -45q0 -14 9 -25.5t28 -11.5q64 0 102 91.5t38 272.5v834q0 32 -4 48.5t-20.5 31.5t-50 20.5t-91.5 5.5v8q174 0 360 50v-916q0 -117 -32 -209t-83.5 -144.5t-107.5 -79t-111 -26.5 q-40 0 -85 16.5t-81 54.5t-36 87zM207 1249q0 48 35.5 83.5t87.5 35.5t87.5 -35.5t35.5 -83.5t-35.5 -82t-87.5 -34t-87.5 34t-35.5 82z" />
<glyph unicode="&#x459;" horiz-adv-x="1579" d="M16 135q0 37 27.5 66.5t62.5 29.5q37 0 60.5 -28.5t23.5 -71.5q0 -7 -1 -23.5t-1 -23.5q0 -24 7.5 -40.5t21.5 -16.5q34 0 65.5 46t57.5 134.5t41.5 235t15.5 331.5q0 31 -6.5 55t-24.5 48.5t-56.5 38.5t-96.5 14v8h903v-8q-56 0 -91.5 -10t-50.5 -31t-19.5 -41.5 t-4.5 -54.5v-240q114 31 219 31q155 0 258 -78t103 -217q0 -141 -99 -215t-253 -74h-588v8q56 0 91.5 10t50.5 31t19.5 41.5t4.5 54.5v666q0 117 -62 117h-174q-30 0 -52.5 -14t-35 -37t-18.5 -49t-6 -54q0 -91 -4 -173.5t-13.5 -178t-29 -171t-47.5 -139.5t-72 -99.5 t-99 -35.5q-59 0 -93 43t-34 115zM950 145q0 -69 21 -102t92 -33h63q88 0 148.5 83t60.5 210q0 126 -73 194t-181 68q-63 0 -131 -22v-398z" />
<glyph unicode="&#x45a;" horiz-adv-x="1697" d="M47 0v8q56 0 91.5 10t50.5 31t19.5 41.5t4.5 54.5v648q0 34 -4.5 54.5t-19.5 41.5t-50.5 31t-91.5 10v8h518v-8q-45 0 -76 -8t-47 -18t-24 -31t-9 -36t-1 -44v-297h466v297q0 29 -1 44t-9 36t-24 31t-47 18t-76 8v8h518v-8q-56 0 -91.5 -10t-50.5 -31t-19.5 -41.5 t-4.5 -54.5v-240q114 31 219 31q155 0 258 -78t103 -217q0 -141 -99.5 -215t-253.5 -74h-587v8q56 0 91 10t50.5 31t19.5 41.5t4 54.5v340h-466v-340q0 -29 1 -44t9 -36t24 -31t47 -18t76 -8v-8h-518zM1069 145q0 -69 21 -102t92 -33h63q88 0 148.5 83t60.5 210 q0 126 -73 194t-181 68q-63 0 -131 -22v-398z" />
<glyph unicode="&#x45b;" horiz-adv-x="1277" d="M35 1452v8q177 0 360 49v-331h486v-13h-486v-481q42 123 146 202t235 79q70 0 123 -22.5t87 -61.5t56 -96.5t30.5 -121.5t8.5 -143v-385q0 -26 5.5 -44.5t22 -39.5t55 -32t96.5 -11v-8h-537v8q53 0 88 11t50.5 32t20.5 40t5 46v465q0 158 -47 245t-144 87 q-110 0 -205.5 -122.5t-95.5 -272.5v-404q0 -26 5.5 -44.5t21.5 -39.5t54.5 -32t96.5 -11v-8h-536v8q53 0 88 11t50.5 32t20.5 40t5 46v1028h-162v13h162v170q0 31 -4 47.5t-20.5 31t-50 20t-91.5 5.5z" />
<glyph unicode="&#x45c;" horiz-adv-x="1118" d="M47 0v8q56 0 91.5 10t50.5 31t19.5 41.5t4.5 54.5v648q0 34 -4.5 54.5t-19.5 41.5t-50.5 31t-91.5 10v8h518v-8q-45 0 -76 -8t-47 -18t-24 -31t-9 -36t-1 -44v-297h94l289 307q30 33 30 63q0 37 -38.5 50.5t-116.5 13.5v8h415v-8q-93 -1 -157.5 -35t-120.5 -92l-289 -307 q80 -2 145 -30.5t107 -72t75 -96t55.5 -104.5t41 -95t38.5 -69.5t42 -26.5q43 0 78 55l8 -6q-26 -41 -57.5 -56t-75.5 -15q-68 0 -120 28t-84 72.5t-58 98t-49 107.5t-49.5 98.5t-67 72.5t-94.5 28h-41v-335q0 -25 1 -37.5t5 -32.5t14 -30t27 -21.5t44.5 -16t65.5 -4.5v-8 h-518zM399 1116q43 68 79 135.5t51.5 99.5t34 60t37.5 36.5t50 8.5q26 0 47 -17t21 -42q0 -30 -29.5 -61t-70.5 -57t-103.5 -73t-109.5 -96z" />
<glyph unicode="&#x45e;" horiz-adv-x="1130" d="M10 930v8h490v-8q-125 0 -125 -68q0 -22 33 -90l286 -586l246 631q8 24 8 37q0 74 -137 76v8h303v-8q-114 0 -153 -96l-340 -869q-72 -181 -106 -240q-66 -112 -159 -132q-24 -5 -51 -5q-92 0 -141 59t-49 134q0 40 27 72t61 32q38 0 58.5 -19t24 -47.5t6 -61.5 t5.5 -61.5t21.5 -47.5t54.5 -19q24 0 45 9t40 30.5t33 40.5t31 56.5t27 61t28 70t27 68.5l-414 807q-4 8 -19.5 39.5t-20.5 40t-21 29.5t-29.5 28t-37 14t-52.5 7zM328 1286q0 38 27.5 72.5t62.5 34.5t59.5 -28t24.5 -65q0 -17 -9.5 -52t-9.5 -54q0 -18 5 -35.5t20.5 -40.5 t53 -37t93.5 -14q47 0 81 10t51.5 24t27.5 33.5t12 32.5t2 27q0 19 -9 54t-9 52q0 33 25.5 63t58.5 30q37 0 63.5 -32.5t26.5 -74.5q0 -109 -97 -169t-233 -60q-86 0 -158.5 24.5t-120.5 77.5t-48 127z" />
<glyph unicode="&#x45f;" horiz-adv-x="1300" d="M47 0v8q56 0 91.5 10t50.5 31t19.5 41.5t4.5 54.5v648q0 34 -4.5 54.5t-19.5 41.5t-50.5 31t-91.5 10v8h518v-8q-45 0 -76 -8t-47 -18t-24 -31t-9 -36t-1 -44v-643q0 -37 3 -55.5t16.5 -41.5t47.5 -33t90 -10h152q56 0 90 10t47.5 33t16.5 41.5t3 55.5v643q0 29 -1 44 t-9 36t-24 31t-47 18t-76 8v8h518v-8q-56 0 -91.5 -10t-50.5 -31t-19.5 -41.5t-4.5 -54.5v-648q0 -34 4.5 -54.5t19.5 -41.5t50.5 -31t91.5 -10v-8h-580q0 -56 16.5 -103.5t33 -78t16.5 -45.5q0 -29 -23 -47.5t-49 -18.5q-25 0 -48 17.5t-23 48.5q0 15 16 45t32.5 77.5 t16.5 104.5h-596z" />
<glyph unicode="&#x490;" horiz-adv-x="1236" d="M66 0v8q66 0 106.5 8.5t59 28.5t23.5 40.5t5 55.5v1207q0 28 -2.5 44t-13 33t-31.5 25.5t-57 14t-90 5.5v9h624q75 0 124 1.5t99 8t80 16.5t61 30t49.5 45t39 64.5t35 86t30.5 112.5h11l-41 -407h-11q-18 30 -116 30h-480q-36 0 -56.5 -26.5t-20.5 -104.5v-1194 q0 -52 15.5 -78.5t63 -40.5t140.5 -14v-8h-647z" />
<glyph unicode="&#x491;" horiz-adv-x="921" d="M47 0v8q56 0 91.5 10t50.5 31t19.5 41.5t4.5 54.5v648q0 34 -4.5 54.5t-19.5 41.5t-50.5 31t-91.5 10v8h537q54 0 88.5 3.5t74.5 18t64 41.5t44.5 76.5t29.5 120.5h8l-31 -270h-383q-42 0 -56.5 -31t-14.5 -104v-648q0 -28 2.5 -44.5t12.5 -36t29 -30t54 -17.5t86 -7v-10 h-545z" />
<glyph unicode="&#x2000;" horiz-adv-x="998" />
<glyph unicode="&#x2001;" horiz-adv-x="1997" />
<glyph unicode="&#x2002;" horiz-adv-x="998" />
<glyph unicode="&#x2003;" horiz-adv-x="1997" />
<glyph unicode="&#x2004;" horiz-adv-x="665" />
<glyph unicode="&#x2005;" horiz-adv-x="499" />
<glyph unicode="&#x2006;" horiz-adv-x="332" />
<glyph unicode="&#x2007;" horiz-adv-x="332" />
<glyph unicode="&#x2008;" horiz-adv-x="249" />
<glyph unicode="&#x2009;" horiz-adv-x="399" />
<glyph unicode="&#x200a;" horiz-adv-x="110" />
<glyph unicode="&#x2010;" horiz-adv-x="897" d="M133 485l8 93q360 14 629 40l-8 -92q-344 -13 -629 -41z" />
<glyph unicode="&#x2011;" horiz-adv-x="897" d="M133 485l8 93q360 14 629 40l-8 -92q-344 -13 -629 -41z" />
<glyph unicode="&#x2012;" horiz-adv-x="897" d="M133 485l8 93q360 14 629 40l-8 -92q-344 -13 -629 -41z" />
<glyph unicode="&#x2013;" horiz-adv-x="1306" d="M111 518v51h1081v-51h-1081z" />
<glyph unicode="&#x2014;" horiz-adv-x="1779" d="M0 518v51h1780v-51h-1780z" />
<glyph unicode="&#x2018;" horiz-adv-x="475" d="M111 1180q0 102 61 191t168 134l4 -8q-58 -34 -98.5 -100.5t-40.5 -128.5q0 -24 6 -51q20 8 33 8q47 0 82.5 -33t35.5 -84q0 -48 -34.5 -83.5t-83.5 -35.5q-66 0 -99.5 57t-33.5 134z" />
<glyph unicode="&#x2019;" horiz-adv-x="475" d="M111 1372q0 46 34.5 82.5t81.5 36.5q66 0 100.5 -57t34.5 -134q0 -102 -61 -191t-168 -134l-4 8q58 34 98.5 100.5t40.5 128.5q0 25 -6 52q-23 -9 -35 -9q-47 0 -81.5 33t-34.5 84z" />
<glyph unicode="&#x201a;" horiz-adv-x="485" d="M111 96q0 47 35 82t81 35q66 0 100.5 -56t34.5 -134q0 -100 -61.5 -189.5t-167.5 -132.5l-4 6q58 34 98.5 101t40.5 129q0 23 -6 53q-20 -8 -35 -8q-48 0 -82 31.5t-34 82.5z" />
<glyph unicode="&#x201c;" horiz-adv-x="819" d="M111 1180q0 102 61 191t168 134l4 -8q-58 -34 -98.5 -100.5t-40.5 -128.5q0 -24 6 -51q20 8 33 8q47 0 82.5 -33t35.5 -84q0 -48 -34.5 -83.5t-83.5 -35.5q-66 0 -99.5 57t-33.5 134zM455 1180q0 102 61 191t168 134l4 -8q-58 -34 -98.5 -100.5t-40.5 -128.5q0 -24 6 -51 q20 8 35 8q47 0 82 -33t35 -84q0 -46 -35 -82.5t-82 -36.5q-66 0 -100.5 57t-34.5 134z" />
<glyph unicode="&#x201d;" horiz-adv-x="819" d="M111 1372q0 46 34.5 82.5t81.5 36.5q66 0 100.5 -57t34.5 -134q0 -102 -61 -191t-168 -134l-4 8q58 34 98.5 100.5t40.5 128.5q0 25 -6 52q-23 -9 -35 -9q-47 0 -81.5 33t-34.5 84zM455 1372q0 47 34.5 83t83.5 36q66 0 100 -57t34 -134q0 -102 -61.5 -191t-168.5 -134 l-4 8q58 34 98.5 100.5t40.5 128.5q0 25 -6 52q-23 -9 -33 -9q-49 0 -83.5 32.5t-34.5 84.5z" />
<glyph unicode="&#x201e;" horiz-adv-x="819" d="M111 96q0 47 35 82t81 35q66 0 100.5 -56t34.5 -134q0 -100 -61.5 -189.5t-167.5 -132.5l-4 6q58 34 98.5 101t40.5 129q0 23 -6 53q-20 -8 -35 -8q-48 0 -82 31.5t-34 82.5zM455 96q0 47 35.5 82t82.5 35q66 0 100 -56t34 -134q0 -99 -62 -189t-168 -133l-4 6 q58 34 98.5 101t40.5 129q0 23 -6 53q-20 -8 -33 -8q-49 0 -83.5 31t-34.5 83z" />
<glyph unicode="&#x2022;" horiz-adv-x="628" d="M123 647q0 84 53.5 138.5t136.5 54.5q82 0 137.5 -55t55.5 -138q0 -85 -55 -140.5t-138 -55.5t-136.5 55t-53.5 141z" />
<glyph unicode="&#x2026;" horiz-adv-x="1415" d="M123 96q0 48 34 82.5t83 34.5q47 0 80.5 -34.5t33.5 -82.5q0 -49 -33 -80.5t-81 -31.5q-50 0 -83.5 31.5t-33.5 80.5zM590 96q0 47 35 82t82 35t81.5 -35t34.5 -82q0 -49 -34 -80.5t-82 -31.5t-82.5 31.5t-34.5 80.5zM1057 96q0 48 35 82.5t84 34.5q47 0 80.5 -34.5 t33.5 -82.5q0 -49 -33 -80.5t-81 -31.5q-50 0 -84.5 31.5t-34.5 80.5z" />
<glyph unicode="&#x202f;" horiz-adv-x="399" />
<glyph unicode="&#x2039;" horiz-adv-x="649" d="M92 510q223 204 455 457h20q-137 -222 -295 -457q157 -231 295 -457h-20q-215 237 -455 457z" />
<glyph unicode="&#x203a;" horiz-adv-x="649" d="M82 53q156 255 293 457q-132 197 -293 457h20q232 -253 455 -457q-240 -220 -455 -457h-20z" />
<glyph unicode="&#x205f;" horiz-adv-x="499" />
<glyph unicode="&#x20ac;" d="M10 637v20h113q-2 23 -2 72q0 47 2 72h-113v20h113q8 98 31 191.5t67 184t104.5 158t149.5 109t195 41.5q66 0 175 -28.5t150 -28.5q18 0 32.5 2.5t24.5 7t17 9t12.5 12t7.5 11.5t5 11t4 8h8l43 -573h-21q-20 119 -57.5 215.5t-82 158.5t-97.5 103.5t-102 58.5t-97 17 q-71 0 -128 -41t-93 -106.5t-60.5 -155.5t-36 -179t-14.5 -186h590l-10 -20h-582v-39q0 -70 2 -105h510l-10 -20h-498q5 -91 19 -179t40.5 -175.5t63 -152.5t90 -105.5t117.5 -40.5q127 0 229 68t158 183.5t56 256.5q0 21 9 32t21 11q14 0 22.5 -10.5t8.5 -24.5 q-3 -146 -68 -267.5t-180 -192.5t-256 -71q-111 0 -202 36t-154.5 97.5t-109.5 147.5t-70.5 182t-32.5 205h-113z" />
<glyph unicode="&#x2122;" horiz-adv-x="2314" d="M86 1169l41 310h772l41 -310h-10q-57 171 -103.5 234t-107.5 63h-76q-27 0 -36 -11.5t-9 -35.5v-628q0 -29 4 -47.5t17.5 -37t44 -27.5t79.5 -9v-11h-469v11q49 0 81 9t47 27t20.5 37.5t5.5 47.5v628q0 24 -10 35.5t-37 11.5h-76q-59 0 -106 -63t-105 -234h-8zM1065 659 v9q92 0 122 30.5t30 89.5v560q0 59 -30 89.5t-122 30.5v11h332l235 -600l258 600h312v-11q-49 0 -79.5 -8.5t-44.5 -27t-18 -37t-4 -47.5v-560q0 -29 4 -47.5t18 -37t44.5 -27t79.5 -8.5v-9h-451v9q39 0 66 7t41 16t21 27t8 31.5t1 38.5v633h-8l-330 -762h-8l-305 762h-8 v-633q0 -28 5.5 -47t20.5 -37t47.5 -27t81.5 -9v-9h-319z" />
<glyph unicode="&#x25fc;" horiz-adv-x="942" d="M0 0v942h942v-942h-942z" />
</font>
</defs>
</svg>
