<?xml version="1.0" standalone="no"?>
<!DOCTYPE svg PUBLIC "-//W3C//DTD SVG 1.1//EN" "http://www.w3.org/Graphics/SVG/1.1/DTD/svg11.dtd" >
<svg xmlns="http://www.w3.org/2000/svg" xmlns:xlink="http://www.w3.org/1999/xlink" version="1.1">
<metadata></metadata>
<defs>
<font id="vogue_highline_sansthin" horiz-adv-x="1310" >
<font-face units-per-em="2048" ascent="1575" descent="-473" />
<missing-glyph horiz-adv-x="512" />
<glyph horiz-adv-x="0" />
<glyph horiz-adv-x="682" />
<glyph unicode=" "  horiz-adv-x="512" />
<glyph unicode="&#x09;" horiz-adv-x="512" />
<glyph unicode="&#xa0;" horiz-adv-x="512" />
<glyph unicode="!" horiz-adv-x="276" d="M92 45q0 19 13 33t32 14t33 -14t14 -33t-14 -32t-33 -13t-32 13t-13 32zM137 352v1082h10v-1082h-10z" />
<glyph unicode="&#x22;" horiz-adv-x="602" d="M123 913l61 521h29l-80 -521h-10zM389 913l62 521h28l-80 -521h-10z" />
<glyph unicode="#" horiz-adv-x="1347" d="M102 383v10h250l113 656h-281v10h283l63 375h11l-64 -375h512l64 375h10l-64 -375h246v-10h-248l-112 -656h278v-10h-280l-66 -383h-10l65 383h-512l-65 -383h-10l65 383h-248zM362 393h512l113 656h-512z" />
<glyph unicode="$" horiz-adv-x="1099" d="M72 172l8 8q99 -101 210 -150t263 -50v763q-43 11 -67 18t-63.5 19t-63 21.5t-57 24t-53.5 29t-44.5 33.5t-39 40.5t-27.5 47.5t-19 56.5t-6 65.5q0 164 126.5 264t313.5 102v174h10v-174q145 -1 247.5 -50.5t207.5 -151.5l-8 -9q-105 104 -206 152t-241 49v-700 q52 -14 77.5 -21t74 -22t74 -26t64.5 -30t60.5 -37.5t47.5 -45t39 -55.5t22.5 -66.5t9.5 -79.5q0 -181 -128 -290.5t-341 -111.5v-174h-10v174q-160 1 -269.5 51t-211.5 152zM123 1098q0 -47 13.5 -87t32.5 -68.5t55.5 -55t66.5 -42.5t82 -34t86 -27.5t94 -25.5v696 q-180 -2 -305 -99.5t-125 -256.5zM563 -20q211 1 335 108t124 283q0 72 -28.5 129t-65 91.5t-108.5 66t-119.5 46t-137.5 37.5v-761z" />
<glyph unicode="%" horiz-adv-x="1413" d="M82 1163q0 120 71 195.5t191 75.5t190 -75.5t70 -195.5t-70 -195t-190 -75t-191 75t-71 195zM92 1163q0 -114 68.5 -187t183.5 -73t182.5 72.5t67.5 187.5t-67.5 187.5t-182.5 72.5t-183.5 -73t-68.5 -187zM145 0l1123 1434h12l-1122 -1434h-13zM811 270q0 120 70 195.5 t190 75.5t190 -75.5t70 -195.5t-70 -195t-190 -75t-190 75t-70 195zM821 270q0 -115 67.5 -187.5t182.5 -72.5t182.5 72.5t67.5 187.5t-67.5 187.5t-182.5 72.5t-182.5 -72.5t-67.5 -187.5z" />
<glyph unicode="&#x26;" horiz-adv-x="1275" d="M72 319q0 154 163 269q58 41 193 110q-266 237 -266 428q0 141 110 239.5t277 98.5q164 0 255 -91t91 -234q0 -47 -17 -92.5t-41.5 -81.5t-65.5 -72.5t-75 -61.5t-86 -54t-82.5 -44.5t-78.5 -38.5l516 -456q119 147 258 448h12q-46 -97 -74.5 -153.5t-82 -146.5 t-105.5 -155l262 -231h-16l-254 223q-205 -254 -461 -254q-203 0 -317.5 103t-114.5 247zM82 319q0 -142 117.5 -240.5t304.5 -98.5q248 0 452 249l-520 461q-40 -21 -51.5 -27t-51.5 -28t-55.5 -32.5t-49 -34.5t-48.5 -40.5t-38 -43t-33 -50t-18.5 -54t-8.5 -61.5z M172 1126q0 -180 266 -421q46 21 80 38t84 44.5t86 53t75.5 60.5t64 70t41 79t16.5 89q0 143 -93.5 229t-242.5 86q-68 0 -134 -22t-121 -62.5t-88.5 -104t-33.5 -139.5z" />
<glyph unicode="'" horiz-adv-x="335" d="M123 913l61 521h29l-80 -521h-10z" />
<glyph unicode="(" horiz-adv-x="751" d="M113 608q0 287 148.5 513.5t424.5 383.5l4 -8q-275 -153 -421 -389.5t-146 -499.5t146 -499.5t421 -389.5l-4 -8q-276 157 -424.5 383.5t-148.5 513.5z" />
<glyph unicode=")" horiz-adv-x="751" d="M61 -281q275 153 421.5 389.5t146.5 499.5t-146.5 499.5t-421.5 389.5l5 8q276 -157 424.5 -383.5t148.5 -513.5t-148.5 -513.5t-424.5 -383.5z" />
<glyph unicode="*" horiz-adv-x="923" d="M139 983l297 152l-297 151l21 33l278 -180l-16 329h37l-17 -329l279 180l20 -33l-297 -151l297 -152l-20 -33l-279 180l17 -329h-37l16 329l-278 -180z" />
<glyph unicode="+" d="M139 582v10h510v510h10v-510h512v-10h-512v-510h-10v510h-510z" />
<glyph unicode="," horiz-adv-x="518" d="M84 -303l156 475h47l-195 -475h-8z" />
<glyph unicode="-" horiz-adv-x="835" d="M143 614v11h549v-11h-549z" />
<glyph unicode="." horiz-adv-x="450" d="M178 45q0 19 13 33t32 14t33 -14t14 -33t-14 -32t-33 -13t-32 13t-13 32z" />
<glyph unicode="/" horiz-adv-x="929" d="M0 -205l918 1741h12l-918 -1741h-12z" />
<glyph unicode="0" horiz-adv-x="1099" d="M123 717q0 173 24 306t63.5 215t96 134t115 72t127.5 20t127.5 -20t115 -72t96 -134t63.5 -215t24 -306t-24 -306t-63.5 -215.5t-96 -134.5t-115 -72t-127.5 -20t-127.5 20t-115 72t-96 134.5t-63.5 215.5t-24 306zM133 717q0 -126 13 -231t35.5 -180t54.5 -133t68 -94 t78.5 -58.5t82.5 -31.5t84 -9t84 9t82.5 31.5t78.5 58.5t68 94t54.5 133t35.5 180t13 231t-13 231t-35.5 180t-54.5 133t-68 94t-78.5 58.5t-82.5 31.5t-84 9t-84 -9t-82.5 -31.5t-78.5 -58.5t-68 -94t-54.5 -133t-35.5 -180t-13 -231z" />
<glyph unicode="1" horiz-adv-x="978" d="M61 1206l439 248h8v-1444h410v-10h-830v10h410v1430l-430 -246z" />
<glyph unicode="2" horiz-adv-x="1038" d="M92 0v8q100 114 212 237t182.5 198.5t145 159t117.5 139.5t79.5 117t51.5 115t15 111q0 175 -102 272t-271 97q-125 0 -220.5 -57.5t-184.5 -186.5l-11 7q34 45 61 76.5t66.5 66.5t79.5 55.5t94 34.5t115 14q180 0 281.5 -103t101.5 -276q0 -68 -24.5 -136t-62.5 -129 t-115.5 -152t-150.5 -169.5t-203 -220.5t-240 -268h813v-10h-830z" />
<glyph unicode="3" horiz-adv-x="1024" d="M123 227l12 6q43 -112 142.5 -182.5t222.5 -70.5q162 0 276.5 116t114.5 279t-114 278t-277 115h-144v10h144q140 0 238 101.5t98 238.5q0 139 -99.5 237.5t-236.5 98.5q-115 0 -206 -70t-120 -178l-10 2q29 113 122.5 184.5t213.5 71.5q142 0 244 -101t102 -245 q0 -126 -83 -224t-204 -120q147 -22 244.5 -135t97.5 -264q0 -168 -117 -287t-284 -119q-127 0 -229.5 71t-147.5 187z" />
<glyph unicode="4" horiz-adv-x="1099" d="M53 410l768 1044v-1034h260v-10h-260v-410h-10v410h-758zM74 420h737v999z" />
<glyph unicode="5" horiz-adv-x="1099" d="M141 199l9 6q58 -102 161.5 -165t223.5 -63q183 0 312.5 128t129.5 311q0 184 -129.5 313t-312.5 129q-100 0 -187.5 -41.5t-150.5 -114.5l-9 5l211 727h564v-11h-555l-207 -704q63 69 150 108t184 39q186 0 318 -131.5t132 -318.5q0 -186 -132 -316.5t-318 -130.5 q-124 0 -229 62.5t-165 167.5z" />
<glyph unicode="6" horiz-adv-x="1075" d="M82 549q0 225 79.5 410.5t239.5 318t385 186.5v-8q-334 -80 -515 -324t-181 -583q0 -68 2 -103q12 177 142.5 298.5t308.5 121.5q186 0 318 -131.5t132 -318.5q0 -186 -132 -316.5t-318 -130.5q-160 0 -284.5 99t-156.5 251q-20 87 -20 230zM100 416q0 -121 59.5 -222 t161.5 -159t222 -58q183 0 312.5 128t129.5 311q0 184 -129.5 313t-312.5 129t-313 -129t-130 -313z" />
<glyph unicode="7" horiz-adv-x="1034" d="M61 1423v11h891v-9l-665 -1425h-13l664 1423h-877z" />
<glyph unicode="8" horiz-adv-x="1052" d="M123 375q0 151 98.5 264t245.5 135q-122 22 -204.5 119.5t-82.5 224.5q0 144 102.5 245t245.5 101q142 0 244 -101t102 -245q0 -126 -82.5 -224t-203.5 -120q147 -22 244.5 -135t97.5 -264q0 -168 -117.5 -287t-284.5 -119t-286 119.5t-119 286.5zM133 375 q0 -163 116 -279t279 -116q162 0 277 116t115 279t-114.5 278t-277.5 115q-167 0 -281 -116.5t-114 -276.5zM190 1118q0 -137 98 -238.5t238 -101.5q141 0 239.5 101.5t98.5 238.5q0 139 -99.5 237.5t-236.5 98.5q-139 0 -238.5 -98.5t-99.5 -237.5z" />
<glyph unicode="9" horiz-adv-x="1075" d="M82 1018q0 186 132 316t318 130q162 0 287 -99t154 -251q20 -103 20 -229q0 -342 -183.5 -588t-520.5 -328v8q223 53 381.5 185t236.5 316t78 407q0 30 -4 96q-14 -175 -143 -294.5t-306 -119.5q-186 0 -318 132t-132 319zM90 1018q0 -184 129.5 -313.5t312.5 -129.5 t313 129.5t130 313.5q0 183 -130 310.5t-313 127.5t-312.5 -127.5t-129.5 -310.5z" />
<glyph unicode=":" horiz-adv-x="518" d="M178 45q0 19 13 33t32 14t33 -14t14 -33t-14 -32t-33 -13t-32 13t-13 32zM178 977q0 19 13 33t32 14t33 -14t14 -33t-14 -32t-33 -13t-32 13t-13 32z" />
<glyph unicode=";" horiz-adv-x="518" d="M84 -303l156 475h47l-195 -475h-8zM195 977q0 19 13 33t32 14t33 -14t14 -33t-14 -32t-33 -13t-32 13t-13 32z" />
<glyph unicode="&#x3c;" d="M141 580l1020 436v-10l-987 -426l987 -430v-13z" />
<glyph unicode="=" d="M139 305v10h1030v-10h-1030zM139 860v10h1030v-10h-1030z" />
<glyph unicode="&#x3e;" d="M141 137v13l987 430l-987 426v10l1020 -436z" />
<glyph unicode="?" horiz-adv-x="970" d="M72 1186q51 127 156 202.5t266 75.5q182 0 282.5 -97.5t100.5 -268.5q0 -62 -24.5 -111.5t-63 -83t-85.5 -65.5t-94.5 -68.5t-86 -81.5t-63 -115.5t-24.5 -160.5v-60h-8v60q0 93 24 166t63 118t85.5 82t93 67.5t85.5 63t63 80.5t24 109q0 174 -102 265t-270 91 q-144 0 -253.5 -70.5t-158.5 -201.5zM387 45q0 19 13 33t32 14t33 -14t14 -33t-14 -32t-33 -13t-32 13t-13 32z" />
<glyph unicode="@" horiz-adv-x="1947" d="M123 500q0 174 60 327.5t167.5 266.5t266 179t344.5 66q147 0 276 -41.5t222 -113t160.5 -164.5t100.5 -197.5t33 -210.5q0 -95 -17.5 -183.5t-55.5 -168t-92.5 -139t-133.5 -94.5t-174 -35v137q-140 -143 -348 -143q-130 0 -236.5 66t-165.5 177.5t-59 243.5 q0 133 59 245t165.5 178.5t236.5 66.5q101 0 190.5 -39.5t157.5 -110.5v121h10v-928q92 0 168 34t128 92t88 136t52.5 164.5t16.5 179.5q0 105 -33 208t-99.5 195t-158.5 162t-219 111t-272 41q-184 0 -340.5 -65t-262.5 -177t-165.5 -264t-59.5 -323q0 -168 63.5 -320.5 t171.5 -263.5t258.5 -177.5t317.5 -68.5v-10q-228 0 -417 112.5t-296.5 305t-107.5 422.5zM481 473q0 -129 58 -238t162 -174t231 -65q190 0 348 151v652q-74 72 -163.5 112.5t-184.5 40.5q-127 0 -231 -65t-162 -174.5t-58 -239.5z" />
<glyph unicode="A" horiz-adv-x="1331" d="M31 0l635 1464l634 -1464h-12l-182 418h-883l-180 -418h-12zM227 428h875l-436 1012z" />
<glyph unicode="B" horiz-adv-x="1183" d="M123 0v1434h493q161 0 269 -100t108 -251q0 -124 -64.5 -215.5t-185.5 -122.5q174 -29 266.5 -131.5t92.5 -228.5q0 -167 -124 -276t-302 -109h-553zM133 10h543q175 0 295.5 106t120.5 269q0 147 -120 250.5t-296 103.5h-543v-729zM133 750h543q134 0 220.5 98.5 t86.5 234.5q0 146 -105 243t-262 97h-483v-673z" />
<glyph unicode="C" horiz-adv-x="1492" d="M72 717q0 153 59 291t159 238t238 159t291 59q186 0 347 -85t264 -232l-9 -6q-102 144 -260 228.5t-342 84.5q-150 0 -286.5 -58t-235.5 -157t-157 -235.5t-58 -286.5t58 -286.5t157 -235.5t235.5 -157t286.5 -58q184 0 343 85t261 230l9 -6q-103 -147 -265 -233.5 t-348 -86.5q-153 0 -291 59t-238 159t-159 238.5t-59 291.5z" />
<glyph unicode="D" horiz-adv-x="1304" d="M123 0v1434h403q195 0 355.5 -96.5t251 -261t90.5 -359.5t-90.5 -359.5t-251 -261t-355.5 -96.5h-403zM133 10h393q96 0 186.5 25.5t165.5 71.5t137.5 111t105.5 142.5t67 169t24 187.5q0 192 -89 354t-247 257t-350 95h-393v-1413z" />
<glyph unicode="E" horiz-adv-x="1107" d="M123 0v1434h913v-11h-903v-673h727v-11h-727v-729h924v-10h-934z" />
<glyph unicode="F" horiz-adv-x="1056" d="M123 0v1434h913v-11h-903v-673h727v-11h-727v-739h-10z" />
<glyph unicode="G" horiz-adv-x="1513" d="M72 717q0 153 59 291t159 238t238 159t291 59q186 0 347 -85t264 -232l-9 -6q-102 144 -260 228.5t-342 84.5q-150 0 -286.5 -58t-235.5 -157t-157 -235.5t-58 -286.5t58 -286.5t157 -235.5t235.5 -157t286.5 -58q183 0 341.5 83.5t260.5 227.5v387h-643v10h654v-399 q-103 -147 -265 -233.5t-348 -86.5q-153 0 -291 59t-238 159t-159 238.5t-59 291.5z" />
<glyph unicode="H" horiz-adv-x="1294" d="M123 0v1434h10v-682h1028v682h10v-1434h-10v741h-1028v-741h-10z" />
<glyph unicode="I" horiz-adv-x="256" d="M123 0v1434h10v-1434h-10z" />
<glyph unicode="J" horiz-adv-x="743" d="M20 90l9 8q64 -63 123.5 -90.5t130.5 -27.5q168 0 253 95t85 271v1088h10v-1088q0 -182 -87 -279.5t-261 -97.5q-145 0 -263 121z" />
<glyph unicode="K" horiz-adv-x="1079" d="M123 0v1434h10v-1434h-10zM225 745l766 689h15l-766 -689l819 -745h-15z" />
<glyph unicode="L" horiz-adv-x="1077" d="M123 0v1434h10v-1424h924v-10h-934z" />
<glyph unicode="M" horiz-adv-x="1503" d="M123 0v1464l629 -985l628 985v-1464h-10v1430l-618 -969l-619 969v-1430h-10z" />
<glyph unicode="N" horiz-adv-x="1294" d="M123 0v1464l1038 -1464v1434h10v-1467l-1038 1465v-1432h-10z" />
<glyph unicode="O" horiz-adv-x="1617" d="M82 717q0 205 94.5 376t262 271t370.5 100q202 0 369.5 -100t262.5 -271.5t95 -375.5q0 -153 -56 -291t-152.5 -238.5t-231.5 -159.5t-287 -59t-287.5 59t-231.5 159.5t-152 238.5t-56 291zM92 717q0 -202 93.5 -371t258.5 -267.5t365 -98.5t365 98.5t258.5 267.5 t93.5 371t-93.5 371t-258.5 267.5t-365 98.5t-365 -98.5t-258.5 -267.5t-93.5 -371z" />
<glyph unicode="P" horiz-adv-x="1155" d="M123 0v1434h534q176 0 301 -115.5t125 -284.5q0 -168 -124.5 -280.5t-301.5 -112.5h-524v-641h-10zM133 651h524q174 0 295 109.5t121 273.5q0 165 -121.5 277t-294.5 112h-524v-772z" />
<glyph unicode="Q" horiz-adv-x="1630" d="M94 717q0 205 94.5 376t262 271t370.5 100q202 0 369.5 -100t262.5 -271.5t95 -375.5q0 -148 -52 -281.5t-146 -236.5l206 -205l-8 -10l-207 206q-100 -105 -234 -163t-286 -58t-287.5 59t-231.5 159.5t-152 238.5t-56 291zM104 717q0 -202 93.5 -371t258.5 -267.5 t365 -98.5q151 0 283 58t229 161l-221 223l6 6l223 -221q94 100 145.5 231.5t51.5 278.5q0 202 -93.5 371t-258.5 267.5t-365 98.5t-365 -98.5t-258.5 -267.5t-93.5 -371z" />
<glyph unicode="R" horiz-adv-x="1222" d="M123 0v1434h534q176 0 301 -115.5t125 -284.5q0 -168 -124.5 -280.5t-301.5 -112.5l514 -641h-14l-514 641h-510v-641h-10zM133 651h524q174 0 296 109.5t122 273.5t-122.5 276.5t-295.5 112.5h-524v-772z" />
<glyph unicode="S" horiz-adv-x="1148" d="M72 172l8 8q100 -100 219.5 -150t275.5 -50q213 0 352.5 117.5t139.5 293.5q0 69 -26.5 122.5t-72.5 87t-107 60t-129.5 42t-141.5 34t-141.5 34.5t-129.5 44t-107 63.5t-72.5 91.5t-26.5 128q0 166 125 266t313 100q163 0 275 -49.5t216 -152.5l-8 -9 q-104 104 -214.5 152.5t-268.5 48.5q-181 0 -304.5 -97.5t-123.5 -258.5q0 -78 32.5 -136t88 -93.5t127 -61.5t150.5 -44.5t158 -36.5t150.5 -44t127 -61.5t88 -93.5t32.5 -136q0 -181 -144 -301.5t-358 -120.5q-164 0 -282 51t-221 152z" />
<glyph unicode="T" horiz-adv-x="1173" d="M20 1423v11h1133v-11h-561v-1423h-10v1423h-562z" />
<glyph unicode="U" horiz-adv-x="1273" d="M113 485v949h10v-949q0 -220 140.5 -362.5t373.5 -142.5t373.5 142.5t140.5 362.5v949h10v-949q0 -223 -141.5 -369.5t-382.5 -146.5t-382.5 146.5t-141.5 369.5z" />
<glyph unicode="V" d="M20 1434h13l622 -1440l623 1440h12l-635 -1465z" />
<glyph unicode="W" horiz-adv-x="1781" d="M10 1434h13l430 -1420l438 1450l438 -1450l430 1420h13l-443 -1465l-438 1456l-438 -1456z" />
<glyph unicode="X" horiz-adv-x="1163" d="M41 0l534 731l-514 703h13l508 -695l508 695h12l-514 -703l534 -731h-12l-528 723l-529 -723h-12z" />
<glyph unicode="Y" horiz-adv-x="1136" d="M10 1434h13l544 -897l547 897h12l-553 -910v-524h-10v524z" />
<glyph unicode="Z" horiz-adv-x="1122" d="M41 0l1010 1423h-981v11h1001l-1010 -1424h1020v-10h-1040z" />
<glyph unicode="[" horiz-adv-x="559" d="M184 -330v1856h355v-10h-344v-1835h344v-11h-355z" />
<glyph unicode="\" horiz-adv-x="929" d="M0 1536h12l918 -1741h-12z" />
<glyph unicode="]" horiz-adv-x="559" d="M20 -319h345v1835h-345v10h355v-1856h-355v11z" />
<glyph unicode="^" horiz-adv-x="892" d="M102 1010l344 454l345 -454h-13l-332 436l-331 -436h-13z" />
<glyph unicode="_" horiz-adv-x="1228" d="M-4 -317h1237v-11h-1237v11z" />
<glyph unicode="`" horiz-adv-x="495" d="M102 1491h54l237 -272h-8z" />
<glyph unicode="a" horiz-adv-x="1034" d="M92 260q0 55 15.5 100.5t38 79t66 59t80.5 42.5t102 28.5t110.5 17.5t125 9t127 3.5t134.5 0.5v102q0 174 -87 258t-269 84q-117 0 -210 -39t-178 -124l-8 8q171 166 396 166q74 0 132.5 -14t96 -35t65 -54t41 -62t21 -68.5t9 -63.5t1.5 -56v-702h-10v334 q-105 -189 -215 -277t-244 -88q-157 0 -248.5 79.5t-91.5 211.5zM102 260q0 -133 92 -206.5t238 -73.5q133 0 238 86.5t221 285.5v238q-94 0 -145 -1t-137.5 -4.5t-136.5 -12.5t-117 -24t-105.5 -39.5t-76.5 -58.5t-54.5 -82t-16.5 -108z" />
<glyph unicode="b" horiz-adv-x="1185" d="M102 0v1454h11v-690q69 131 197.5 211t281.5 80q147 0 267.5 -73t187.5 -197.5t67 -272.5t-67 -272.5t-187.5 -197.5t-267.5 -73q-153 0 -282 78t-197 209v-256h-11zM113 281q66 -136 194.5 -218.5t284.5 -82.5q145 0 263 71t184.5 193t66.5 268t-66.5 268t-184.5 193 t-263 71q-156 0 -284.5 -82.5t-194.5 -218.5v-462z" />
<glyph unicode="c" horiz-adv-x="1140" d="M72 512q0 148 70 272.5t192.5 197.5t269.5 73q136 0 250 -62.5t188 -171.5l-8 -6q-74 106 -185.5 167.5t-244.5 61.5q-144 0 -264 -71t-189 -193.5t-69 -267.5t69 -267.5t189 -193.5t264 -71q133 0 244.5 61.5t185.5 167.5l8 -6q-74 -109 -188 -171.5t-250 -62.5 q-147 0 -269.5 73t-192.5 197.5t-70 272.5z" />
<glyph unicode="d" horiz-adv-x="1247" d="M72 512q0 148 67 272.5t187.5 197.5t267.5 73q152 0 280.5 -79.5t198.5 -211.5v690h10v-1454h-10v256q-70 -131 -198 -209t-281 -78q-147 0 -267.5 73t-187.5 197.5t-67 272.5zM80 512q0 -146 66.5 -268t184.5 -193t263 -71q155 0 283.5 82.5t195.5 218.5v462 q-67 136 -195.5 218.5t-283.5 82.5q-145 0 -263 -71t-184.5 -193t-66.5 -268z" />
<glyph unicode="e" horiz-adv-x="1150" d="M72 512q0 148 67.5 272.5t188 197.5t266.5 73q219 0 352 -144t133 -381h-997v-18q0 -146 66.5 -268t184 -193t261.5 -71q146 0 260 73t186 199l9 -4q-73 -130 -189.5 -204.5t-265.5 -74.5q-146 0 -266.5 73t-188 197.5t-67.5 272.5zM82 541h987q0 221 -131.5 362 t-343.5 141q-211 0 -355.5 -144.5t-156.5 -358.5z" />
<glyph unicode="f" horiz-adv-x="589" d="M20 1014v10h216v166q0 274 204 274q79 0 150 -41v-12q-76 43 -150 43q-91 0 -142.5 -64.5t-51.5 -199.5v-166h342v-10h-342v-1014h-10v1014h-216z" />
<glyph unicode="g" horiz-adv-x="1185" d="M72 512q0 148 67 272.5t187.5 197.5t267.5 73q153 0 281 -79t198 -210v258h10v-961q0 -103 -26.5 -187t-73 -141t-110.5 -96t-138 -57t-157 -18q-250 0 -465 155l8 11q204 -156 457 -156q102 0 190 29.5t157 87t108.5 153t39.5 219.5v195q-70 -131 -198 -210t-281 -79 q-147 0 -267.5 73t-187.5 197.5t-67 272.5zM80 512q0 -146 66.5 -268t184.5 -193t263 -71q155 0 283.5 82.5t195.5 218.5v462q-67 136 -195.5 218.5t-283.5 82.5q-145 0 -263 -71t-184.5 -193t-66.5 -268z" />
<glyph unicode="h" horiz-adv-x="974" d="M102 0v1454h11v-678q37 51 81.5 96.5t101 88.5t124.5 68.5t137 25.5q336 0 336 -412v-643h-10v643q0 401 -326 401q-66 0 -132 -25t-123 -68.5t-102.5 -90t-86.5 -100.5v-760h-11z" />
<glyph unicode="i" horiz-adv-x="215" d="M70 1288q0 17 12 29t27 12q17 0 29 -12t12 -29q0 -15 -12 -27t-29 -12q-15 0 -27 12t-12 27zM102 0v1024h11v-1024h-11z" />
<glyph unicode="j" horiz-adv-x="215" d="M70 1288q0 17 12 29t27 12q17 0 29 -12t12 -29q0 -15 -12 -27t-29 -12q-15 0 -27 12t-12 27zM102 -418v1442h11v-1442h-11z" />
<glyph unicode="k" horiz-adv-x="823" d="M102 0v1454h11v-1454h-11zM248 541l520 483h14l-520 -483l541 -541h-15z" />
<glyph unicode="l" horiz-adv-x="215" d="M102 0v1454h11v-1454h-11z" />
<glyph unicode="m" horiz-adv-x="1492" d="M102 0v1024h11v-274q31 59 66 109t82 96.5t105.5 73t122.5 26.5q130 0 199 -81t74 -226q157 307 377 307q136 0 204 -86.5t68 -241.5v-727h-10v727q0 161 -72.5 239t-189.5 78q-62 0 -118 -24.5t-102.5 -71t-83 -99.5t-73.5 -122v-727h-10v727q0 161 -73 239t-190 78 q-62 0 -117.5 -24.5t-102 -71t-83 -99t-73.5 -122.5v-727h-11z" />
<glyph unicode="n" horiz-adv-x="1036" d="M164 0v1024h10v-248q37 51 81.5 96.5t101 88.5t124.5 68.5t137 25.5q336 0 336 -412v-643h-10v643q0 401 -326 401q-66 0 -132 -25t-123 -68.5t-102.5 -90t-86.5 -100.5v-760h-10z" />
<glyph unicode="o" horiz-adv-x="1187" d="M72 512q0 148 67.5 272.5t188 197.5t266.5 73q147 0 267.5 -73t187.5 -197.5t67 -272.5t-67 -272.5t-187.5 -197.5t-267.5 -73q-146 0 -266.5 73t-188 197.5t-67.5 272.5zM82 512q0 -146 66.5 -268t184 -193t261.5 -71q145 0 263 71t184.5 193t66.5 268t-66.5 268 t-184.5 193t-263 71q-144 0 -261.5 -71t-184 -193t-66.5 -268z" />
<glyph unicode="p" horiz-adv-x="1185" d="M102 -418v1442h11v-258q69 131 197.5 210t281.5 79q147 0 267.5 -73t187.5 -197.5t67 -272.5t-67 -272.5t-187.5 -197.5t-267.5 -73q-153 0 -281.5 79t-197.5 210v-676h-11zM113 281q66 -136 194.5 -218.5t284.5 -82.5q145 0 263 71t184.5 193t66.5 268t-66.5 268 t-184.5 193t-263 71q-156 0 -284.5 -82.5t-194.5 -218.5v-462z" />
<glyph unicode="q" horiz-adv-x="1185" d="M72 512q0 148 67 272.5t187.5 197.5t267.5 73q153 0 281 -79t198 -210v258h10v-1442h-10v676q-70 -131 -198 -210t-281 -79q-147 0 -267.5 73t-187.5 197.5t-67 272.5zM80 512q0 -146 66.5 -268t184.5 -193t263 -71q155 0 283.5 82.5t195.5 218.5v462 q-67 136 -195.5 218.5t-283.5 82.5q-145 0 -263 -71t-184.5 -193t-66.5 -268z" />
<glyph unicode="r" horiz-adv-x="495" d="M102 0v1024h11v-236q47 125 140 196t222 71v-11q-128 0 -219.5 -73t-142.5 -205v-766h-11z" />
<glyph unicode="s" horiz-adv-x="917" d="M61 133l9 8q161 -161 387 -161q105 0 183.5 25t121.5 67.5t63.5 92t20.5 105.5q0 77 -40 126.5t-104 71.5t-142 35t-155.5 26.5t-141.5 36t-104 73t-40 129.5q0 52 19.5 100.5t58.5 91.5t107.5 69t156.5 26q116 0 204 -38t164 -126l-8 -8q-75 90 -163 125.5t-197 35.5 q-83 0 -148.5 -24t-104.5 -64.5t-59 -88t-20 -99.5q0 -61 25 -104t67 -66.5t96.5 -39t115 -24.5t120.5 -18.5t114.5 -25.5t96.5 -41t67 -70.5t25 -108.5q0 -58 -21 -109t-65.5 -95.5t-125 -70.5t-187.5 -26q-112 0 -215 43t-181 121z" />
<glyph unicode="t" horiz-adv-x="630" d="M20 1014v10h216v240h10v-240h342v-10h-342v-729q0 -67 3 -110.5t13 -84t28 -62.5t48.5 -35t75.5 -13q91 0 176 43v-11q-84 -43 -176 -43q-41 0 -70.5 8.5t-49 29t-31 44t-17.5 63t-8 77t-2 94.5v729h-216z" />
<glyph unicode="u" horiz-adv-x="964" d="M72 381v643h10v-643q0 -401 326 -401q66 0 132 25t123 68.5t102.5 90t86.5 100.5v760h10v-1024h-10v248q-37 -51 -81.5 -96.5t-101 -88.5t-124.5 -68.5t-137 -25.5q-336 0 -336 412z" />
<glyph unicode="v" horiz-adv-x="921" d="M10 1024h10l441 -1024l440 1024h10l-450 -1055z" />
<glyph unicode="w" horiz-adv-x="1392" d="M10 1024h13l335 -1012l338 1043l338 -1043l336 1012h12l-348 -1055l-338 1039l-338 -1039z" />
<glyph unicode="x" horiz-adv-x="915" d="M31 0l420 524l-400 500h12l394 -492l395 492h12l-401 -500l422 -524h-13l-415 516l-414 -516h-12z" />
<glyph unicode="y" horiz-adv-x="901" d="M10 1024h13l430 -1010l426 1010h12l-610 -1442h-13l176 418z" />
<glyph unicode="z" horiz-adv-x="962" d="M51 0v8l834 1006h-824v10h840v-8l-835 -1006h845v-10h-860z" />
<glyph unicode="{" horiz-adv-x="733" d="M61 592v12h54q95 0 149.5 84t54.5 209v254q0 45 1.5 75t7.5 63.5t16.5 56t28 46.5t43 41t62 34.5t84 31.5t108.5 27l2 -10q-69 -15 -120.5 -32.5t-88.5 -35t-61 -42.5t-38.5 -48t-22 -59t-9.5 -68t-2 -82v-252q0 -113 -47 -197t-136 -102q89 -18 136 -102t47 -197v-252 q0 -50 2 -82t9.5 -68t22 -59t38.5 -47.5t61 -42t88.5 -35t120.5 -32.5l-2 -11q-61 13 -108.5 27t-84 31.5t-62 34.5t-43 41t-28 46.5t-16.5 56t-7.5 63.5t-1.5 75v254q0 125 -54.5 209t-149.5 84h-54z" />
<glyph unicode="|" horiz-adv-x="215" d="M102 -262v1814h11v-1814h-11z" />
<glyph unicode="}" horiz-adv-x="733" d="M61 -319q69 15 120.5 32.5t88.5 35t61 42t38.5 47.5t22 59t9.5 68t2 82v252q0 113 47 197t136 102q-89 18 -136 102t-47 197v252q0 50 -2 82t-9.5 68t-22 59t-38.5 48t-61 42.5t-88.5 35t-120.5 32.5l2 10q61 -13 108.5 -27t84 -31.5t62 -34.5t43 -41t28 -46.5t16.5 -56 t7.5 -63.5t1.5 -75v-254q0 -125 54.5 -209t149.5 -84h54v-12h-54q-95 0 -149.5 -84t-54.5 -209v-254q0 -45 -1.5 -75t-7.5 -63.5t-16.5 -56t-28 -46.5t-43 -41t-62 -34.5t-84 -31.5t-108.5 -27z" />
<glyph unicode="~" d="M139 575v15q109 117 244 117q61 0 136.5 -23.5t136.5 -52.5t136 -52.5t134 -23.5q128 0 243 121v-14q-109 -117 -243 -117q-62 0 -138 23.5t-136.5 52t-135 52t-133.5 23.5q-131 0 -244 -121z" />
<glyph unicode="&#xa2;" horiz-adv-x="1130" d="M72 512q0 148 70 272.5t192.5 197.5t269.5 73q34 0 92 -8l37 182h10l-36 -185q103 -20 189.5 -78t145.5 -145l-8 -6q-126 179 -329 219l-209 -1042q52 -12 108 -12q133 0 244.5 61.5t185.5 167.5l8 -6q-74 -109 -188 -171.5t-250 -62.5q-53 0 -110 13l-37 -187h-11 l37 189q-180 40 -295.5 187.5t-115.5 340.5zM82 512q0 -189 113.5 -333.5t289.5 -184.5l209 1042q-58 8 -90 8q-144 0 -264 -71t-189 -193.5t-69 -267.5z" />
<glyph unicode="&#xa3;" horiz-adv-x="1101" d="M41 836v10h176v139q0 223 110 356.5t310 133.5q76 0 137.5 -15t109 -45.5t83 -64.5t73.5 -84l-8 -6q-49 63 -98 104.5t-126 70.5t-171 29q-196 0 -303 -130t-107 -349v-139h623v-10h-623v-826h809v-10h-819v836h-176z" />
<glyph unicode="&#xa5;" horiz-adv-x="1034" d="M41 1434h14l463 -899l463 899h12l-467 -899h445v-11h-449v-219h449v-10h-449v-295h-10v295h-449v10h449v219h-449v11h447z" />
<glyph unicode="&#xa8;" horiz-adv-x="1191" d="M383 1288q0 17 12 29t27 12q17 0 29 -12t12 -29q0 -15 -12 -27t-29 -12q-15 0 -27 12t-12 27zM782 1288q0 17 12 29t27 12q17 0 29 -12t12 -29q0 -15 -12 -27t-29 -12q-15 0 -27 12t-12 27z" />
<glyph unicode="&#xa9;" horiz-adv-x="1699" d="M109 717q0 149 57.5 286.5t155.5 238.5t235.5 161.5t290.5 60.5t290.5 -60.5t235.5 -161.5t155.5 -238.5t57.5 -286.5t-57.5 -286.5t-155.5 -239t-235.5 -162t-290.5 -60.5t-290.5 60.5t-235.5 162t-155.5 239t-57.5 286.5zM119 717q0 -148 56 -283.5t152.5 -235 t232.5 -159t288 -59.5t288 59.5t232.5 159t152.5 235t56 283.5t-56 283.5t-152.5 235t-232.5 159t-288 59.5t-288 -59.5t-232.5 -159t-152.5 -235t-56 -283.5zM485 727q0 160 108 273.5t265 113.5q91 0 157 -31t130 -92l-8 -8q-62 60 -126.5 90.5t-152.5 30.5 q-152 0 -257 -111t-105 -266t105 -266t257 -111q89 0 153.5 29.5t125.5 89.5l8 -8q-62 -59 -129.5 -90t-157.5 -31q-157 0 -265 113.5t-108 273.5z" />
<glyph unicode="&#xab;" horiz-adv-x="792" d="M61 483l377 430l6 -4l-366 -426l366 -426l-6 -4zM348 483l377 430l6 -4l-366 -426l366 -426l-6 -4z" />
<glyph unicode="&#xad;" horiz-adv-x="835" d="M143 614v11h549v-11h-549z" />
<glyph unicode="&#xae;" horiz-adv-x="1699" d="M109 717q0 149 57.5 286.5t155.5 238.5t235.5 161.5t290.5 60.5t290.5 -60.5t235.5 -161.5t155.5 -238.5t57.5 -286.5t-57.5 -286.5t-155.5 -239t-235.5 -162t-290.5 -60.5t-290.5 60.5t-235.5 162t-155.5 239t-57.5 286.5zM119 717q0 -148 56 -283.5t152.5 -235 t232.5 -159t288 -59.5t288 59.5t232.5 159t152.5 235t56 283.5t-56 283.5t-152.5 235t-232.5 159t-288 59.5t-288 -59.5t-232.5 -159t-152.5 -235t-56 -283.5zM631 344v760h241q121 0 184.5 -53t63.5 -150q0 -90 -66 -150.5t-169 -60.5l235 -346h-14l-236 346h-229v-346h-10 zM641 700h244q56 0 101 19t71 49.5t39.5 64.5t13.5 68q0 38 -11.5 71t-37.5 61t-74 44.5t-113 16.5h-233v-394z" />
<glyph unicode="&#xb4;" horiz-adv-x="495" d="M102 1219l238 272h53l-282 -272h-9z" />
<glyph unicode="&#xb8;" horiz-adv-x="1024" d="M279 -381l6 10q82 -43 188 -43q100 0 153.5 50.5t53.5 111.5q0 51 -40 93t-110 42q-100 0 -135 -49l-8 4l129 180h12l-108 -151q14 12 47.5 19.5t62.5 7.5q74 0 117 -43.5t43 -102.5q0 -69 -57.5 -120.5t-159.5 -51.5q-104 0 -194 43z" />
<glyph unicode="&#xbb;" horiz-adv-x="792" d="M61 57l367 426l-367 426l7 4l376 -430l-376 -430zM348 57l367 426l-367 426l6 4l377 -430l-377 -430z" />
<glyph unicode="&#x2c6;" horiz-adv-x="667" d="M70 1219l237 272h53l238 -272h-8l-256 245l-256 -245h-8z" />
<glyph unicode="&#x2da;" horiz-adv-x="692" d="M170 1405q0 79 54 132.5t134 53.5t134.5 -53.5t54.5 -132.5t-54.5 -132.5t-134.5 -53.5t-134 53.5t-54 132.5zM180 1405q0 -76 50.5 -126t127.5 -50t128 50t51 126t-51 126t-128 50t-127.5 -50t-50.5 -126z" />
<glyph unicode="&#x2dc;" horiz-adv-x="985" d="M102 1247q26 77 81 119.5t124 42.5q39 0 77 -16t69.5 -38.5t64 -45t74 -38.5t86.5 -16q63 0 115 38.5t79 113.5h11q-26 -77 -81 -119.5t-124 -42.5q-47 0 -90 16t-75.5 38.5t-64 45t-67.5 38.5t-74 16q-63 0 -115 -38.5t-79 -113.5h-11z" />
<glyph unicode="&#x401;" horiz-adv-x="1107" d="M123 0v1434h913v-11h-903v-673h727v-11h-727v-729h924v-10h-934zM330 1616q0 17 12 29t27 12q17 0 29 -12t12 -29q0 -15 -12 -27t-29 -12q-15 0 -27 12t-12 27zM729 1616q0 17 12 29t27 12q17 0 29 -12t12 -29q0 -15 -12 -27t-29 -12q-15 0 -27 12t-12 27z" />
<glyph unicode="&#x402;" horiz-adv-x="1468" d="M20 1423v11h1131v-11h-559v-618q194 43 332 43q473 0 473 -430v-72q0 -182 -87 -279.5t-261 -97.5q-145 0 -263 121l9 8q64 -63 123.5 -90.5t130.5 -27.5q168 0 252.5 95t84.5 271v72q0 420 -462 420q-153 0 -332 -43v-795h-10v1423h-562z" />
<glyph unicode="&#x403;" horiz-adv-x="1036" d="M123 0v1434h893v-11h-883v-1423h-10zM373 1628l237 273h54l-283 -273h-8z" />
<glyph unicode="&#x404;" horiz-adv-x="1499" d="M82 717q0 153 59 291t159 238t238 159t291 59q184 0 345 -83.5t264 -227.5l-8 -6q-102 142 -260 224.5t-341 82.5q-194 0 -360.5 -93.5t-267 -254.5t-109.5 -354h1010v-11h-1010v-24q0 -150 58 -286.5t157 -235.5t235.5 -157t286.5 -58q183 0 341 82.5t260 224.5l8 -6 q-103 -144 -264 -228t-345 -84q-153 0 -291 59t-238 159t-159 238.5t-59 291.5z" />
<glyph unicode="&#x405;" horiz-adv-x="1148" d="M72 172l8 8q100 -100 219.5 -150t275.5 -50q213 0 352.5 117.5t139.5 293.5q0 69 -26.5 122.5t-72.5 87t-107 60t-129.5 42t-141.5 34t-141.5 34.5t-129.5 44t-107 63.5t-72.5 91.5t-26.5 128q0 166 125 266t313 100q163 0 275 -49.5t216 -152.5l-8 -9 q-104 104 -214.5 152.5t-268.5 48.5q-181 0 -304.5 -97.5t-123.5 -258.5q0 -78 32.5 -136t88 -93.5t127 -61.5t150.5 -44.5t158 -36.5t150.5 -44t127 -61.5t88 -93.5t32.5 -136q0 -181 -144 -301.5t-358 -120.5q-164 0 -282 51t-221 152z" />
<glyph unicode="&#x406;" horiz-adv-x="256" d="M123 0v1434h10v-1434h-10z" />
<glyph unicode="&#x407;" horiz-adv-x="256" d="M29 1614q0 17 12 29t27 12q17 0 29 -12t12 -29q0 -15 -12 -27t-29 -12q-15 0 -27 12t-12 27zM123 0v1434h10v-1434h-10zM147 1614q0 17 12 29t27 12q17 0 29 -12t12 -29q0 -15 -12 -27t-29 -12q-15 0 -27 12t-12 27z" />
<glyph unicode="&#x408;" horiz-adv-x="743" d="M20 90l9 8q64 -63 123.5 -90.5t130.5 -27.5q168 0 253 95t85 271v1088h10v-1088q0 -182 -87 -279.5t-261 -97.5q-145 0 -263 121z" />
<glyph unicode="&#x409;" horiz-adv-x="2246" d="M20 0v10q62 0 109.5 12t98 48.5t87 100t70 171t54 255.5t32.5 359t12 478h742v-641h524q177 0 301.5 -113t124.5 -281q0 -169 -125 -284t-301 -115h-535v1423h-720q0 -265 -12 -474.5t-33 -357.5t-55 -255.5t-71 -171.5t-88.5 -101.5t-101 -50t-113.5 -12.5zM1225 10h524 q173 0 294.5 112t121.5 277q0 164 -121 273.5t-295 109.5h-524v-772z" />
<glyph unicode="&#x40a;" horiz-adv-x="2193" d="M123 0v1434h10v-641h1028v641h10v-641h525q177 0 301.5 -113t124.5 -281q0 -169 -125 -284t-301 -115h-535v782h-1028v-782h-10zM1171 10h525q173 0 294 112t121 277q0 164 -120.5 273.5t-294.5 109.5h-525v-772z" />
<glyph unicode="&#x40b;" horiz-adv-x="1468" d="M20 1423v11h1131v-11h-559v-618q194 43 332 43q473 0 473 -430v-418h-11v418q0 420 -462 420q-153 0 -332 -43v-795h-10v1423h-562z" />
<glyph unicode="&#x40c;" horiz-adv-x="1079" d="M123 0v1434h10v-1434h-10zM225 745l766 689h15l-766 -689l819 -745h-15zM393 1628l238 273h53l-283 -273h-8z" />
<glyph unicode="&#x40e;" horiz-adv-x="1142" d="M20 1434h15l536 -1092l537 1092h14l-704 -1434h-15l160 326zM219 1616l6 10q156 -70 346 -70q191 0 347 70l6 -10q-156 -70 -353 -70q-196 0 -352 70z" />
<glyph unicode="&#x40f;" horiz-adv-x="1388" d="M123 0v1434h10v-1424h1028v1424h10v-1434h-520v-315h-10v315h-518z" />
<glyph unicode="&#x410;" horiz-adv-x="1331" d="M31 0l635 1458l634 -1458h-12l-182 418h-883l-180 -418h-12zM227 428h875l-436 1006z" />
<glyph unicode="&#x411;" horiz-adv-x="1165" d="M123 0v1434h870v-11h-860v-635h524q177 0 301.5 -111.5t124.5 -279.5q0 -111 -57.5 -202.5t-155.5 -143t-213 -51.5h-534zM133 10h524q173 0 294.5 111.5t121.5 275.5t-121 272.5t-295 108.5h-524v-768z" />
<glyph unicode="&#x412;" horiz-adv-x="1183" d="M123 0v1434h493q161 0 269 -100t108 -251q0 -124 -64.5 -215.5t-185.5 -122.5q174 -29 266.5 -131.5t92.5 -228.5q0 -167 -124 -276t-302 -109h-553zM133 10h543q175 0 295.5 106t120.5 269q0 147 -120 250.5t-296 103.5h-543v-729zM133 750h543q134 0 220.5 98.5 t86.5 234.5q0 146 -105 243t-262 97h-483v-673z" />
<glyph unicode="&#x413;" horiz-adv-x="1036" d="M123 0v1434h893v-11h-883v-1423h-10z" />
<glyph unicode="&#x414;" horiz-adv-x="1439" d="M31 8h143q33 61 52.5 99t56 122t59.5 157t52.5 190t46 237t28.5 282t12 339h742v-1426h176v-323h-10v315h-1348v-315h-10v323zM182 8h1030v1415h-720q0 -141 -7.5 -272t-19 -234.5t-31.5 -205.5t-36.5 -173.5t-43.5 -149.5t-44.5 -123t-47 -104.5t-42 -83t-38.5 -69.5z " />
<glyph unicode="&#x415;" horiz-adv-x="1107" d="M123 0v1434h913v-11h-903v-673h727v-11h-727v-729h924v-10h-934z" />
<glyph unicode="&#x416;" horiz-adv-x="1599" d="M20 0l668 735l-608 699h10l612 -699l-671 -735h-11zM795 0v1434h10v-1434h-10zM897 735l612 699h11l-609 -699l668 -735h-10z" />
<glyph unicode="&#x417;" horiz-adv-x="1169" d="M72 172l10 10q98 -101 217.5 -151.5t275.5 -50.5q213 0 352.5 117.5t139.5 293.5q0 65 -26.5 122.5t-69.5 98t-97.5 70.5t-110.5 44.5t-108 14.5h-237v11h237q45 0 108.5 27t124 71t102.5 111t42 137q0 161 -123.5 258.5t-304.5 97.5q-159 0 -268 -48t-213 -155l-10 11 q104 103 216 152.5t275 49.5q188 0 313 -100t125 -266q0 -109 -100.5 -212t-247.5 -138q176 -22 279.5 -125t103.5 -232q0 -181 -144 -301.5t-358 -120.5q-164 0 -282 51t-221 152z" />
<glyph unicode="&#x418;" horiz-adv-x="1314" d="M123 -33v1467h10v-1434l1059 1464v-1464h-10v1434z" />
<glyph unicode="&#x419;" horiz-adv-x="1314" d="M123 -33v1467h10v-1434l1059 1464v-1464h-10v1434zM313 1616l6 10q156 -70 347 -70q190 0 346 70l6 -10q-156 -70 -352 -70q-197 0 -353 70z" />
<glyph unicode="&#x41a;" horiz-adv-x="1079" d="M123 0v1434h10v-1434h-10zM225 745l766 689h15l-766 -689l819 -745h-15z" />
<glyph unicode="&#x41b;" horiz-adv-x="1347" d="M20 0v10q62 0 109.5 12t98 48.5t87 100t70 171t54 255.5t32.5 359t12 478h742v-1434h-11v1423h-720q0 -265 -12 -474.5t-33 -357.5t-55 -255.5t-71 -171.5t-88.5 -101.5t-101 -50t-113.5 -12.5z" />
<glyph unicode="&#x41c;" horiz-adv-x="1503" d="M123 0v1464l629 -985l628 985v-1464h-10v1430l-618 -969l-619 969v-1430h-10z" />
<glyph unicode="&#x41d;" horiz-adv-x="1294" d="M123 0v1434h10v-682h1028v682h10v-1434h-10v741h-1028v-741h-10z" />
<glyph unicode="&#x41e;" horiz-adv-x="1658" d="M82 717q0 153 59 291t159 238t238 159t291 59q152 0 290.5 -59t238.5 -159t159.5 -238.5t59.5 -290.5q0 -203 -100.5 -375.5t-272.5 -272.5t-375 -100q-153 0 -291 59t-238 159t-159 238.5t-59 291.5zM92 717q0 -150 58 -286.5t157 -235.5t235.5 -157t286.5 -58t287 58 t235.5 157t157 235.5t58.5 286.5t-58.5 286.5t-157 235.5t-235.5 157t-287 58t-286.5 -58t-235.5 -157t-157 -235.5t-58 -286.5z" />
<glyph unicode="&#x41f;" horiz-adv-x="1294" d="M123 0v1434h1048v-1434h-10v1423h-1028v-1423h-10z" />
<glyph unicode="&#x420;" horiz-adv-x="1155" d="M123 0v1434h534q176 0 301 -115.5t125 -284.5q0 -168 -124.5 -280.5t-301.5 -112.5h-524v-641h-10zM133 651h524q174 0 295 109.5t121 273.5q0 165 -121.5 277t-294.5 112h-524v-772z" />
<glyph unicode="&#x421;" horiz-adv-x="1492" d="M72 717q0 153 59 291t159 238t238 159t291 59q186 0 347 -85t264 -232l-9 -6q-102 144 -260 228.5t-342 84.5q-150 0 -286.5 -58t-235.5 -157t-157 -235.5t-58 -286.5t58 -286.5t157 -235.5t235.5 -157t286.5 -58q184 0 343 85t261 230l9 -6q-103 -147 -265 -233.5 t-348 -86.5q-153 0 -291 59t-238 159t-159 238.5t-59 291.5z" />
<glyph unicode="&#x422;" horiz-adv-x="1173" d="M20 1423v11h1133v-11h-561v-1423h-10v1423h-562z" />
<glyph unicode="&#x423;" horiz-adv-x="1142" d="M20 1434h15l536 -1092l537 1092h14l-704 -1434h-15l160 326z" />
<glyph unicode="&#x424;" horiz-adv-x="1460" d="M82 745q0 166 70 299t208.5 213t323.5 80h41v138h10v-138h41q185 0 323.5 -80t208.5 -213t70 -299t-70 -298.5t-208.5 -212.5t-323.5 -80h-41v-154h-10v154h-41q-185 0 -323.5 80t-208.5 212.5t-70 298.5zM92 745q0 -120 41 -225.5t115.5 -184.5t187 -125t248.5 -46h41 v1163h-41q-180 0 -316.5 -79.5t-206 -210.5t-69.5 -292zM735 164h41q136 0 248.5 46t187 125t115.5 184.5t41 225.5q0 161 -69.5 292t-206 210.5t-316.5 79.5h-41v-1163z" />
<glyph unicode="&#x425;" horiz-adv-x="1163" d="M41 0l534 731l-514 703h13l508 -695l508 695h12l-514 -703l534 -731h-12l-528 723l-529 -723h-12z" />
<glyph unicode="&#x426;" horiz-adv-x="1388" d="M123 0v1434h10v-1424h1028v1424h10v-1424h177v-325h-11v315h-1214z" />
<glyph unicode="&#x427;" horiz-adv-x="1071" d="M72 1016v418h10v-418q0 -420 463 -420q178 0 393 43v795h10v-1434h-10v629q-234 -43 -393 -43q-473 0 -473 430z" />
<glyph unicode="&#x428;" horiz-adv-x="1959" d="M123 0v1434h10v-1424h842v1424h10v-1424h842v1424h10v-1434h-1714z" />
<glyph unicode="&#x429;" horiz-adv-x="2054" d="M123 0v1434h10v-1424h842v1424h10v-1424h842v1424h10v-1424h176v-325h-10v315h-1880z" />
<glyph unicode="&#x42a;" horiz-adv-x="1519" d="M20 1423v11h478v-641h524q177 0 301.5 -113t124.5 -281q0 -169 -125 -284t-301 -115h-535v1423h-467zM498 10h524q173 0 294.5 112t121.5 277q0 164 -121 273.5t-295 109.5h-524v-772z" />
<glyph unicode="&#x42b;" horiz-adv-x="1382" d="M123 0v1434h10v-641h524q177 0 301.5 -113t124.5 -281q0 -169 -125 -284t-301 -115h-534zM133 10h524q173 0 294.5 112t121.5 277q0 164 -121 273.5t-295 109.5h-524v-772zM1249 0v1434h11v-1434h-11z" />
<glyph unicode="&#x42c;" horiz-adv-x="1155" d="M123 0v1434h10v-641h524q177 0 301.5 -113t124.5 -281q0 -169 -125 -284t-301 -115h-534zM133 10h524q173 0 294.5 112t121.5 277q0 164 -121 273.5t-295 109.5h-524v-772z" />
<glyph unicode="&#x42d;" horiz-adv-x="1499" d="M61 281l9 6q102 -142 259.5 -224.5t340.5 -82.5q151 0 287 57.5t235 157t157 242t58 304.5h-1010v11h1010q-9 193 -109.5 354t-267 254.5t-360.5 93.5q-183 0 -340.5 -82.5t-259.5 -224.5l-9 6q103 144 264 227.5t345 83.5q153 0 291 -59t238 -159t159 -238t59 -291 t-59 -291.5t-159 -238.5t-238 -159t-291 -59q-184 0 -345 84t-264 228z" />
<glyph unicode="&#x42e;" horiz-adv-x="2045" d="M123 0v1434h10v-682h336q7 147 68.5 278.5t161 226.5t235 151t283.5 56q152 0 290 -59t238.5 -159t159.5 -238.5t59 -290.5t-59 -291t-159.5 -239t-238.5 -159t-290 -59q-153 0 -291.5 59t-238.5 159t-159 238.5t-59 291.5v24h-336v-741h-10zM479 717q0 -150 58.5 -286.5 t157 -235.5t235.5 -157t287 -58t286.5 58t235.5 157t157 235.5t58 286.5t-58 286.5t-157 235.5t-235.5 157t-286.5 58t-287 -58t-235.5 -157t-157 -235.5t-58.5 -286.5z" />
<glyph unicode="&#x42f;" horiz-adv-x="1193" d="M23 0l514 641q-177 0 -301.5 112.5t-124.5 280.5q0 169 125 284.5t301 115.5h534v-1434h-10v641h-510l-514 -641h-14zM121 1034q0 -164 121 -273.5t295 -109.5h524v772h-524q-173 0 -294.5 -112t-121.5 -277z" />
<glyph unicode="&#x430;" horiz-adv-x="1034" d="M92 260q0 55 15.5 100.5t38 79t66 59t80.5 42.5t102 28.5t110.5 17.5t125 9t127 3.5t134.5 0.5v102q0 174 -87 258t-269 84q-117 0 -210 -39t-178 -124l-8 8q171 166 396 166q74 0 132.5 -14t96 -35t65 -54t41 -62t21 -68.5t9 -63.5t1.5 -56v-702h-10v334 q-105 -189 -215 -277t-244 -88q-157 0 -248.5 79.5t-91.5 211.5zM102 260q0 -133 92 -206.5t238 -73.5q133 0 238 86.5t221 285.5v238q-94 0 -145 -1t-137.5 -4.5t-136.5 -12.5t-117 -24t-105.5 -39.5t-76.5 -58.5t-54.5 -82t-16.5 -108z" />
<glyph unicode="&#x431;" horiz-adv-x="1208" d="M72 512v27q3 425 99 608q68 129 208 191q91 40 304 81q249 49 366 80l2 -10q-112 -28 -303 -66q-88 -18 -129 -26.5t-110.5 -26.5t-100.5 -33t-82 -41t-73 -55t-56 -71.5t-48 -93.5t-31 -118.5t-24 -149t-10 -181.5q39 185 184 306.5t338 121.5q148 0 270 -73 t191.5 -197.5t69.5 -272.5t-69.5 -272.5t-191.5 -197.5t-270 -73q-147 0 -270 73t-193.5 198t-70.5 272zM82 512q0 -145 69.5 -267.5t190 -193.5t264.5 -71q145 0 265 71t188.5 193t68.5 268t-68.5 268t-188.5 193t-265 71q-144 0 -264.5 -71t-190 -193.5t-69.5 -267.5z" />
<glyph unicode="&#x432;" horiz-adv-x="962" d="M102 0v1024h496q117 0 194.5 -72t77.5 -176q0 -88 -56.5 -154.5t-147.5 -86.5q107 -13 176 -89.5t69 -177.5q0 -110 -81.5 -189t-206.5 -79h-521zM113 10h510q121 0 199.5 76.5t78.5 181.5t-80.5 182.5t-202.5 77.5h-505v-518zM113 539h485q109 0 185.5 70.5t76.5 166.5 t-76.5 167t-185.5 71h-485v-475z" />
<glyph unicode="&#x433;" horiz-adv-x="837" d="M102 0v1024h725v-10h-714v-1014h-11z" />
<glyph unicode="&#x434;" horiz-adv-x="1167" d="M31 10h121q72 116 112.5 327.5t40.5 442.5v244h672v-1014h149v-278h-10v268h-1075v-268h-10v278zM166 10h801v1004h-652v-234q0 -226 -40 -441t-109 -329z" />
<glyph unicode="&#x435;" horiz-adv-x="1171" d="M92 512q0 148 67.5 272.5t188 197.5t266.5 73q220 0 353 -144t133 -381h-998v-18q0 -146 66.5 -268t184 -193t261.5 -71q146 0 260.5 73t186.5 199l8 -4q-73 -130 -189.5 -204.5t-265.5 -74.5q-146 0 -266.5 73t-188 197.5t-67.5 272.5zM102 541h988q0 221 -132 362 t-344 141q-211 0 -355.5 -144.5t-156.5 -358.5z" />
<glyph unicode="&#x436;" horiz-adv-x="1173" d="M20 0l515 547l-476 477h13l477 -477l-516 -547h-13zM582 0v1024h10v-1024h-10zM625 547l477 477h12l-475 -477l514 -547h-12z" />
<glyph unicode="&#x437;" horiz-adv-x="907" d="M61 133l9 8q161 -161 387 -161q85 0 153 18t111 47t72 68.5t41 79.5t12 83q0 104 -93.5 177t-217.5 73h-191v11h191q119 0 194.5 72t75.5 179q0 110 -83.5 183t-254.5 73q-109 0 -197.5 -36t-163.5 -125l-8 8q76 88 164.5 126t204.5 38q95 0 165 -23t108.5 -62 t56.5 -84.5t18 -97.5q0 -102 -57.5 -166.5t-161.5 -91.5q120 -18 190 -89t70 -165q0 -60 -22 -112.5t-67 -97.5t-124.5 -71t-185.5 -26q-112 0 -215 43t-181 121z" />
<glyph unicode="&#x438;" horiz-adv-x="995" d="M102 -31v1055h11v-1022l780 1053v-1055h-10v1022z" />
<glyph unicode="&#x439;" horiz-adv-x="995" d="M102 -31v1055h11v-1022l780 1053v-1055h-10v1022zM184 1315l4 8q137 -61 310 -61q172 0 309 61l4 -8q-137 -64 -313 -64q-177 0 -314 64z" />
<glyph unicode="&#x43a;" horiz-adv-x="815" d="M102 0v1024h11v-1024h-11zM150 541l581 483h14l-581 -483l602 -541h-14z" />
<glyph unicode="&#x43b;" horiz-adv-x="1013" d="M20 0v10h46q57 0 94.5 43.5t65.5 155t40.5 311t12.5 504.5h632v-1024h-10v1014h-612q0 -401 -23.5 -622.5t-70.5 -306.5t-129 -85h-46z" />
<glyph unicode="&#x43c;" horiz-adv-x="1122" d="M102 0v1055l459 -615l459 615v-1055h-10v1024l-449 -600l-448 600v-1024h-11z" />
<glyph unicode="&#x43d;" horiz-adv-x="1005" d="M102 0v1024h11v-489h780v489h10v-1024h-10v524h-780v-524h-11z" />
<glyph unicode="&#x43e;" horiz-adv-x="1187" d="M72 512q0 148 67.5 272.5t188 197.5t266.5 73q147 0 267.5 -73t187.5 -197.5t67 -272.5t-67 -272.5t-187.5 -197.5t-267.5 -73q-146 0 -266.5 73t-188 197.5t-67.5 272.5zM82 512q0 -146 66.5 -268t184 -193t261.5 -71q145 0 263 71t184.5 193t66.5 268t-66.5 268 t-184.5 193t-263 71q-144 0 -261.5 -71t-184 -193t-66.5 -268z" />
<glyph unicode="&#x43f;" horiz-adv-x="1005" d="M102 0v1024h801v-1024h-10v1014h-780v-1014h-11z" />
<glyph unicode="&#x440;" horiz-adv-x="1185" d="M102 -418v1442h11v-258q69 131 197.5 210t281.5 79q147 0 267.5 -73t187.5 -197.5t67 -272.5t-67 -272.5t-187.5 -197.5t-267.5 -73q-153 0 -281.5 79t-197.5 210v-676h-11zM113 281q66 -136 194.5 -218.5t284.5 -82.5q145 0 263 71t184.5 193t66.5 268t-66.5 268 t-184.5 193t-263 71q-156 0 -284.5 -82.5t-194.5 -218.5v-462z" />
<glyph unicode="&#x441;" horiz-adv-x="1140" d="M72 512q0 148 70 272.5t192.5 197.5t269.5 73q136 0 250 -62.5t188 -171.5l-8 -6q-74 106 -185.5 167.5t-244.5 61.5q-144 0 -264 -71t-189 -193.5t-69 -267.5t69 -267.5t189 -193.5t264 -71q133 0 244.5 61.5t185.5 167.5l8 -6q-74 -109 -188 -171.5t-250 -62.5 q-147 0 -269.5 73t-192.5 197.5t-70 272.5z" />
<glyph unicode="&#x442;" horiz-adv-x="899" d="M10 1014v10h879v-10h-434v-1014h-11v1014h-434z" />
<glyph unicode="&#x443;" horiz-adv-x="901" d="M10 1024h13l430 -1010l426 1010h12l-610 -1442h-13l176 418z" />
<glyph unicode="&#x444;" horiz-adv-x="1267" d="M72 512q0 147 66.5 271.5t185.5 198t264 73.5h41v399h10v-399h41q145 0 264 -73.5t185.5 -198t66.5 -271.5t-66.5 -271.5t-185.5 -198t-264 -73.5h-41v-387h-10v387h-41q-145 0 -264 73.5t-185.5 198t-66.5 271.5zM84 512q0 -144 65.5 -266t181.5 -194t257 -72h41v1064 h-41q-140 0 -256.5 -72.5t-182 -194.5t-65.5 -265zM639 -20h41q141 0 257 72t181.5 194t65.5 266q0 143 -65.5 265t-182 194.5t-256.5 72.5h-41v-1064z" />
<glyph unicode="&#x445;" horiz-adv-x="915" d="M31 0l420 524l-400 500h12l394 -492l395 492h12l-401 -500l422 -524h-13l-415 516l-414 -516h-12z" />
<glyph unicode="&#x446;" horiz-adv-x="1093" d="M102 0v1024h11v-1014h780v1014h10v-1014h150v-278h-11v268h-940z" />
<glyph unicode="&#x447;" horiz-adv-x="864" d="M72 725v299h10v-299q0 -92 46 -158t115 -95.5t150 -29.5q65 0 180.5 10.5t178.5 24.5v547h10v-1024h-10v467q-68 -13 -180.5 -24t-178.5 -11q-32 0 -65.5 6t-70.5 18.5t-69.5 35.5t-58.5 54t-41.5 77t-15.5 102z" />
<glyph unicode="&#x448;" horiz-adv-x="1447" d="M102 0v1024h11v-1014h606v1014h10v-1014h606v1014h11v-1024h-1244z" />
<glyph unicode="&#x449;" horiz-adv-x="1536" d="M102 0v1024h11v-1014h606v1014h10v-1014h606v1014h11v-1014h149v-278h-10v268h-1383z" />
<glyph unicode="&#x44a;" horiz-adv-x="1241" d="M10 1014v10h412v-438h434q153 0 238.5 -82.5t85.5 -210.5t-85.5 -210.5t-238.5 -82.5h-444v1014h-402zM422 10h434q147 0 230 80t83 203t-83 202.5t-230 79.5h-434v-565z" />
<glyph unicode="&#x44b;" horiz-adv-x="1142" d="M102 0v1024h11v-438h434q153 0 238 -82.5t85 -210.5t-85 -210.5t-238 -82.5h-445zM113 10h434q147 0 230 80t83 203t-83 202.5t-230 79.5h-434v-565zM1030 0v1024h10v-1024h-10z" />
<glyph unicode="&#x44c;" horiz-adv-x="931" d="M102 0v1024h11v-438h434q153 0 238 -82.5t85 -210.5t-85 -210.5t-238 -82.5h-445zM113 10h434q147 0 230 80t83 203t-83 202.5t-230 79.5h-434v-565z" />
<glyph unicode="&#x44d;" horiz-adv-x="1110" d="M68 203l8 6q74 -106 185.5 -167.5t244.5 -61.5q144 0 264 71t189 193.5t69 267.5v12h-657v11h657q-6 141 -76 257.5t-188 184t-258 67.5q-133 0 -244.5 -61.5t-185.5 -167.5l-8 6q74 109 188 171.5t250 62.5q147 0 269.5 -73t192.5 -197.5t70 -272.5t-70 -272.5 t-192.5 -197.5t-269.5 -73q-136 0 -250 62.5t-188 171.5z" />
<glyph unicode="&#x44e;" horiz-adv-x="1515" d="M102 0v1024h11v-489h286q5 143 73.5 262t187 188.5t262.5 69.5q147 0 267.5 -73t187.5 -197.5t67 -272.5t-67 -272.5t-187.5 -197.5t-267.5 -73q-110 0 -207.5 43t-166.5 116t-109 173t-40 211v12h-286v-524h-11zM410 512q0 -146 66.5 -268t184 -193t261.5 -71 q145 0 263 71t184.5 193t66.5 268t-66.5 268t-184.5 193t-263 71q-144 0 -261.5 -71t-184 -193t-66.5 -268z" />
<glyph unicode="&#x44f;" horiz-adv-x="962" d="M72 0l344 438q-153 0 -238.5 82.5t-85.5 210.5t85.5 210.5t238.5 82.5h444v-1024h-10v438h-422l-344 -438h-12zM102 731q0 -123 83 -202.5t231 -79.5h434v565h-434q-147 0 -230.5 -80t-83.5 -203z" />
<glyph unicode="&#x451;" horiz-adv-x="1150" d="M72 512q0 148 67.5 272.5t188 197.5t266.5 73q219 0 352 -144t133 -381h-997v-18q0 -146 66.5 -268t184 -193t261.5 -71q146 0 260 73t186 199l9 -4q-73 -130 -189.5 -204.5t-265.5 -74.5q-146 0 -266.5 73t-188 197.5t-67.5 272.5zM82 541h987q0 221 -131.5 362 t-343.5 141q-211 0 -355.5 -144.5t-156.5 -358.5zM362 1288q0 17 12 29t27 12q17 0 29 -12t12 -29q0 -15 -12 -27t-29 -12q-15 0 -27 12t-12 27zM762 1288q0 17 12 29t27 12q17 0 29 -12t12 -29q0 -15 -12 -27t-29 -12q-15 0 -27 12t-12 27z" />
<glyph unicode="&#x452;" horiz-adv-x="974" d="M0 1239v10h102v205h11v-205h546v-10h-546v-463q37 51 81.5 96.5t101 88.5t124.5 68.5t137 25.5q336 0 336 -412v-643h-10v643q0 401 -326 401q-66 0 -132 -25t-123 -68.5t-102.5 -90t-86.5 -100.5v-760h-11v1239h-102z" />
<glyph unicode="&#x453;" horiz-adv-x="837" d="M102 0v1024h725v-10h-714v-1014h-11zM272 1219l238 272h53l-282 -272h-9z" />
<glyph unicode="&#x454;" horiz-adv-x="1110" d="M72 512q0 148 70 272.5t192.5 197.5t269.5 73q136 0 250 -62.5t188 -171.5l-8 -6q-74 106 -185.5 167.5t-244.5 61.5q-140 0 -258 -67.5t-188 -184t-76 -257.5h657v-11h-657v-12q0 -145 69 -267.5t189 -193.5t264 -71q133 0 244.5 61.5t185.5 167.5l8 -6 q-74 -109 -188 -171.5t-250 -62.5q-147 0 -269.5 73t-192.5 197.5t-70 272.5z" />
<glyph unicode="&#x455;" horiz-adv-x="917" d="M61 133l9 8q161 -161 387 -161q105 0 183.5 25t121.5 67.5t63.5 92t20.5 105.5q0 77 -40 126.5t-104 71.5t-142 35t-155.5 26.5t-141.5 36t-104 73t-40 129.5q0 52 19.5 100.5t58.5 91.5t107.5 69t156.5 26q116 0 204 -38t164 -126l-8 -8q-75 90 -163 125.5t-197 35.5 q-83 0 -148.5 -24t-104.5 -64.5t-59 -88t-20 -99.5q0 -61 25 -104t67 -66.5t96.5 -39t115 -24.5t120.5 -18.5t114.5 -25.5t96.5 -41t67 -70.5t25 -108.5q0 -58 -21 -109t-65.5 -95.5t-125 -70.5t-187.5 -26q-112 0 -215 43t-181 121z" />
<glyph unicode="&#x456;" horiz-adv-x="215" d="M70 1288q0 17 12 29t27 12q17 0 29 -12t12 -29q0 -15 -12 -27t-29 -12q-15 0 -27 12t-12 27zM102 0v1024h11v-1024h-11z" />
<glyph unicode="&#x457;" horiz-adv-x="337" d="M51 1286q0 17 12 29t27 12q17 0 29 -12t12 -29q0 -15 -12 -27t-29 -12q-15 0 -27 12t-12 27zM164 0v1024h10v-1024h-10zM207 1286q0 17 12 29t27 12q17 0 29 -12t12 -29q0 -15 -12 -27t-29 -12q-15 0 -27 12t-12 27z" />
<glyph unicode="&#x458;" horiz-adv-x="215" d="M70 1288q0 17 12 29t27 12q17 0 29 -12t12 -29q0 -15 -12 -27t-29 -12q-15 0 -27 12t-12 27zM102 -418v1442h11v-1442h-11z" />
<glyph unicode="&#x459;" horiz-adv-x="1730" d="M20 0v10h46q57 0 94.5 43.5t65.5 155t40.5 311t12.5 504.5h632v-438h435q153 0 238 -82.5t85 -210.5t-85 -210.5t-238 -82.5h-445v1014h-612q0 -401 -23.5 -622.5t-70.5 -306.5t-129 -85h-46zM911 10h435q147 0 230 80t83 203t-83 202.5t-230 79.5h-435v-565z" />
<glyph unicode="&#x45a;" horiz-adv-x="1722" d="M102 0v1024h11v-438h780v438h10v-438h434q153 0 238.5 -82.5t85.5 -210.5t-85.5 -210.5t-238.5 -82.5h-444v575h-780v-575h-11zM903 10h434q147 0 230.5 80t83.5 203t-83 202.5t-231 79.5h-434v-565z" />
<glyph unicode="&#x45b;" horiz-adv-x="974" d="M0 1239v10h102v205h11v-205h546v-10h-546v-463q37 51 81.5 96.5t101 88.5t124.5 68.5t137 25.5q336 0 336 -412v-1061h-10v1061q0 401 -326 401q-66 0 -132 -25t-123 -68.5t-102.5 -90t-86.5 -100.5v-760h-11v1239h-102z" />
<glyph unicode="&#x45c;" horiz-adv-x="815" d="M102 0v1024h11v-1024h-11zM150 541l581 483h14l-581 -483l602 -541h-14zM262 1219l238 272h53l-283 -272h-8z" />
<glyph unicode="&#x45e;" horiz-adv-x="901" d="M10 1024h13l430 -1010l426 1010h12l-610 -1442h-13l176 418zM137 1315l4 8q137 -61 310 -61q172 0 309 61l4 -8q-137 -64 -313 -64q-177 0 -314 64z" />
<glyph unicode="&#x45f;" horiz-adv-x="1093" d="M102 0v1024h11v-1014h780v1014h10v-1024h-395v-268h-10v268h-396z" />
<glyph unicode="&#x490;" horiz-adv-x="1036" d="M123 0v1434h883v254h10v-265h-883v-1423h-10z" />
<glyph unicode="&#x491;" horiz-adv-x="837" d="M102 0v1024h715v254h10v-264h-714v-1014h-11z" />
<glyph unicode="&#x2000;" horiz-adv-x="950" />
<glyph unicode="&#x2001;" horiz-adv-x="1901" />
<glyph unicode="&#x2002;" horiz-adv-x="950" />
<glyph unicode="&#x2003;" horiz-adv-x="1901" />
<glyph unicode="&#x2004;" horiz-adv-x="633" />
<glyph unicode="&#x2005;" horiz-adv-x="475" />
<glyph unicode="&#x2006;" horiz-adv-x="316" />
<glyph unicode="&#x2007;" horiz-adv-x="316" />
<glyph unicode="&#x2008;" horiz-adv-x="237" />
<glyph unicode="&#x2009;" horiz-adv-x="380" />
<glyph unicode="&#x200a;" horiz-adv-x="105" />
<glyph unicode="&#x2010;" horiz-adv-x="835" d="M143 614v11h549v-11h-549z" />
<glyph unicode="&#x2011;" horiz-adv-x="835" d="M143 614v11h549v-11h-549z" />
<glyph unicode="&#x2012;" horiz-adv-x="835" d="M143 614v11h549v-11h-549z" />
<glyph unicode="&#x2013;" horiz-adv-x="1142" d="M72 596v10h999v-10h-999z" />
<glyph unicode="&#x2014;" horiz-adv-x="1615" d="M0 596v10h1616v-10h-1616z" />
<glyph unicode="&#x2018;" horiz-adv-x="425" d="M84 989l195 475h8l-156 -475h-47z" />
<glyph unicode="&#x2019;" horiz-adv-x="425" d="M84 989l156 475h47l-195 -475h-8z" />
<glyph unicode="&#x201a;" horiz-adv-x="518" d="M84 -303l156 475h47l-195 -475h-8z" />
<glyph unicode="&#x201c;" horiz-adv-x="778" d="M84 989l195 475h8l-156 -475h-47zM375 989l194 475h9l-156 -475h-47z" />
<glyph unicode="&#x201d;" horiz-adv-x="778" d="M84 989l156 475h47l-195 -475h-8zM375 989l155 475h48l-195 -475h-8z" />
<glyph unicode="&#x201e;" horiz-adv-x="765" d="M84 -303l156 475h47l-195 -475h-8zM375 -303l155 475h48l-195 -475h-8z" />
<glyph unicode="&#x2022;" horiz-adv-x="425" d="M123 600q0 38 26 65t62 27q38 0 65 -27t27 -65q0 -36 -27 -62t-65 -26q-35 0 -61.5 26.5t-26.5 61.5z" />
<glyph unicode="&#x2026;" horiz-adv-x="1351" d="M178 45q0 19 13 33t32 14t33 -14t14 -33t-14 -32t-33 -13t-32 13t-13 32zM629 45q0 19 13 33t32 14t33 -14t14 -33t-14 -32t-33 -13t-32 13t-13 32zM1079 45q0 19 13 33t32 14t33 -14t14 -33t-14 -32t-33 -13t-32 13t-13 32z" />
<glyph unicode="&#x202f;" horiz-adv-x="380" />
<glyph unicode="&#x2039;" horiz-adv-x="505" d="M61 483l377 430l6 -4l-366 -426l366 -426l-6 -4z" />
<glyph unicode="&#x203a;" horiz-adv-x="505" d="M61 57l367 426l-367 426l7 4l376 -430l-376 -430z" />
<glyph unicode="&#x205f;" horiz-adv-x="475" />
<glyph unicode="&#x20ac;" horiz-adv-x="1021" d="M41 614v11h90q-2 29 -2 92v82h-88v10h88q6 150 32.5 266.5t66.5 188.5t94.5 118t111 64t121.5 18q66 0 123 -19.5t111 -63.5t95.5 -124.5t65.5 -193.5l-10 -2q-20 92 -52 162.5t-69.5 113.5t-83 70t-89 37t-91.5 10q-59 0 -111.5 -16t-107 -60t-94 -114t-67.5 -186.5 t-34 -268.5h664v-10h-664q-2 -27 -2 -82q0 -63 2 -92h664v-11h-664q7 -150 35.5 -264.5t68 -183t93.5 -112t106 -59t111 -15.5q48 0 91.5 10t89 37t83 70t69.5 113.5t52 162.5l10 -2q-19 -91 -50.5 -161t-69 -115t-84 -74t-93 -40.5t-98.5 -11.5q-65 0 -120.5 17.5 t-109.5 62.5t-93.5 116t-66.5 185.5t-34 263.5h-90z" />
<glyph unicode="&#x2122;" horiz-adv-x="1239" d="M51 1423v11h486v-11h-238v-620h-10v620h-238zM639 803v631h14l246 -375l246 375h12v-631h-10v620l-244 -374h-10l-244 374v-620h-10z" />
<glyph unicode="&#x25fc;" horiz-adv-x="1024" d="M0 0v1024h1024v-1024h-1024z" />
</font>
</defs>
</svg>
